SplineFontDB: 3.0
FontName: Neuton-Light
FullName: Neuton Light
FamilyName: Neuton
Weight: Light
Copyright: Copyright (c) 2010, 2011 Brian M Zick (http://21326.info/), \nwith Reserved Font Name 'Neuton'.\n\nThis Font Software is licensed under the SIL Open Font License, Version 1.1.\nThis license is available with a FAQ at: http://scripts.sil.org/OFL\n   WITHOUT WARRANTIES OR CONDITIONS OF ANY KIND, either express or implied.\n   See the License for the specific language governing permissions and\n   limitations under the License.
UComments: "2011-6-6: Created." 
Version: 1.46
ItalicAngle: 0
UnderlinePosition: -361
UnderlineWidth: 0
Ascent: 1638
Descent: 410
LayerCount: 2
Layer: 0 0 "Back"  1
Layer: 1 0 "Fore"  0
XUID: [1021 467 2011608612 1910391]
FSType: 1
OS2Version: 1
OS2_WeightWidthSlopeOnly: 0
OS2_UseTypoMetrics: 0
CreationTime: 1307389376
ModificationTime: 1332374336
PfmFamily: 17
TTFWeight: 300
TTFWidth: 5
LineGap: 0
VLineGap: 0
Panose: 2 0 3 3 0 0 0 0 0 0
OS2TypoAscent: 2106
OS2TypoAOffset: 0
OS2TypoDescent: -485
OS2TypoDOffset: 0
OS2TypoLinegap: 0
OS2WinAscent: 2106
OS2WinAOffset: 0
OS2WinDescent: 485
OS2WinDOffset: 0
HheadAscent: 2106
HheadAOffset: 0
HheadDescent: -485
HheadDOffset: 0
OS2Vendor: 'PfEd'
Lookup: 3 0 0 "Neuton-Regular-'salt' Stylistic Alternates"  {"Neuton-Regular-Alternate Substitution in Latin lookup 0-1"  } ['salt' ('DFLT' <'dflt' > 'latn' <'dflt' > ) ]
Lookup: 1 0 0 "Neuton-Regular-'c2sc' Capitals to Small Capitals in Latin lookup 3"  {"Neuton-Regular-'c2sc' Capitals to Small Capitals in Latin lookup 3-1" ("sc" ) } ['c2sc' ('DFLT' <'dflt' > 'latn' <'dflt' > ) ]
Lookup: 1 0 0 "Neuton-Regular-'smcp' Lowercase to Small Capitals in Latin lookup 0"  {"Neuton-Regular-'smcp' Lowercase to Small Capitals in Latin lookup 0 subtable" ("sc" ) } ['smcp' ('latn' <'dflt' > ) ]

StartChar: A
Encoding: 33 65 0
Width: 1326
VWidth: 0
Flags: HMW
LayerCount: 2
Fore
SplineSet
46 0 m 1
 54 58 l 1
 199 101 l 1
 637 1246 l 1
 739 1268 l 1
 1141 95 l 1
 1276 64 l 1
 1268 0 l 1
 806 0 l 1
 816 58 l 1
 985 101 l 1
 861 455 l 1
 436 455 l 1
 305 95 l 1
 490 63 l 1
 480 0 l 1
 46 0 l 1
464 534 m 1
 837 534 l 1
 657 1060 l 1
 464 534 l 1
EndSplineSet
Substitution2: "Neuton-Regular-'c2sc' Capitals to Small Capitals in Latin lookup 3-1" a.sc
Colour: ffffff
EndChar

StartChar: AE
Encoding: 133 198 1
Width: 1740
VWidth: 0
Flags: HMW
LayerCount: 2
Fore
SplineSet
49 2 m 1
 57 60 l 1
 196 102 l 1
 840 1154 l 1
 616 1187 l 1
 625 1244 l 1
 1649 1244 l 1
 1617 926 l 1
 1552 936 l 1
 1521 1173 l 1
 1035 1173 l 1
 1035 669 l 1
 1334 669 l 1
 1374 801 l 1
 1446 808 l 1
 1412 421 l 1
 1346 409 l 1
 1321 596 l 1
 1035 596 l 1
 1035 75 l 1
 1549 75 l 1
 1635 326 l 1
 1695 313 l 1
 1665 0 l 1
 703 0 l 1
 710 58 l 1
 890 96 l 1
 890 472 l 1
 535 472 l 1
 308 96 l 1
 494 66 l 1
 484 2 l 1
 49 2 l 1
581 553 m 1
 891 553 l 1
 894 1075 l 5
 581 553 l 1
EndSplineSet
Substitution2: "Neuton-Regular-'c2sc' Capitals to Small Capitals in Latin lookup 3-1" ae.sc
Colour: ffffff
EndChar

StartChar: B
Encoding: 34 66 2
Width: 1097
VWidth: 0
Flags: HMW
LayerCount: 2
Fore
SplineSet
46 0 m 1
 56 58 l 1
 224 96 l 1
 224 1129 l 1
 53 1155 l 1
 62 1211 l 1
 208 1232 352 1257 530 1257 c 0
 817 1257 947 1118 947 967 c 0
 947 847 878 741 741 679 c 1
 741 672 l 1
 946 661 1051 513 1051 380 c 0
 1051 188 928 0 518 0 c 2
 46 0 l 1
371 75 m 1
 603 75 l 2
 819 75 900 213 900 347 c 0
 900 471 821 618 610 618 c 2
 371 618 l 1
 371 75 l 1
371 685 m 1
 655 685 l 1
 734 727 802 806 802 922 c 0
 802 1078 701 1192 471 1192 c 0
 446 1192 398 1191 371 1186 c 1
 371 685 l 1
EndSplineSet
Substitution2: "Neuton-Regular-'c2sc' Capitals to Small Capitals in Latin lookup 3-1" b.sc
Colour: ffffff
EndChar

StartChar: C
Encoding: 35 67 3
Width: 1096
VWidth: 0
Flags: HMW
LayerCount: 2
Fore
SplineSet
50 599 m 0
 50 894 233 1270 653 1270 c 0
 786 1270 908 1244 1004 1171 c 1
 973 836 l 1
 905 846 l 1
 869 1086 l 1
 823 1146 745 1195 601 1195 c 0
 388 1195 213 978 213 651 c 0
 213 284 406 84 669 84 c 0
 813 84 942 166 1026 252 c 1
 1055 195 l 1
 984 100 812 -25 600 -25 c 0
 294 -25 50 207 50 599 c 0
EndSplineSet
Substitution2: "Neuton-Regular-'c2sc' Capitals to Small Capitals in Latin lookup 3-1" c.sc
Colour: ffffff
EndChar

StartChar: D
Encoding: 36 68 4
Width: 1302
VWidth: 0
Flags: HMW
LayerCount: 2
Fore
SplineSet
45 0 m 1
 56 58 l 1
 227 101 l 1
 227 1128 l 1
 54 1154 l 1
 64 1210 l 1
 261 1241 411 1259 557 1259 c 0
 1092 1259 1254 962 1254 654 c 0
 1254 312 1020 0 508 0 c 2
 45 0 l 1
373 79 m 1
 535 79 l 2
 890 79 1091 299 1091 599 c 0
 1091 934 900 1181 521 1181 c 0
 480 1181 414 1181 373 1176 c 1
 373 79 l 1
EndSplineSet
Substitution2: "Neuton-Regular-'c2sc' Capitals to Small Capitals in Latin lookup 3-1" d.sc
Colour: ffffff
EndChar

StartChar: E
Encoding: 37 69 5
Width: 1098
VWidth: 0
Flags: HMW
LayerCount: 2
Fore
SplineSet
47 1185 m 1
 56 1244 l 1
 1007 1244 l 1
 976 925 l 1
 909 934 l 1
 879 1173 l 1
 376 1173 l 1
 376 668 l 1
 691 668 l 1
 731 797 l 1
 803 808 l 1
 770 419 l 1
 704 408 l 1
 679 594 l 1
 376 594 l 1
 376 75 l 1
 905 75 l 1
 991 324 l 1
 1053 313 l 1
 1023 0 l 1
 53 0 l 1
 59 58 l 1
 228 96 l 1
 228 1151 l 1
 47 1185 l 1
EndSplineSet
Substitution2: "Neuton-Regular-'c2sc' Capitals to Small Capitals in Latin lookup 3-1" e.sc
Colour: ffffff
EndChar

StartChar: Eth
Encoding: 143 208 7
Width: 1314
VWidth: 0
Flags: HMW
LayerCount: 2
Fore
SplineSet
51 574 m 1
 61 650 l 1
 232 662 l 1
 232 1129 l 1
 59 1155 l 1
 69 1211 l 1
 266 1242 416 1260 562 1260 c 0
 1097 1260 1266 965 1266 657 c 0
 1266 323 1025 0 522 0 c 2
 50 0 l 1
 61 58 l 1
 232 101 l 1
 232 587 l 1
 51 574 l 1
378 79 m 1
 574 79 l 2
 916 79 1101 305 1101 599 c 0
 1101 934 907 1182 526 1182 c 0
 485 1182 419 1181 378 1176 c 1
 378 672 l 1
 650 692 l 1
 640 616 l 1
 378 597 l 1
 378 79 l 1
EndSplineSet
Substitution2: "Neuton-Regular-'c2sc' Capitals to Small Capitals in Latin lookup 3-1" eth.sc
Colour: ffffff
EndChar

StartChar: Euro
Encoding: 207 8364 8
Width: 1174
VWidth: 0
Flags: HMW
LayerCount: 2
Fore
SplineSet
47 493 m 1
 53 576 l 1
 878 576 l 1
 861 493 l 1
 47 493 l 1
56 672 m 1
 61 754 l 1
 925 754 l 1
 908 672 l 1
 56 672 l 1
214 610 m 0
 214 939 402 1270 790 1270 c 0
 923 1270 1012 1244 1108 1171 c 1
 1076 836 l 1
 1011 846 l 1
 974 1086 l 1
 931 1149 881 1190 760 1190 c 0
 511 1190 381 972 381 641 c 1
 381 287 534 63 788 63 c 0
 851 63 933 94 990 173 c 1
 1027 417 l 1
 1093 426 l 1
 1124 107 l 1
 1002 16 901 -25 737 -25 c 0
 425 -25 214 224 214 610 c 0
EndSplineSet
Colour: ffffff
EndChar

StartChar: F
Encoding: 38 70 9
Width: 1053
VWidth: 0
Flags: HMW
LayerCount: 2
Fore
SplineSet
48 1185 m 1
 56 1244 l 1
 1006 1244 l 1
 969 923 l 1
 901 933 l 1
 873 1173 l 1
 376 1173 l 1
 376 652 l 1
 687 652 l 1
 728 782 l 1
 799 792 l 1
 770 402 l 1
 701 391 l 1
 677 579 l 1
 376 579 l 1
 375 96 l 1
 616 68 l 1
 604 0 l 1
 53 0 l 1
 58 58 l 1
 227 96 l 1
 227 1151 l 1
 48 1185 l 1
EndSplineSet
Substitution2: "Neuton-Regular-'c2sc' Capitals to Small Capitals in Latin lookup 3-1" f.sc
Colour: ffffff
EndChar

StartChar: G
Encoding: 39 71 10
Width: 1258
VWidth: 0
Flags: HMW
LayerCount: 2
Fore
SplineSet
50 591 m 0
 50 958 320 1262 677 1262 c 0
 832 1262 982 1228 1080 1162 c 1
 1052 841 l 1
 986 852 l 1
 953 1066 l 1
 907 1119 793 1182 635 1182 c 0
 396 1182 214 985 214 640 c 0
 214 347 367 61 710 61 c 0
 796 61 874 84 926 119 c 1
 927 463 l 1
 688 495 l 1
 698 556 l 1
 1216 556 l 1
 1206 499 l 1
 1077 467 l 1
 1077 79 l 1
 944 0 801 -26 601 -26 c 0
 262 -26 50 228 50 591 c 0
EndSplineSet
Substitution2: "Neuton-Regular-'c2sc' Capitals to Small Capitals in Latin lookup 3-1" g.sc
Colour: ffffff
EndChar

StartChar: Germandbls
Encoding: 195 7838 11
Width: 1264
VWidth: 0
Flags: HMW
LayerCount: 2
Fore
SplineSet
46 0 m 1
 53 57 l 1
 220 96 l 1
 220 758 l 2
 220 1112 401 1261 699 1261 c 0
 887 1261 1158 1198 1158 1048 c 0
 1158 983 1122 954 1056 932 c 1
 1028 1038 970 1153 845 1153 c 0
 760 1153 655 1074 655 946 c 0
 655 645 1219 647 1219 312 c 0
 1219 105 1050 -25 814 -25 c 0
 671 -25 544 33 484 118 c 1
 505 388 l 1
 577 377 l 1
 608 179 l 1
 648 107 749 57 852 57 c 0
 966 57 1073 112 1073 256 c 0
 1073 524 522 528 522 874 c 0
 522 1013 606 1151 747 1184 c 1
 749 1188 l 1
 729 1190 681 1191 661 1191 c 0
 464 1191 366 1035 366 780 c 2
 366 0 l 1
 46 0 l 1
EndSplineSet
Substitution2: "Neuton-Regular-'c2sc' Capitals to Small Capitals in Latin lookup 3-1" germandbls.sc
AlternateSubs2: "Neuton-Regular-Alternate Substitution in Latin lookup 0-1" Germandbls.alt
Colour: ffffff
EndChar

StartChar: H
Encoding: 40 72 12
Width: 1435
VWidth: 0
Flags: HMW
LayerCount: 2
Fore
SplineSet
46 1187 m 1
 53 1244 l 1
 554 1244 l 1
 546 1187 l 1
 377 1156 l 1
 377 672 l 1
 1050 672 l 1
 1050 1154 l 1
 867 1187 l 1
 876 1244 l 1
 1376 1244 l 1
 1367 1187 l 1
 1200 1156 l 1
 1200 90 l 1
 1382 63 l 1
 1374 0 l 1
 875 0 l 1
 885 58 l 1
 1050 96 l 1
 1050 592 l 1
 377 591 l 1
 377 90 l 1
 563 63 l 1
 551 0 l 1
 54 0 l 1
 60 58 l 1
 228 96 l 1
 228 1154 l 1
 46 1187 l 1
EndSplineSet
Substitution2: "Neuton-Regular-'c2sc' Capitals to Small Capitals in Latin lookup 3-1" h.sc
Colour: ffffff
EndChar

StartChar: I
Encoding: 41 73 13
Width: 614
VWidth: 0
Flags: HMW
LayerCount: 2
Fore
SplineSet
46 1187 m 1
 54 1244 l 1
 555 1244 l 5
 546 1187 l 1
 374 1156 l 1
 374 90 l 1
 561 63 l 1
 551 0 l 1
 54 0 l 1
 61 58 l 1
 223 96 l 1
 223 1154 l 1
 46 1187 l 1
EndSplineSet
Substitution2: "Neuton-Regular-'c2sc' Capitals to Small Capitals in Latin lookup 3-1" i.sc
Colour: ffffff
EndChar

StartChar: J
Encoding: 42 74 14
Width: 656
VWidth: 0
Flags: HMW
LayerCount: 2
Fore
SplineSet
38 -259 m 1
 199 -114 283 23 283 209 c 2
 283 1154 l 1
 101 1187 l 1
 109 1244 l 1
 612 1244 l 1
 603 1187 l 1
 433 1156 l 1
 431 372 l 2
 429 -28 345 -144 76 -325 c 1
 38 -259 l 1
EndSplineSet
Substitution2: "Neuton-Regular-'c2sc' Capitals to Small Capitals in Latin lookup 3-1" j.sc
Colour: ffffff
EndChar

StartChar: K
Encoding: 43 75 15
Width: 1251
VWidth: 0
Flags: HMW
LayerCount: 2
Fore
SplineSet
46 1187 m 1
 56 1244 l 1
 556 1244 l 1
 549 1187 l 1
 378 1152 l 1
 378 95 l 1
 565 63 l 1
 555 0 l 1
 55 0 l 1
 63 58 l 1
 227 101 l 1
 227 1149 l 1
 46 1187 l 1
417 623 m 1
 452 660 518 730 567 790 c 2
 856 1151 l 1
 691 1187 l 1
 697 1244 l 1
 1147 1244 l 1
 1140 1187 l 1
 975 1152 l 1
 564 649 l 1
 809 358 l 2
 956 184 1030 97 1154 68 c 2
 1200 58 l 1
 1189 2 l 1
 1143 -14 1111 -21 1070 -21 c 0
 920 -21 812 97 696 246 c 2
 419 604 l 1
 417 623 l 1
EndSplineSet
Substitution2: "Neuton-Regular-'c2sc' Capitals to Small Capitals in Latin lookup 3-1" k.sc
Colour: ffffff
EndChar

StartChar: L
Encoding: 44 76 16
Width: 1078
VWidth: 0
Flags: HMW
LayerCount: 2
Fore
SplineSet
52 0 m 1
 60 58 l 1
 227 96 l 1
 227 1148 l 1
 47 1186 l 1
 56 1244 l 1
 558 1244 l 1
 551 1186 l 1
 376 1152 l 1
 376 75 l 1
 863 75 l 1
 968 341 l 1
 1032 331 l 1
 998 0 l 1
 52 0 l 1
EndSplineSet
Substitution2: "Neuton-Regular-'c2sc' Capitals to Small Capitals in Latin lookup 3-1" l.sc
Colour: ffffff
EndChar

StartChar: M
Encoding: 45 77 17
Width: 1711
VWidth: 0
Flags: HMW
LayerCount: 2
Fore
SplineSet
44 0 m 1
 52 54 l 1
 220 92 l 1
 297 1151 l 1
 113 1188 l 1
 122 1244 l 1
 482 1244 l 1
 557 1053 l 1
 844 268 l 1
 1178 1092 l 1
 1245 1244 l 1
 1605 1244 l 1
 1598 1188 l 1
 1427 1154 l 1
 1481 86 l 1
 1662 60 l 1
 1656 0 l 1
 1157 0 l 1
 1165 54 l 1
 1334 92 l 1
 1277 1087 l 1
 854 55 l 1
 765 41 l 1
 389 1059 l 1
 318 86 l 1
 501 60 l 1
 491 0 l 1
 44 0 l 1
EndSplineSet
Substitution2: "Neuton-Regular-'c2sc' Capitals to Small Capitals in Latin lookup 3-1" m.sc
Colour: ffffff
EndChar

StartChar: N
Encoding: 46 78 18
Width: 1368
VWidth: 0
Flags: HMW
LayerCount: 2
Fore
SplineSet
46 1188 m 1
 56 1244 l 1
 383 1244 l 1
 1050 225 l 1
 1050 1154 l 1
 865 1187 l 1
 874 1244 l 1
 1324 1244 l 1
 1313 1187 l 1
 1147 1156 l 1
 1147 -3 l 1
 1043 -24 l 1
 330 1047 l 1
 330 90 l 1
 514 63 l 1
 504 0 l 1
 56 0 l 1
 62 58 l 1
 229 96 l 1
 229 1147 l 1
 46 1188 l 1
EndSplineSet
Substitution2: "Neuton-Regular-'c2sc' Capitals to Small Capitals in Latin lookup 3-1" n.sc
Colour: ffffff
EndChar

StartChar: O
Encoding: 47 79 19
Width: 1266
VWidth: 0
Flags: HMW
LayerCount: 2
Fore
SplineSet
50 620 m 0
 50 1005 288 1274 669 1274 c 0
 1021 1274 1218 984 1218 624 c 0
 1218 299 1010 -27 599 -27 c 0
 268 -27 50 263 50 620 c 0
217 678 m 0
 217 346 356 58 647 58 c 0
 944 58 1052 331 1052 574 c 0
 1052 906 907 1197 620 1197 c 0
 323 1197 217 939 217 678 c 0
EndSplineSet
Substitution2: "Neuton-Regular-'c2sc' Capitals to Small Capitals in Latin lookup 3-1" o.sc
Colour: ffffff
EndChar

StartChar: Oslash
Encoding: 151 216 20
Width: 1264
VWidth: 0
Flags: HMW
LayerCount: 2
Fore
SplineSet
108 8 m 1
 247 194 l 1
 286 216 l 1
 938 1076 l 1
 947 1113 l 1
 1037 1233 l 1
 1158 1220 l 1
 1034 1070 l 1
 986 1033 l 1
 321 155 l 1
 315 125 l 1
 224 -5 l 1
 108 8 l 1
215 678 m 0
 215 346 358 58 647 58 c 0
 944 58 1051 331 1051 574 c 0
 1051 906 906 1197 619 1197 c 0
 322 1197 215 939 215 678 c 0
50 620 m 0
 50 1005 287 1274 668 1274 c 0
 1020 1274 1216 988 1216 624 c 0
 1216 299 1009 -27 598 -27 c 0
 267 -27 50 263 50 620 c 0
EndSplineSet
Substitution2: "Neuton-Regular-'c2sc' Capitals to Small Capitals in Latin lookup 3-1" oslash.sc
Colour: ffffff
EndChar

StartChar: P
Encoding: 48 80 21
Width: 1039
VWidth: 0
Flags: HMW
LayerCount: 2
Fore
SplineSet
46 0 m 1
 54 58 l 1
 217 96 l 1
 217 1129 l 1
 51 1155 l 1
 59 1211 l 1
 188 1231 329 1256 500 1256 c 0
 762 1256 993 1166 993 893 c 0
 993 652 766 488 519 488 c 0
 493 488 468 489 445 491 c 1
 430 553 l 1
 483 555 l 2
 724 564 827 687 827 865 c 0
 827 1036 719 1192 474 1192 c 0
 433 1192 368 1186 368 1186 c 1
 368 94 l 1
 603 65 l 1
 592 0 l 1
 46 0 l 1
EndSplineSet
Substitution2: "Neuton-Regular-'c2sc' Capitals to Small Capitals in Latin lookup 3-1" p.sc
Colour: ffffff
EndChar

StartChar: Q
Encoding: 49 81 22
Width: 1273
VWidth: 0
Flags: HMW
LayerCount: 2
Fore
SplineSet
50 614 m 0
 50 999 297 1274 676 1274 c 0
 1026 1274 1225 985 1225 629 c 0
 1225 346 1058 61 755 -9 c 1
 841 -199 951 -263 1191 -294 c 1
 1190 -309 1186 -343 1181 -355 c 1
 1133 -378 1073 -385 1017 -385 c 0
 838 -385 698 -233 672 -21 c 1
 655 -24 621 -27 600 -27 c 0
 279 -27 50 257 50 614 c 0
207 670 m 0
 207 368 368 60 699 47 c 1
 950 103 1068 333 1068 568 c 0
 1068 906 898 1193 623 1193 c 0
 357 1193 207 981 207 670 c 0
EndSplineSet
Substitution2: "Neuton-Regular-'c2sc' Capitals to Small Capitals in Latin lookup 3-1" q.sc
Colour: ffffff
EndChar

StartChar: R
Encoding: 50 82 23
Width: 1223
VWidth: 0
Flags: HMW
LayerCount: 2
Fore
SplineSet
46 0 m 1
 55 58 l 1
 217 96 l 1
 217 1127 l 1
 51 1153 l 1
 61 1209 l 1
 209 1233 353 1254 501 1254 c 0
 759 1254 952 1166 952 952 c 0
 952 820 870 690 671 605 c 1
 671 604 l 1
 857 336 l 2
 990 145 1039 94 1134 64 c 2
 1175 51 l 1
 1164 -2 l 1
 1121 -17 1095 -19 1058 -19 c 0
 921 -19 828 94 739 245 c 2
 558 554 l 1
 364 554 l 1
 364 96 l 1
 564 64 l 1
 554 0 l 1
 46 0 l 1
364 628 m 1
 577 628 l 1
 691 669 794 771 794 910 c 0
 794 1082 678 1189 485 1189 c 0
 423 1189 364 1184 364 1184 c 1
 364 628 l 1
EndSplineSet
Substitution2: "Neuton-Regular-'c2sc' Capitals to Small Capitals in Latin lookup 3-1" r.sc
Colour: ffffff
EndChar

StartChar: S
Encoding: 51 83 24
Width: 850
VWidth: 0
Flags: HMW
LayerCount: 2
Fore
SplineSet
48 119 m 1
 70 395 l 1
 145 384 l 1
 178 181 l 1
 219 109 316 57 419 57 c 0
 534 57 658 126 658 274 c 0
 658 554 84 577 84 938 c 0
 84 1151 266 1270 445 1270 c 0
 553 1270 659 1235 732 1165 c 1
 732 1161 705 869 705 869 c 1
 632 878 l 1
 606 1096 l 1
 579 1147 496 1200 415 1200 c 0
 309 1200 220 1132 220 1001 c 0
 220 699 805 680 805 331 c 0
 805 122 619 -25 381 -25 c 0
 237 -25 112 40 48 119 c 1
EndSplineSet
Substitution2: "Neuton-Regular-'c2sc' Capitals to Small Capitals in Latin lookup 3-1" s.sc
Colour: ffffff
EndChar

StartChar: T
Encoding: 52 84 25
Width: 1166
VWidth: 0
Flags: HMW
LayerCount: 2
Fore
SplineSet
46 1244 m 1
 1118 1244 l 1
 1084 909 l 1
 1011 920 l 1
 984 1173 l 1
 646 1173 l 1
 646 94 l 1
 827 63 l 1
 815 0 l 1
 318 0 l 1
 324 58 l 1
 496 96 l 1
 496 1173 l 1
 171 1173 l 1
 126 912 l 1
 55 923 l 1
 46 1244 l 1
EndSplineSet
Substitution2: "Neuton-Regular-'c2sc' Capitals to Small Capitals in Latin lookup 3-1" t.sc
Colour: ffffff
EndChar

StartChar: Thorn
Encoding: 157 222 26
Width: 1045
VWidth: 0
Flags: HMW
LayerCount: 2
Fore
SplineSet
47 1187 m 1
 55 1244 l 1
 556 1244 l 1
 548 1187 l 1
 375 1156 l 1
 375 1021 l 1
 416 1023 465 1024 506 1024 c 0
 771 1024 999 933 999 660 c 0
 999 416 782 254 535 254 c 0
 508 254 480 256 451 259 c 1
 447 271 437 302 437 322 c 1
 446 322 482 323 490 323 c 1
 731 329 834 454 834 632 c 0
 834 803 722 953 482 953 c 0
 441 953 375 946 375 946 c 1
 375 94 l 1
 610 64 l 1
 599 0 l 1
 53 0 l 1
 60 57 l 1
 225 96 l 5
 225 1154 l 1
 47 1187 l 1
EndSplineSet
Substitution2: "Neuton-Regular-'c2sc' Capitals to Small Capitals in Latin lookup 3-1" thorn.sc
Colour: ffffff
EndChar

StartChar: U
Encoding: 53 85 27
Width: 1398
VWidth: 0
Flags: HMW
LayerCount: 2
Fore
SplineSet
43 1187 m 1
 52 1244 l 1
 550 1244 l 1
 543 1187 l 1
 374 1156 l 1
 374 503 l 2
 374 188 522 73 734 73 c 0
 948 73 1077 202 1077 466 c 2
 1078 1154 l 1
 894 1187 l 1
 902 1244 l 1
 1353 1244 l 1
 1344 1187 l 1
 1178 1156 l 1
 1173 503 l 2
 1171 160 1035 -27 693 -27 c 0
 462 -27 226 61 226 465 c 2
 226 1154 l 1
 43 1187 l 1
EndSplineSet
Substitution2: "Neuton-Regular-'c2sc' Capitals to Small Capitals in Latin lookup 3-1" u.sc
Colour: ffffff
EndChar

StartChar: V
Encoding: 54 86 30
Width: 1325
VWidth: 0
Flags: HMW
LayerCount: 2
Fore
SplineSet
44 1188 m 1
 51 1244 l 1
 533 1244 l 1
 526 1188 l 1
 357 1156 l 1
 687 206 l 1
 1035 1152 l 1
 850 1188 l 1
 856 1244 l 1
 1278 1244 l 1
 1273 1188 l 1
 1143 1156 l 1
 709 -4 l 1
 607 -25 l 1
 191 1152 l 1
 44 1188 l 1
EndSplineSet
Substitution2: "Neuton-Regular-'c2sc' Capitals to Small Capitals in Latin lookup 3-1" v.sc
Colour: ffffff
EndChar

StartChar: W
Encoding: 55 87 31
Width: 1841
VWidth: 0
Flags: HMW
LayerCount: 2
Fore
SplineSet
44 1188 m 1
 52 1244 l 1
 506 1244 l 1
 497 1190 l 1
 331 1156 l 1
 595 225 l 1
 885 1199 l 1
 996 1214 l 1
 1262 233 l 1
 1554 1151 l 1
 1370 1189 l 1
 1378 1244 l 1
 1795 1244 l 1
 1787 1188 l 1
 1667 1154 l 1
 1287 -4 l 1
 1178 -25 l 1
 913 971 l 1
 623 -4 l 1
 506 -24 l 1
 175 1153 l 1
 44 1188 l 1
EndSplineSet
Substitution2: "Neuton-Regular-'c2sc' Capitals to Small Capitals in Latin lookup 3-1" w.sc
Colour: ffffff
EndChar

StartChar: X
Encoding: 56 88 32
Width: 1294
VWidth: 0
Flags: HMW
LayerCount: 2
Fore
SplineSet
46 0 m 1
 55 56 l 1
 181 92 l 1
 572 620 l 1
 208 1154 l 1
 71 1189 l 1
 79 1244 l 1
 545 1244 l 1
 538 1189 l 1
 382 1152 l 1
 671 727 l 1
 985 1155 l 1
 814 1187 l 1
 823 1244 l 1
 1225 1244 l 1
 1221 1188 l 1
 1095 1159 l 1
 727 654 l 1
 1105 84 l 1
 1241 58 l 1
 1231 0 l 1
 766 0 l 1
 775 51 l 1
 937 90 l 1
 628 550 l 1
 295 89 l 1
 461 62 l 1
 449 0 l 1
 46 0 l 1
EndSplineSet
Substitution2: "Neuton-Regular-'c2sc' Capitals to Small Capitals in Latin lookup 3-1" x.sc
Colour: ffffff
EndChar

StartChar: Y
Encoding: 57 89 33
Width: 1214
VWidth: 0
Flags: HMW
LayerCount: 2
Fore
SplineSet
44 1188 m 1
 53 1244 l 1
 516 1244 l 1
 508 1188 l 1
 345 1156 l 1
 641 605 l 1
 928 1152 l 1
 744 1188 l 1
 750 1244 l 1
 1167 1244 l 1
 1161 1188 l 1
 1034 1156 l 1
 687 509 l 1
 687 91 l 1
 859 63 l 1
 850 0 l 1
 367 0 l 1
 375 58 l 1
 537 96 l 1
 537 497 l 1
 183 1152 l 1
 44 1188 l 1
EndSplineSet
Substitution2: "Neuton-Regular-'c2sc' Capitals to Small Capitals in Latin lookup 3-1" y.sc
Colour: ffffff
EndChar

StartChar: Z
Encoding: 58 90 35
Width: 1070
VWidth: 0
Flags: HMW
LayerCount: 2
Fore
SplineSet
49 71 m 1
 823 1170 l 1
 236 1170 l 1
 158 903 l 1
 94 918 l 1
 103 1244 l 1
 1006 1244 l 1
 1008 1188 l 1
 223 79 l 1
 841 79 l 1
 956 347 l 1
 1025 336 l 1
 977 0 l 1
 56 0 l 1
 49 71 l 1
EndSplineSet
Substitution2: "Neuton-Regular-'c2sc' Capitals to Small Capitals in Latin lookup 3-1" z.sc
Colour: ffffff
EndChar

StartChar: a
Encoding: 65 97 36
Width: 821
VWidth: 0
Flags: HMW
LayerCount: 2
Fore
SplineSet
45.5 158.5 m 0
 45.5 325.5 199 447 521 461 c 1
 521 528 l 2
 521 697.5 474.391 812.942 328.5 812.942 c 0
 223.509 812.942 206.936 737.312 197.5 590.5 c 1
 148.189 590.5 84.5 605.142 84.5 680.5 c 0
 84.5 787.239 254.5 884.942 401 884.942 c 0
 573.079 884.942 647.5 789.562 647.5 581 c 2
 647.5 229.5 l 2
 647.5 137.5 657.5 88 747.5 73 c 2
 805.5 62 l 1
 796.5 2 l 1
 763 -5.5 728.5 -18 678 -18 c 0
 578.672 -18 537.5 50.5 537.5 115.5 c 2
 537.5 129.5 l 1
 529.5 129.5 l 1
 502 74.8654 408.021 -25 251.5 -25 c 0
 143.962 -25 45.5 42.3077 45.5 158.5 c 0
187 197 m 0
 187 135.993 233.857 70.5 318 70.5 c 0
 410.521 70.5 488.202 127.084 521 186.5 c 1
 521 410 l 1
 317.479 387.586 187 323.5 187 197 c 0
EndSplineSet
Substitution2: "Neuton-Regular-'smcp' Lowercase to Small Capitals in Latin lookup 0 subtable" a.sc
Colour: ffffff
EndChar

StartChar: acute
Encoding: 115 180 37
Width: 387
VWidth: 0
Flags: HMW
LayerCount: 2
Fore
SplineSet
79 1376 m 1
 207 1706 l 1
 310 1667 l 1
 128 1346 l 1
 79 1376 l 1
EndSplineSet
Colour: ffffff
EndChar

StartChar: ae
Encoding: 165 230 38
Width: 1203
VWidth: 0
Flags: HMW
LayerCount: 2
Fore
SplineSet
46 163 m 0
 46 318 161 425 508 476 c 1
 508 539 l 2
 508 711 472 813 329 813 c 0
 226 813 207 731 192 609 c 1
 144 609 84 621 84 693 c 0
 84 799 258 888 397 888 c 0
 502 888 577 844 605 748 c 1
 681 846 786 886 882 886 c 0
 1028 886 1133 789 1133 578 c 0
 1133 547 1124 483 1115 448 c 1
 632 428 l 1
 636 240 720 70 918 70 c 0
 1001 70 1064 95 1139 146 c 1
 1158 104 l 1
 1090 25 982 -30 849 -30 c 0
 746 -30 585 44 546 172 c 1
 516 74 397 -26 247 -26 c 0
 141 -26 46 40 46 163 c 0
182 200 m 0
 182 119 228 62 309 62 c 0
 400 62 508 144 508 255 c 2
 508 416 l 1
 283 382 182 327 182 200 c 0
632 492 m 1
 982 529 l 1
 988 548 992 595 992 611 c 0
 992 729 928 809 832 809 c 0
 727 809 637 693 632 492 c 1
EndSplineSet
Substitution2: "Neuton-Regular-'smcp' Lowercase to Small Capitals in Latin lookup 0 subtable" ae.sc
Colour: ffffff
EndChar

StartChar: ampersand
Encoding: 6 38 40
Width: 1277
VWidth: 0
Flags: HMW
LayerCount: 2
Fore
SplineSet
51 278 m 0
 51 450 178 577 348 687 c 1
 281 757 206 865 206 975 c 0
 206 1131 342 1272 502 1272 c 0
 669 1272 775 1184 775 1016 c 0
 775 894 675 795 533 700 c 1
 533 693 l 1
 776 417 l 1
 959 720 l 1
 802 757 l 1
 808 812 l 1
 1233 812 l 1
 1225 757 l 1
 1056 723 l 1
 837 356 l 1
 989 176 1106 88 1181 64 c 2
 1220 52 l 1
 1210 -2 l 1
 1170 -16 1144 -20 1104 -20 c 0
 1000 -20 908 60 852 122 c 2
 757 227 l 1
 668 97 560 -20 367 -20 c 0
 175 -20 51 105 51 278 c 0
201 337 m 0
 201 201 282 86 419 86 c 0
 542 86 636 181 698 286 c 1
 400 626 l 1
 390 627 l 1
 291 555 201 465 201 337 c 0
326 1025 m 0
 326 930 408 824 478 752 c 1
 571 819 640 884 640 994 c 0
 640 1106 581 1200 478 1200 c 0
 384 1200 326 1115 326 1025 c 0
EndSplineSet
Substitution2: "Neuton-Regular-'c2sc' Capitals to Small Capitals in Latin lookup 3-1" ampersand.sc
Colour: ffffff
EndChar

StartChar: asciicircum
Encoding: 62 94 41
Width: 743
VWidth: 0
Flags: HMW
LayerCount: 2
Fore
SplineSet
51 826 m 1
 340 1238 l 1
 396 1251 l 1
 690 824 l 1
 642 792 l 1
 365 1098 l 1
 355 1098 l 1
 93 797 l 1
 51 826 l 1
EndSplineSet
Colour: ffffff
EndChar

StartChar: asciitilde
Encoding: 94 126 42
Width: 900
VWidth: 0
Flags: HMW
LayerCount: 2
Fore
SplineSet
59 417 m 1
 59 417 120 644 274 613 c 2
 673 542 l 2
 742 527 790 624 790 624 c 1
 845 623 l 1
 845 623 780 390 623 422 c 2
 224 493 l 2
 158 508 106 404 106 404 c 1
 59 417 l 1
EndSplineSet
Colour: ffffff
EndChar

StartChar: asterisk
Encoding: 10 42 43
Width: 801
VWidth: 0
Flags: HMW
LayerCount: 2
Fore
SplineSet
338 1291 m 1
 461 1280 l 1
 436 981 l 1
 726 1106 l 5
 753 990 l 1
 462 923 l 1
 674 686 l 1
 569 623 l 1
 413 882 l 1
 252 604 l 1
 159 685 l 1
 357 912 l 1
 47 978 l 1
 95 1092 l 1
 371 974 l 1
 338 1291 l 1
EndSplineSet
Colour: ffffff
EndChar

StartChar: at
Encoding: 32 64 44
Width: 1325
VWidth: 0
Flags: HMW
LayerCount: 2
Fore
SplineSet
56 329 m 0
 56 708 333 1045 757 1045 c 0
 1038 1045 1272 856 1272 582 c 0
 1272 311 1075 69 801 69 c 0
 738 69 727 123 730 187 c 1
 721 187 l 1
 681 127 597 60 521 60 c 0
 422 60 357 154 357 325 c 0
 357 610 569 790 738 790 c 0
 791 790 832 786 890 773 c 1
 908 752 l 1
 866 385 l 2
 846 213 832 152 878 152 c 0
 1030 152 1164 314 1164 545 c 0
 1164 811 956 972 720 972 c 0
 400 972 178 693 178 355 c 0
 178 52 370 -149 697 -149 c 0
 847 -149 1009 -71 1056 -31 c 1
 1085 -82 l 1
 997 -140 878 -227 660 -227 c 0
 355 -227 56 -55 56 329 c 0
480 369 m 0
 480 218 513 160 564 160 c 0
 617 160 697 208 732 248 c 1
 786 703 l 1
 763 709 715 714 684 714 c 0
 564 714 480 550 480 369 c 0
EndSplineSet
Colour: ffffff
EndChar

StartChar: b
Encoding: 66 98 45
Width: 978
VWidth: 0
Flags: HMW
LayerCount: 2
Back
SplineSet
10 0 m 5
 21 79 l 5
 175 116 l 5
 175 1147 l 5
 15 1201 l 5
 27 1277 l 5
 316 1299 l 5
 341 1275 l 5
 341 850 l 5
 325 744 l 5
 335 744 l 5
 418 836 516 900 629 900 c 4
 767 900 872 842 872 599 c 6
 872 114 l 5
 1017 79 l 5
 1005 0 l 5
 556 0 l 5
 568 74 l 5
 703 114 l 5
 706 580 l 6
 706 722 613 764 534 764 c 4
 477 764 411 748 341 675 c 5
 341 116 l 5
 487 80 l 5
 475 0 l 5
 10 0 l 5
EndSplineSet
Fore
SplineSet
43 1221 m 1
 52 1275 l 1
 310 1295 l 1
 325 1279 l 1
 325 837 l 1
 311 733 l 1
 323 733 l 1
 402 822 499 886 612 886 c 0
 805 886 930 718 930 466 c 0
 930 149 705 -24 445 -24 c 0
 355 -24 272 0 196 49 c 1
 196 1179 l 1
 43 1221 l 1
325 126 m 1
 366 85 446 62 533 62 c 0
 658 62 788 182 788 406 c 0
 788 615 725 785 545 785 c 0
 480 785 404 752 325 668 c 1
 325 126 l 1
EndSplineSet
Substitution2: "Neuton-Regular-'smcp' Lowercase to Small Capitals in Latin lookup 0 subtable" b.sc
Colour: ffffff
EndChar

StartChar: backslash
Encoding: 60 92 46
Width: 651
VWidth: 0
Flags: HMW
LayerCount: 2
Fore
SplineSet
41 1259 m 1
 149 1254 l 1
 611 -367 l 1
 507 -362 l 1
 41 1259 l 1
EndSplineSet
Colour: ffffff
EndChar

StartChar: bar
Encoding: 92 124 47
Width: 247
VWidth: 0
Flags: HMW
LayerCount: 2
Fore
SplineSet
75 -367 m 1
 75 1261 l 1
 171 1248 l 1
 171 -380 l 1
 75 -367 l 1
EndSplineSet
Colour: ffffff
EndChar

StartChar: braceright
Encoding: 93 125 48
Width: 614
VWidth: 0
Flags: HMW
LayerCount: 2
Fore
SplineSet
41 -378 m 1
 49 -303 l 1
 136 -297 l 1
 342 -286 101 369 415 438 c 1
 415 443 l 1
 101 520 345 1162 148 1175 c 1
 54 1182 l 1
 46 1256 l 1
 148 1256 l 2
 557 1256 222 527 519 484 c 1
 568 476 l 1
 568 402 l 1
 516 395 l 2
 223 355 559 -378 144 -378 c 2
 41 -378 l 1
EndSplineSet
Colour: ffffff
EndChar

StartChar: bracketright
Encoding: 61 93 49
Width: 485
VWidth: 0
Flags: HMW
LayerCount: 2
Fore
SplineSet
42 -306 m 1
 279 -286 l 1
 279 1164 l 1
 44 1185 l 1
 52 1256 l 1
 409 1256 l 1
 410 -375 l 1
 50 -375 l 1
 42 -306 l 1
EndSplineSet
Colour: ffffff
EndChar

StartChar: brokenbar
Encoding: 101 166 50
Width: 241
VWidth: 0
Flags: HMW
LayerCount: 2
Fore
SplineSet
73 -370 m 1
 73 419 l 1
 168 411 l 1
 168 -380 l 1
 73 -370 l 1
73 537 m 1
 73 1257 l 1
 167 1248 l 1
 165 529 l 1
 73 537 l 1
EndSplineSet
Colour: ffffff
EndChar

StartChar: c
Encoding: 67 99 51
Width: 765
VWidth: 0
Flags: HMW
LayerCount: 2
Fore
SplineSet
52 405 m 0
 52 702 235 888 452 888 c 0
 620 888 683 805 683 726 c 0
 683 673 654 638 588 627 c 1
 551 729 500 810 404 810 c 0
 285 810 192 692 192 480 c 0
 192 247 300 69 484 69 c 0
 583 69 655 109 703 148 c 1
 724 102 l 1
 673 33 547 -30 418 -30 c 0
 187 -30 52 165 52 405 c 0
EndSplineSet
Substitution2: "Neuton-Regular-'smcp' Lowercase to Small Capitals in Latin lookup 0 subtable" c.sc
Colour: ffffff
EndChar

StartChar: cedilla
Encoding: 119 184 52
Width: 334
VWidth: 0
Flags: HMW
LayerCount: 2
Fore
SplineSet
57 -339 m 1
 115 -319 160 -278 160 -248 c 0
 160 -198 116 -163 80 -128 c 1
 171 3 l 1
 238 3 l 1
 184 -76 l 1
 221 -109 273 -160 273 -227 c 0
 273 -306 190 -355 73 -390 c 1
 57 -339 l 1
EndSplineSet
Colour: ffffff
EndChar

StartChar: cent
Encoding: 97 162 53
Width: 767
VWidth: 0
Flags: HMW
LayerCount: 2
Fore
SplineSet
54 412 m 0
 54 709 237 920 454 920 c 0
 622 920 684 838 684 759 c 0
 684 706 655 671 589 660 c 1
 552 762 502 843 406 843 c 0
 287 843 194 698 194 486 c 0
 194 253 301 69 485 69 c 0
 584 69 656 109 704 148 c 1
 725 102 l 1
 674 33 549 -30 420 -30 c 0
 189 -30 54 172 54 412 c 0
342 1135 m 1
 469 1152 l 1
 444 884 l 1
 374 884 l 1
 342 1135 l 1
353 -267 m 1
 379 0 l 1
 448 0 l 1
 481 -250 l 1
 353 -267 l 1
EndSplineSet
Colour: ffffff
EndChar

StartChar: circumflex
Encoding: 191 710 54
Width: 559
VWidth: 0
Flags: HMW
LayerCount: 2
Fore
SplineSet
79 1388 m 1
 247 1568 l 1
 302 1582 l 1
 480 1396 l 1
 440 1359 l 1
 267 1481 l 1
 258 1481 l 1
 109 1358 l 1
 79 1388 l 1
EndSplineSet
Colour: ffffff
EndChar

StartChar: colon
Encoding: 26 58 55
Width: 302
VWidth: 0
Flags: HMW
LayerCount: 2
Back
SplineSet
47 -242.566 m 5
 184 -199.335 227 -130.165 227 -60.0342 c 4
 227 8.1748 179 59.0908 115 59.0908 c 4
 106 59.0908 95 58.1309 86 56.209 c 5
 81 70.6191 78 80.2266 78 95.5977 c 4
 78 160.925 132 197.431 186 197.431 c 4
 259 197.431 345 135.946 345 -3.35352 c 4
 345 -93.6592 301 -232.959 65 -298.286 c 5
 47 -242.566 l 5
82 742 m 4
 82 806 118 847 172 847 c 4
 226 847 265 805 265 741 c 4
 265 674 229 629 173 629 c 4
 117 629 82 676 82 742 c 4
EndSplineSet
Refer: 116 46 N 1 0 0 1 18 661 2
Refer: 56 44 N 1 0 0 0.960692 -8 -12 2
Refer: 116 46 N 1 0 0 1 18 661 2
Refer: 56 44 N 1 0 0 0.960692 -8 -12 2
Fore
SplineSet
63 110 m 0
 63 171 99 211 151 211 c 0
 202 211 239 172 239 110 c 0
 239 45 206 0 152 0 c 0
 98 0 63 46 63 110 c 0
65 740 m 0
 65 802 101 842 153 842 c 0
 204 842 241 801 241 739 c 0
 241 674 207 630 153 630 c 0
 99 630 65 676 65 740 c 0
EndSplineSet
Colour: ffffff
EndChar

StartChar: comma
Encoding: 12 44 56
Width: 414
VWidth: 0
Flags: HMW
LayerCount: 2
Fore
SplineSet
55 -240 m 1
 192 -195 235 -123 235 -50 c 0
 235 21 187 74 123 74 c 0
 114 74 103 73 94 71 c 1
 89 86 86 96 86 112 c 0
 86 180 140 218 194 218 c 0
 267 218 353 154 353 9 c 0
 353 -85 309 -230 73 -298 c 1
 55 -240 l 1
EndSplineSet
Colour: ffffff
EndChar

StartChar: copyright
Encoding: 104 169 57
Width: 1352
VWidth: 0
Flags: HMW
LayerCount: 2
Fore
SplineSet
356.42 627.175 m 0
 356.42 875.17 509.225 1030.48 690.42 1030.48 c 0
 830.7 1030.48 883.305 961.175 883.305 895.21 c 0
 883.305 850.955 859.09 821.73 803.98 812.545 c 1
 773.085 897.715 730.5 965.35 650.34 965.35 c 0
 550.975 965.35 473.32 866.82 473.32 689.8 c 0
 473.32 495.245 563.5 346.615 717.14 346.615 c 0
 799.805 346.615 859.925 380.015 900.005 412.58 c 1
 917.54 374.17 l 1
 874.955 316.555 769.745 263.95 662.03 263.95 c 0
 469.145 263.95 356.42 426.775 356.42 627.175 c 0
52 633 m 0
 52 1023 329 1301 667 1301 c 0
 1054 1301 1298 1025 1298 636 c 0
 1298 262 1032 -21 657 -21 c 0
 291 -21 52 251 52 633 c 0
147 644 m 0
 147 308 362 62 666 62 c 0
 970 62 1204 302 1204 626 c 0
 1204 965 995 1222 668 1222 c 0
 368 1222 147 967 147 644 c 0
EndSplineSet
Colour: ffffff
EndChar

StartChar: currency
Encoding: 99 164 58
Width: 712
VWidth: 0
Flags: HMW
LayerCount: 2
Fore
SplineSet
49 723 m 1
 117 789 l 1
 195 701 l 1
 238 737 307 770 356 770 c 0
 410 770 483 740 523 710 c 1
 600 790 l 1
 659 720 l 1
 575 646 l 1
 596 609 619 539 619 492 c 0
 619 441 595 371 568 334 c 1
 661 248 l 1
 592 184 l 1
 513 274 l 1
 467 246 396 218 349 218 c 0
 309 218 247 243 206 268 c 1
 129 179 l 1
 62 247 l 1
 146 325 l 1
 119 366 93 437 93 490 c 0
 93 536 116 602 140 638 c 1
 49 723 l 1
183 495 m 0
 183 379 251 301 353 301 c 0
 458 301 530 377 530 488 c 0
 530 607 459 685 352 685 c 0
 250 685 183 608 183 495 c 0
EndSplineSet
Colour: ffffff
EndChar

StartChar: d
Encoding: 68 100 59
Width: 983
VWidth: 0
Flags: HMW
LayerCount: 2
Fore
SplineSet
51 393 m 0
 51 692 265 889 477 889 c 0
 543 889 628 866 661 841 c 1
 669 841 l 1
 655 972 l 1
 655 1181 l 5
 503 1224 l 5
 512 1277 l 5
 770 1299 l 5
 785 1282 l 5
 785 222 l 2
 785 91 833 81 884 70 c 2
 937 58 l 1
 928 -2 l 1
 888 -14 861 -22 807 -22 c 0
 711 -22 669 42 669 124 c 2
 669 131 l 1
 659 131 l 1
 603 54 509 -21 370 -21 c 0
 192 -21 51 122 51 393 c 0
189 452 m 0
 189 217 278 77 433 77 c 0
 517 77 616 135 659 193 c 1
 659 685 l 1
 603 766 509 810 428 810 c 0
 284 810 189 674 189 452 c 0
EndSplineSet
Substitution2: "Neuton-Regular-'smcp' Lowercase to Small Capitals in Latin lookup 0 subtable" d.sc
Colour: ffffff
EndChar

StartChar: dagger
Encoding: 203 8224 60
Width: 792
VWidth: 0
Flags: HMW
LayerCount: 2
Fore
SplineSet
42 723 m 1
 51 819 l 1
 348 811 l 1
 340 1256 l 1
 453 1244 l 1
 442 811 l 1
 748 819 l 1
 742 718 l 1
 442 728 l 1
 458 -363 l 1
 333 -351 l 1
 348 730 l 1
 42 723 l 1
EndSplineSet
Colour: ffffff
EndChar

StartChar: daggerdbl
Encoding: 204 8225 61
Width: 799
VWidth: 0
Flags: HMW
LayerCount: 2
Fore
SplineSet
45 723 m 1
 53 818 l 1
 348 811 l 1
 340 1256 l 1
 454 1244 l 1
 443 811 l 1
 748 818 l 1
 741 717 l 1
 443 728 l 1
 435 429 l 1
 440 165 l 1
 752 171 l 1
 746 75 l 1
 440 85 l 1
 448 -363 l 1
 335 -353 l 1
 345 85 l 1
 58 75 l 1
 65 178 l 1
 345 166 l 1
 352 499 l 1
 348 730 l 1
 45 723 l 1
EndSplineSet
Colour: ffffff
EndChar

StartChar: degree
Encoding: 111 176 62
Width: 482
VWidth: 0
Flags: HMW
LayerCount: 2
Fore
SplineSet
58 1107 m 0
 58 1210 143 1304 251 1304 c 0
 367 1304 422 1237 422 1128 c 0
 422 1013 333 928 227 928 c 0
 125 928 58 990 58 1107 c 0
134 1129 m 0
 134 1047 174 981 244 981 c 0
 301 981 345 1027 345 1105 c 0
 345 1183 304 1251 236 1251 c 0
 170 1251 134 1199 134 1129 c 0
EndSplineSet
Colour: ffffff
EndChar

StartChar: dieresis
Encoding: 103 168 63
Width: 582
VWidth: 0
Flags: HMW
LayerCount: 2
Fore
SplineSet
86 1465 m 0
 86 1513.5 116.5 1542.5 156 1542.5 c 0
 196.5 1542.5 228 1513.5 228 1465 c 0
 228 1414 200 1383.5 157 1383.5 c 0
 114.5 1383.5 86 1415 86 1465 c 0
354.5 1465 m 0
 354.5 1513.5 384.5 1542.5 424 1542.5 c 0
 464.5 1542.5 496.5 1513.5 496.5 1465 c 0
 496.5 1414 467.5 1383.5 424.5 1383.5 c 0
 382 1383.5 354.5 1415 354.5 1465 c 0
EndSplineSet
Colour: ffffff
EndChar

StartChar: divide
Encoding: 182 247 64
Width: 918
VWidth: 0
Flags: HMW
LayerCount: 2
Fore
SplineSet
46 465 m 1
 59 550 l 1
 871 550 l 1
 860 465 l 1
 46 465 l 1
361 226 m 0
 361 290 397 330 451 330 c 0
 505 330 545 289 545 225 c 0
 545 158 508 112 452 112 c 0
 396 112 361 160 361 226 c 0
361 790 m 0
 361 854 397 894 451 894 c 0
 505 894 545 854 545 790 c 0
 545 723 508 676 452 676 c 0
 396 676 361 724 361 790 c 0
EndSplineSet
Colour: ffffff
EndChar

StartChar: dollar
Encoding: 4 36 65
Width: 850
VWidth: 0
Flags: HMW
LayerCount: 2
Fore
SplineSet
47 119 m 1
 69 395 l 1
 144 384 l 1
 177 181 l 1
 218 109 315 57 418 57 c 0
 533 57 657 126 657 274 c 0
 657 554 83 577 83 938 c 0
 83 1151 265 1270 444 1270 c 0
 552 1270 658 1235 731 1165 c 1
 731 1161 704 869 704 869 c 1
 631 878 l 1
 605 1096 l 1
 578 1147 495 1200 414 1200 c 0
 308 1200 219 1132 219 1001 c 0
 219 699 804 680 804 331 c 0
 804 122 618 -25 380 -25 c 0
 236 -25 111 40 47 119 c 1
349 -179 m 1
 361 9 l 1
 389 54 l 1
 389 631 l 1
 393 700 l 1
 393 1208 l 1
 367 1244 l 1
 354 1395 l 1
 491 1411 l 1
 476 1244 l 1
 449 1204 l 1
 449 666 l 1
 451 583 l 1
 451 54 l 1
 481 20 l 1
 494 -164 l 1
 349 -179 l 1
EndSplineSet
Substitution2: "Neuton-Regular-'onum' Oldstyle Figures lookup 1-1" dollar.osf
Colour: ffffff
EndChar

StartChar: dotaccent
Encoding: 192 729 66
Width: 296
VWidth: 0
Flags: HMW
LayerCount: 2
Fore
SplineSet
65 204 m 0
 65 265 98 306 149 306 c 0
 200 306 235 266 235 204 c 0
 235 140 203 98 149 98 c 0
 96 98 65 142 65 204 c 0
EndSplineSet
Colour: ffffff
EndChar

StartChar: e
Encoding: 69 101 67
Width: 765
VWidth: 0
Flags: HMW
LayerCount: 2
Fore
SplineSet
52 420 m 0
 52 720 251 886 444 886 c 0
 590 886 694 793 694 582 c 0
 694 551 686 486 677 451 c 1
 193 445 l 1
 197 257 282 78 480 78 c 0
 564 78 626 97 701 148 c 1
 720 104 l 1
 652 25 544 -30 411 -30 c 0
 222 -30 52 117 52 420 c 0
195 507 m 1
 546 530 l 1
 552 547 553 589 553 610 c 0
 553 730 493 809 395 809 c 0
 290 809 200 709 195 507 c 1
EndSplineSet
Substitution2: "Neuton-Regular-'smcp' Lowercase to Small Capitals in Latin lookup 0 subtable" e.sc
Colour: ffffff
EndChar

StartChar: eight
Encoding: 24 56 70
Width: 810
VWidth: 0
Flags: HMW
LayerCount: 2
Fore
SplineSet
49 281 m 0
 49 394 123 498 279 590 c 1
 279 597 l 1
 167 673 95 765 95 897 c 0
 95 1061 231 1202 424 1202 c 0
 614 1202 720 1078 720 927 c 0
 720 791 630 679 526 625 c 1
 523 619 l 1
 678 514 762 430 762 291 c 0
 762 107 604 -27 377 -27 c 0
 193 -27 49 99 49 281 c 0
189 312 m 0
 189 140 324 47 431 47 c 0
 553 47 632 116 632 233 c 0
 632 346 522 437 332 557 c 1
 255 500 189 437 189 312 c 0
215 955 m 0
 215 854 288 772 469 656 c 1
 540 703 596 771 596 890 c 0
 596 1031 504 1141 398 1141 c 0
 283 1141 215 1058 215 955 c 0
EndSplineSet
Substitution2: "Neuton-Regular-'onum' Oldstyle Figures lookup 1-1" eight.osf
Colour: ffffff
EndChar

StartChar: eight.osf
Encoding: 208 -1 71
Width: 790
VWidth: 0
Flags: HMW
LayerCount: 2
Fore
SplineSet
52.5 280.5 m 0
 52.5 396.5 126 508 264 605 c 1
 264 612 l 1
 170.5 675.5 98 778 98 900.5 c 0
 98 1064 225.5 1201.5 409.5 1201.5 c 0
 578.5 1201.5 688 1092 688 933 c 0
 688 800.5 620.5 700 521.5 624.5 c 1
 521 618.5 l 1
 668.5 522 740.5 419 740.5 294.5 c 0
 740.5 111 570 -27 361 -27 c 0
 177 -27 52.5 99 52.5 280.5 c 0
185.5 311.5 m 0
 185.5 161 304 49.5 407.5 49.5 c 0
 538.5 49.5 618.5 125 618.5 248 c 0
 618.5 362 524 443.5 313 575.5 c 1
 242.5 521.5 185.5 430.5 185.5 311.5 c 0
210 976 m 0
 210 853 289.5 760 467 652 c 1
 516 699.5 574.5 767.5 574.5 898.5 c 0
 574.5 1026.5 492.5 1139.5 376.5 1139.5 c 0
 280.5 1139.5 210 1068.5 210 976 c 0
EndSplineSet
Colour: ffffff
EndChar

StartChar: emdash
Encoding: 197 8212 72
Width: 1261
VWidth: 0
Flags: HMW
LayerCount: 2
Fore
SplineSet
64 420 m 1
 78 503 l 1
 1198 509 l 1
 1184 426 l 1
 64 420 l 1
EndSplineSet
Colour: ffffff
EndChar

StartChar: endash
Encoding: 196 8211 73
Width: 752
VWidth: 0
Flags: HMW
LayerCount: 2
Fore
SplineSet
65 420 m 1
 78 503 l 1
 689 509 l 1
 676 426 l 1
 65 420 l 1
EndSplineSet
Colour: ffffff
EndChar

StartChar: equal
Encoding: 29 61 74
Width: 754
VWidth: 0
Flags: HMW
LayerCount: 2
Fore
SplineSet
62 330 m 1
 73 415 l 1
 688 415 l 1
 677 330 l 1
 62 330 l 1
65 569 m 1
 76 655 l 1
 691 655 l 1
 680 569 l 1
 65 569 l 1
EndSplineSet
Colour: ffffff
EndChar

StartChar: eth
Encoding: 175 240 75
Width: 851
VWidth: 0
Flags: HMW
LayerCount: 2
Fore
SplineSet
51 451 m 0
 51 746 200 949 413 949 c 0
 492 949 581 896 611 820 c 1
 618 821 l 1
 593 915 539 1007 485 1086 c 1
 253 1040 l 1
 264 1103 l 1
 451 1141 l 1
 396 1214 340 1271 305 1303 c 1
 397 1303 l 1
 442 1275 499 1227 555 1164 c 1
 711 1197 l 1
 702 1133 l 1
 599 1112 l 1
 710 965 802 751 802 465 c 0
 802 157 642 -27 427 -27 c 0
 167 -27 51 208 51 451 c 0
190 499 m 1
 192 207 305 50 450 50 c 0
 605 50 665 210 665 425 c 0
 665 700 526 873 400 875 c 1
 395 875 l 1
 247 873 190 702 190 499 c 1
EndSplineSet
Substitution2: "Neuton-Regular-'smcp' Lowercase to Small Capitals in Latin lookup 0 subtable" eth.sc
Colour: ffffff
EndChar

StartChar: exclam
Encoding: 1 33 76
Width: 293
VWidth: 0
Flags: HMW
LayerCount: 2
Fore
SplineSet
55 79 m 0
 55 140 95 184 145 184 c 0
 196 184 238 139 238 78 c 0
 238 14 203 -35 145 -35 c 0
 89 -35 55 17 55 79 c 0
71 1254 m 0
 71 1281 135 1293 171 1293 c 0
 198 1293 230 1285 230 1254 c 0
 230 1085 205 684 178 361 c 1
 111 376 l 1
 91 697 71 1142 71 1254 c 0
EndSplineSet
Colour: ffffff
EndChar

StartChar: exclamdown
Encoding: 96 161 77
Width: 291
VWidth: 0
Flags: HMW
LayerCount: 2
Fore
SplineSet
63 -377 m 0
 63 -208 87 201 114 524 c 1
 117 529 l 1
 181 515 l 1
 181 512 l 1
 201 193 223 -266 223 -375 c 2
 223 -377 l 1
 214 -405 158 -417 122 -417 c 0
 95 -417 63 -408 63 -377 c 0
55 797 m 0
 55 861 89 910 147 910 c 0
 203 910 238 858 238 796 c 0
 238 735 197 692 147 692 c 0
 96 692 55 736 55 797 c 0
EndSplineSet
Colour: ffffff
EndChar

StartChar: f
Encoding: 70 102 78
Width: 636
VWidth: 0
Flags: HMW
LayerCount: 2
Fore
SplineSet
43 0 m 1
 55 51 l 1
 207 87 l 1
 207 791 l 1
 58 791 l 1
 70 845 l 1
 208 867 l 1
 237 1170 413 1305 555 1305 c 0
 661 1305 733 1260 733 1192 c 0
 733 1148 697 1112 664 1099 c 1
 626 1153 562 1220 487 1220 c 0
 410 1220 344 1149 342 981 c 1
 341 861 l 1
 599 861 l 1
 586 791 l 1
 341 791 l 1
 341 91 l 1
 587 61 l 1
 580 0 l 1
 43 0 l 1
EndSplineSet
Substitution2: "Neuton-Regular-'smcp' Lowercase to Small Capitals in Latin lookup 0 subtable" f.sc
Colour: ffffff
EndChar

StartChar: five
Encoding: 21 53 79
Width: 801
VWidth: 0
Flags: HMW
LayerCount: 2
Fore
SplineSet
49 88 m 1
 77 369 l 1
 144 355 l 1
 162 155 l 1
 216 89 289 58 370 58 c 0
 514 58 603 158 603 308 c 0
 603 510 421 621 139 639 c 1
 254 1171 l 1
 703 1198 l 1
 682 1049 l 1
 297 1032 l 1
 253 771 l 1
 608 748 750 577 750 368 c 0
 750 163 572 -16 327 -16 c 0
 222 -16 128 12 49 88 c 1
EndSplineSet
Substitution2: "Neuton-Regular-'onum' Oldstyle Figures lookup 1-1" five.osf
Colour: ffffff
EndChar

StartChar: five.osf
Encoding: 209 -1 80
Width: 761
VWidth: 0
Flags: HMW
LayerCount: 2
Fore
SplineSet
-12 -147.5 m 0
 -12 -87.5 30 -27.5 83.5 -20.5 c 1
 118.5 -126.5 192 -220.5 311.5 -220.5 c 0
 441 -220.5 567.5 -132 567.5 72 c 0
 567.5 271 413 388.5 140.5 413.5 c 1
 235 923 l 1
 680 961 l 1
 659 821 l 1
 293 796 l 1
 250 536.5 l 1
 545.5 509.5 718 361.5 718 132.5 c 0
 718 -91.5 528.5 -297 265 -297 c 0
 106.5 -297 -12 -233 -12 -147.5 c 0
EndSplineSet
Colour: ffffff
EndChar

StartChar: four
Encoding: 20 52 81
Width: 1004
VWidth: 0
Flags: HMW
LayerCount: 2
Fore
SplineSet
45 415 m 1
 662 1191 l 1
 711 1176 l 1
 705 1057 702 865 702 683 c 2
 702 462 l 1
 957 462 l 1
 941 357 l 1
 702 357 l 1
 702 89 l 1
 908 64 l 1
 897 0 l 1
 305 0 l 1
 312 57 l 1
 559 95 l 1
 559 361 l 1
 64 361 l 1
 45 415 l 1
193 462 m 1
 555 462 l 1
 555 948 l 1
 193 462 l 1
EndSplineSet
Substitution2: "Neuton-Regular-'onum' Oldstyle Figures lookup 1-1" four.osf
Colour: ffffff
EndChar

StartChar: four.osf
Encoding: 210 -1 82
Width: 947
VWidth: 0
Flags: HMW
LayerCount: 2
Fore
SplineSet
16.5 159 m 1
 631 977.5 l 1
 680.5 963 l 1
 674 844.5 670 635.5 670 454 c 2
 670 205.5 l 1
 899.5 205.5 l 1
 883.5 105.5 l 1
 671 105.5 l 1
 671 -269 l 1
 531 -300.5 l 1
 531 108 l 1
 35.5 108 l 1
 16.5 159 l 1
163.5 205.5 m 1
 528.5 205.5 l 1
 528.5 713.5 l 1
 163.5 205.5 l 1
EndSplineSet
Colour: ffffff
EndChar

StartChar: g
Encoding: 71 103 83
Width: 902
VWidth: 0
Flags: HMW
LayerCount: 2
Fore
SplineSet
38 -165 m 0
 38 -62 147 -4 208 28 c 1
 208 35 l 1
 154 60 112 105 112 162 c 0
 112 212 192 283 264 322 c 1
 264 327 l 1
 213 346 113 442 113 578 c 0
 113 744 261 885 432 885 c 0
 508 885 572 858 623 822 c 1
 638 822 842 838 842 838 c 1
 858 820 l 1
 823 725 l 1
 811 723 l 1
 670 764 l 1
 667 753 l 1
 682 727 711 649 711 588 c 0
 711 416 543 291 396 291 c 0
 356 291 315 302 303 306 c 1
 273 277 237 245 237 210 c 0
 237 158 288 132 407 132 c 2
 561 132 l 2
 722 132 831 110 829 -58 c 0
 827 -231 616 -387 384 -387 c 0
 188 -387 38 -313 38 -165 c 0
174 -116 m 0
 174 -251 286 -299 450 -299 c 0
 579 -299 701 -240 701 -107 c 0
 701 -18 664 17 480 17 c 2
 268 17 l 1
 268 17 174 -15 174 -116 c 0
240 599 m 0
 240 471 324 359 423 359 c 0
 512 359 581 424 581 565 c 0
 581 696 514 825 408 825 c 0
 290 825 240 730 240 599 c 0
EndSplineSet
Substitution2: "Neuton-Regular-'smcp' Lowercase to Small Capitals in Latin lookup 0 subtable" g.sc
Colour: ffffff
EndChar

StartChar: germandbls
Encoding: 158 223 84
Width: 1101
VWidth: 0
Flags: HMW
LayerCount: 2
Fore
SplineSet
44 0 m 1
 56 52 l 1
 207 88 l 1
 207 804 l 1
 60 804 l 1
 71 853 l 1
 209 877 l 1
 222 1106 351 1304 575 1304 c 0
 726 1304 844 1205 844 1054 c 1
 844 876 627 792 627 682 c 0
 627 491 1057 460 1057 214 c 0
 1057 66 914 -33 760 -33 c 0
 600 -33 481 49 481 158 c 0
 481 229 533 263 587 269 c 1
 615 115 685 41 791 41 c 0
 877 41 940 86 940 161 c 0
 940 317 524 364 524 620 c 0
 524 805 718 864 718 1012 c 1
 718 1129 625 1219 515 1219 c 0
 403 1219 342 1122 342 945 c 2
 342 0 l 1
 44 0 l 1
EndSplineSet
Substitution2: "Neuton-Regular-'smcp' Lowercase to Small Capitals in Latin lookup 0 subtable" germandbls.sc
Colour: ffffff
EndChar

StartChar: grave
Encoding: 64 96 85
Width: 393
VWidth: 0
Flags: HMW
LayerCount: 2
Fore
SplineSet
77 1661 m 1
 181 1698 l 1
 314 1363 l 1
 263 1332 l 1
 77 1661 l 1
EndSplineSet
Colour: ffffff
EndChar

StartChar: greater
Encoding: 30 62 86
Width: 766
VWidth: 0
Flags: HMW
LayerCount: 2
Fore
SplineSet
42 -25 m 1
 533 437 l 5
 62 914 l 1
 97 974 l 1
 718 456 l 1
 719 427 l 1
 84 -82 l 1
 42 -25 l 1
EndSplineSet
Colour: ffffff
EndChar

StartChar: guilsinglleft
Encoding: 205 8249 87
Width: 405
VWidth: 0
Flags: HMW
LayerCount: 2
Fore
SplineSet
49 469 m 1
 317 821 l 1
 353 774 l 1
 177 461 l 1
 354 128 l 1
 312 77 l 1
 51 449 l 1
 49 469 l 1
EndSplineSet
Colour: ffffff
EndChar

StartChar: h
Encoding: 72 104 88
Width: 1064
VWidth: 0
Flags: HMW
LayerCount: 2
Fore
SplineSet
46 0 m 1
 57 57 l 1
 211 87 l 1
 211 1184 l 5
 54 1226 l 5
 63 1280 l 5
 327 1301 l 5
 343 1284 l 5
 343 839 l 1
 330 733 l 1
 338 733 l 1
 417 819 527 891 642 891 c 0
 781 891 875 816 875 588 c 2
 875 86 l 1
 1017 58 l 1
 1008 0 l 1
 597 0 l 1
 606 54 l 1
 743 86 l 1
 746 561 l 1
 746 568 l 2
 746 729 663 783 572 783 c 0
 482 783 414 747 343 670 c 1
 343 87 l 1
 488 58 l 1
 478 0 l 1
 46 0 l 1
EndSplineSet
Substitution2: "Neuton-Regular-'smcp' Lowercase to Small Capitals in Latin lookup 0 subtable" h.sc
Colour: ffffff
EndChar

StartChar: hyphen
Encoding: 13 45 89
Width: 545
VWidth: 0
Flags: HMW
LayerCount: 2
Fore
SplineSet
65 409 m 1
 76 489 l 1
 484 507 l 1
 473 426 l 1
 65 409 l 1
EndSplineSet
Colour: ffffff
EndChar

StartChar: i
Encoding: 73 105 90
Width: 556
VWidth: 0
Flags: HMW
LayerCount: 2
Back
SplineSet
4.58008 -395.961 m 5
 139.961 -294.68 271.268 -138.941 271.268 201.034 c 6
 271.268 954.783 l 5
 81.9395 1006.19 l 5
 93.1367 1073.37 l 5
 416.826 1099.32 l 5
 437.693 1077.95 l 5
 437.693 189.328 l 6
 437.693 -145.559 290.608 -334.378 111.968 -446.854 c 6
 56.4932 -481.463 l 5
 4.58008 -395.961 l 5
228.008 1495.79 m 4
 228.008 1577.73 276.358 1631.17 345.574 1631.17 c 4
 413.265 1631.17 463.65 1576.72 463.65 1495.28 c 4
 463.65 1411.31 416.317 1352.78 345.065 1352.78 c 4
 273.813 1352.78 228.008 1413.34 228.008 1495.79 c 4
EndSplineSet
Fore
SplineSet
45 0 m 1
 57 55 l 1
 208 87 l 1
 208 772 l 1
 56 814 l 1
 64 865 l 1
 323 887 l 1
 339 871 l 1
 339 87 l 1
 499 57 l 1
 488 0 l 1
 45 0 l 1
EndSplineSet
Refer: 66 729 N 1 0 0 1 107 995 2
Substitution2: "Neuton-Regular-'smcp' Lowercase to Small Capitals in Latin lookup 0 subtable" i.sc
Colour: ffffff
EndChar

StartChar: igrave
Encoding: 171 236 91
Width: 547
VWidth: 0
Flags: HMW
LayerCount: 2
Fore
SplineSet
48 0 m 1
 60 55 l 1
 211 87 l 1
 211 772 l 1
 59 814 l 1
 67 865 l 1
 326 887 l 1
 342 871 l 1
 342 87 l 1
 502 57 l 1
 491 0 l 1
 48 0 l 1
EndSplineSet
Refer: 85 96 S 1 0 0 1 4 -342 2
Substitution2: "Neuton-Regular-'smcp' Lowercase to Small Capitals in Latin lookup 0 subtable" igrave.sc
Colour: ffffff
EndChar

StartChar: j
Encoding: 74 106 92
Width: 463
VWidth: 0
Flags: HMW
LayerCount: 2
Fore
SplineSet
38 -315 m 1
 146 -234 250 -111 250 160 c 2
 250 760 l 1
 99 801 l 1
 108 855 l 1
 366 875 l 1
 383 858 l 1
 383 151 l 2
 383 -116 265 -266 123 -356 c 2
 79 -383 l 1
 38 -315 l 1
216 1191 m 0
 216 1256 254 1299 309 1299 c 0
 363 1299 403 1256 403 1191 c 0
 403 1124 366 1077 309 1077 c 0
 252 1077 216 1125 216 1191 c 0
EndSplineSet
Substitution2: "Neuton-Regular-'smcp' Lowercase to Small Capitals in Latin lookup 0 subtable" j.sc
Colour: ffffff
EndChar

StartChar: k
Encoding: 75 107 93
Width: 1020
VWidth: 0
Flags: HMW
LayerCount: 2
Fore
SplineSet
47 0 m 1
 57 55 l 1
 211 87 l 1
 211 1181 l 5
 55 1222 l 5
 61 1274 l 5
 324 1296 l 5
 340 1279 l 5
 340 87 l 1
 500 57 l 1
 491 0 l 1
 47 0 l 1
370 429 m 1
 370 447 l 1
 656 781 l 1
 522 818 l 1
 530 873 l 1
 923 873 l 1
 913 819 l 1
 763 782 l 1
 498 473 l 1
 598 355 l 2
 760 162 804 80 930 64 c 2
 969 59 l 1
 960 0 l 1
 945 -5 894 -20 849 -20 c 0
 733 -20 673 43 504 258 c 1
 370 429 l 1
EndSplineSet
Substitution2: "Neuton-Regular-'smcp' Lowercase to Small Capitals in Latin lookup 0 subtable" k.sc
Colour: ffffff
EndChar

StartChar: l
Encoding: 76 108 94
Width: 544
VWidth: 0
Flags: HMW
LayerCount: 2
Fore
SplineSet
46 0 m 1
 56 55 l 1
 210 87 l 1
 210 1186 l 5
 54 1227 l 5
 60 1279 l 5
 322 1300 l 5
 339 1284 l 5
 339 87 l 1
 500 57 l 1
 488 0 l 1
 46 0 l 1
EndSplineSet
Substitution2: "Neuton-Regular-'smcp' Lowercase to Small Capitals in Latin lookup 0 subtable" l.sc
Colour: ffffff
EndChar

StartChar: logicalnot
Encoding: 107 172 95
Width: 876
VWidth: 0
Flags: HMW
LayerCount: 2
Fore
SplineSet
53 584 m 1
 65 664 l 1
 810 664 l 1
 811 351 l 1
 722 332 l 1
 722 584 l 1
 53 584 l 1
EndSplineSet
Colour: ffffff
EndChar

StartChar: m
Encoding: 77 109 96
Width: 1596
VWidth: 0
Flags: HMW
LayerCount: 2
Fore
SplineSet
48 0 m 1
 57 54 l 1
 209 86 l 1
 209 753 l 1
 52 793 l 1
 58 845 l 1
 327 875 l 1
 339 861 l 1
 328 728 l 1
 336 728 l 1
 400 807 517 889 643 889 c 0
 743 889 831 836 856 723 c 1
 867 723 l 1
 929 802 1042 885 1168 885 c 0
 1344 885 1404 770 1404 597 c 2
 1404 87 l 1
 1546 60 l 1
 1533 2 l 1
 1136 2 l 1
 1142 54 l 1
 1272 86 l 1
 1272 573 l 2
 1272 705 1209 780 1096 780 c 0
 995 780 918 709 872 660 c 1
 872 86 l 1
 1011 58 l 1
 1003 0 l 1
 605 0 l 1
 613 54 l 1
 746 86 l 1
 746 573 l 2
 746 697 681 781 573 781 c 0
 482 781 394 733 340 666 c 1
 340 86 l 1
 483 58 l 1
 473 0 l 1
 48 0 l 1
EndSplineSet
Substitution2: "Neuton-Regular-'smcp' Lowercase to Small Capitals in Latin lookup 0 subtable" m.sc
Colour: ffffff
EndChar

StartChar: macron
Encoding: 110 175 97
Width: 610
VWidth: 0
Flags: HMW
LayerCount: 2
Fore
SplineSet
79 1380 m 1
 90 1456 l 1
 531 1456 l 1
 521 1380 l 1
 79 1380 l 1
EndSplineSet
Colour: ffffff
EndChar

StartChar: multiply
Encoding: 150 215 98
Width: 558
VWidth: 0
Flags: HMW
LayerCount: 2
Fore
SplineSet
51 302 m 1
 221 462 l 1
 52 625 l 1
 123 681 l 1
 281 514 l 1
 450 686 l 1
 506 615 l 1
 338 458 l 1
 511 292 l 1
 441 236 l 1
 277 407 l 1
 108 232 l 1
 51 302 l 1
EndSplineSet
Colour: ffffff
EndChar

StartChar: n
Encoding: 78 110 99
Width: 1070
VWidth: 0
Flags: HMW
LayerCount: 2
Fore
SplineSet
48 0 m 1
 56 52 l 1
 209 86 l 1
 209 755 l 1
 54 794 l 1
 61 846 l 1
 326 876 l 1
 338 862 l 1
 328 730 l 1
 336 730 l 1
 393 801 514 890 647 890 c 0
 784 890 878 798 878 600 c 2
 878 86 l 1
 1019 58 l 1
 1012 0 l 1
 599 0 l 1
 607 52 l 1
 747 86 l 1
 747 568 l 2
 747 721 669 781 577 781 c 0
 482 781 417 748 339 670 c 1
 339 86 l 1
 485 58 l 1
 475 0 l 1
 48 0 l 1
EndSplineSet
Substitution2: "Neuton-Regular-'smcp' Lowercase to Small Capitals in Latin lookup 0 subtable" n.sc
Colour: ffffff
EndChar

StartChar: nine
Encoding: 25 57 100
Width: 845
VWidth: 0
Flags: HMW
LayerCount: 2
Fore
SplineSet
48 818 m 0
 48 1043 226 1209 430 1209 c 0
 689 1209 792 994 792 760 c 0
 792 392 553 42 178 -27 c 1
 159 31 l 1
 485 128 588 354 618 576 c 1
 608 576 l 1
 545 516 462 472 349 472 c 0
 156 472 48 619 48 818 c 0
206 853 m 0
 206 698 279 565 430 565 c 0
 519 565 593 608 621 651 c 1
 629 696 630 755 630 793 c 0
 630 997 535 1144 415 1144 c 0
 263 1144 206 1036 206 853 c 0
EndSplineSet
Substitution2: "Neuton-Regular-'onum' Oldstyle Figures lookup 1-1" nine.osf
Colour: ffffff
EndChar

StartChar: nine.osf
Encoding: 211 -1 101
Width: 779
VWidth: 0
Flags: HMW
LayerCount: 2
Fore
SplineSet
38.5 576 m 0
 38.5 788.5 196 958.5 394.5 958.5 c 0
 653.5 958.5 734.5 744.5 734.5 511 c 0
 734.5 176 476.5 -160.5 143.5 -271.5 c 1
 121 -212.5 l 1
 407.5 -82.5 519.5 123 569.5 322 c 1
 560.5 322 l 1
 506 265.5 433 222.5 321.5 222.5 c 0
 135 222.5 38.5 372.5 38.5 576 c 0
189 602 m 0
 189 423.5 257 315 395 315 c 0
 481.5 315 545 355 574 398 c 1
 581.5 439 581 502.5 581 540.5 c 0
 581 745 494.5 893 375 893 c 0
 256 893 189 799 189 602 c 0
EndSplineSet
Colour: ffffff
EndChar

StartChar: numbersign
Encoding: 3 35 102
Width: 1095
VWidth: 0
Flags: HMW
LayerCount: 2
Back
SplineSet
261.599 313.002 m 1
 229.535 350.154 l 1
 414.791 909.487 l 1
 482.48 1069.3 l 1
 382.219 1069.3 l 1
 390.871 1112.56 l 1
 488.08 1112.56 l 1
 508.946 1233.18 l 1
 546.608 1239.79 l 1
 526.25 1112.56 l 1
 682.497 1112.56 l 1
 701.837 1233.18 l 1
 738.48 1238.27 l 1
 718.633 1112.56 l 1
 825.511 1112.56 l 1
 815.841 1069.3 l 1
 714.561 1069.3 l 1
 690.131 915.594 l 1
 789.376 915.594 l 1
 781.232 873.861 l 1
 683.006 873.861 l 1
 666.211 747.642 l 1
 625.495 743.062 l 1
 646.361 873.861 l 1
 491.642 873.861 l 1
 472.302 747.642 l 1
 431.078 743.062 l 1
 451.945 873.861 l 1
 261.599 313.002 l 1
285.52 713.543 m 1
 450.926 756.803 l 1
 981.757 910.505 l 1
 816.858 867.244 l 1
 285.52 713.543 l 1
EndSplineSet
Fore
SplineSet
348 -19 m 17
 255 -26 l 9
 432 1150 l 17
 525 1160 l 9
 348 -19 l 17
114 712 m 17
 142 813 l 9
 1052 813 l 17
 1027 712 l 9
 114 712 l 17
43 326 m 17
 70 427 l 9
 978 427 l 17
 952 326 l 9
 43 326 l 17
666 -19 m 17
 572 -26 l 9
 749 1150 l 17
 842 1159 l 9
 666 -19 l 17
EndSplineSet
Substitution2: "Neuton-Regular-'onum' Oldstyle Figures lookup 1-1" numbersign.osf
Colour: ffffff
EndChar

StartChar: o
Encoding: 79 111 103
Width: 893
VWidth: 0
Flags: HMW
LayerCount: 2
Fore
SplineSet
51 411 m 0
 51 714 245 891 469 891 c 0
 701 891 845 694 845 439 c 0
 845 160 663 -27 444 -27 c 0
 206 -27 51 151 51 411 c 0
192 483 m 0
 192 262 287 54 479 54 c 0
 622 54 704 205 704 380 c 0
 704 581 613 806 426 806 c 0
 275 806 192 659 192 483 c 0
EndSplineSet
Substitution2: "Neuton-Regular-'smcp' Lowercase to Small Capitals in Latin lookup 0 subtable" o.sc
Colour: ffffff
EndChar

StartChar: one
Encoding: 17 49 104
Width: 792
VWidth: 0
Flags: HMW
LayerCount: 2
Fore
SplineSet
45 1 m 1
 49 61 l 1
 323 103 l 1
 323 1060 l 1
 64 1060 l 1
 69 1121 l 1
 455 1185 l 1
 482 1185 l 1
 482 98 l 1
 750 70 l 1
 741 1 l 1
 45 1 l 1
EndSplineSet
Substitution2: "Neuton-Regular-'onum' Oldstyle Figures lookup 1-1" one.osf
Colour: ffffff
EndChar

StartChar: one.osf
Encoding: 212 -1 105
Width: 602
VWidth: 0
Flags: HMW
LayerCount: 2
Fore
SplineSet
25 1.5 m 1
 31 61 l 1
 243.5 103 l 1
 243.5 819.5 l 1
 43.5 821 l 1
 51 881.5 l 1
 357 945.5 l 1
 383.5 945.5 l 1
 383.5 98 l 1
 599 69 l 1
 591.5 1.5 l 1
 25 1.5 l 1
EndSplineSet
Colour: ffffff
EndChar

StartChar: onehalf
Encoding: 124 189 106
Width: 1403
VWidth: 0
Flags: HMW
LayerCount: 2
Fore
SplineSet
808 78 m 1
 962 202 l 2
 1096 312 1167 392 1167 492 c 0
 1167 570 1136 646 1044 646 c 0
 982 646 946 629 929 606 c 1
 905 467 l 1
 850 472 l 1
 845 636 l 1
 881 690 987 726 1090 726 c 0
 1228 726 1320 660 1320 526 c 0
 1320 374 1184 271 988 128 c 2
 953 104 l 1
 1246 104 l 1
 1308 254 l 1
 1354 242 l 1
 1334 1 l 1
 806 1 l 1
 808 78 l 1
45 550 m 1
 48 610 l 1
 206 633 l 1
 206 1163 l 1
 56 1163 l 1
 60 1224 l 1
 328 1260 l 1
 347 1260 l 1
 347 630 l 1
 502 620 l 1
 497 550 l 1
 45 550 l 1
232 -26 m 1
 608 588 l 1
 962 1211 l 1
 1098 1207 l 1
 1096 1190 l 1
 730 591 l 1
 382 -40 l 1
 232 -26 l 1
EndSplineSet
Colour: ffffff
EndChar

StartChar: onequarter
Encoding: 123 188 107
Width: 1329
VWidth: 0
Flags: HMW
LayerCount: 2
Fore
SplineSet
702 250 m 1
 1098 730 l 1
 1148 721 l 1
 1142 650 1140 534 1140 425 c 2
 1140 274 l 1
 1288 274 l 1
 1279 188 l 1
 1140 188 l 1
 1140 74 l 1
 1259 55 l 1
 1253 0 l 1
 859 0 l 1
 864 50 l 1
 1014 76 l 1
 1014 192 l 1
 712 192 l 1
 702 250 l 1
808 274 m 1
 1012 274 l 1
 1012 532 l 1
 808 274 l 1
45 550 m 1
 48 610 l 1
 206 633 l 1
 206 1163 l 1
 56 1163 l 1
 60 1224 l 1
 328 1260 l 1
 347 1260 l 1
 347 630 l 1
 502 620 l 1
 497 550 l 1
 45 550 l 1
242 -26 m 1
 618 588 l 1
 972 1211 l 1
 1108 1207 l 1
 1106 1190 l 1
 740 591 l 1
 392 -40 l 1
 242 -26 l 1
EndSplineSet
Colour: ffffff
EndChar

StartChar: one.superior
Encoding: 120 185 108
Width: 558
VWidth: 0
Flags: HMW
LayerCount: 2
Fore
SplineSet
51 548 m 1
 54 608 l 1
 212 631 l 1
 212 1161 l 1
 62 1161 l 1
 66 1222 l 1
 334 1258 l 1
 353 1258 l 1
 353 628 l 1
 508 618 l 1
 503 548 l 1
 51 548 l 1
EndSplineSet
Colour: ffffff
EndChar

StartChar: ordfeminine
Encoding: 105 170 109
Width: 718
VWidth: 0
Flags: HMW
LayerCount: 2
Fore
SplineSet
53 690 m 0
 53 814 154 942 424 950 c 1
 424 980 l 2
 424 1118 405 1202 292 1202 c 0
 213 1202 203 1140 191 1023 c 1
 134 1019 81 1050 81 1111 c 1
 81 1199 228 1268 342 1268 c 0
 480 1268 547 1191 547 1022 c 2
 547 756 l 2
 547 682 549 644 621 631 c 2
 669 622 l 1
 662 574 l 1
 634 552 605 543 563 543 c 0
 481 543 437 599 437 651 c 2
 437 662 l 1
 431 662 l 1
 411 616 344 537 219 537 c 0
 132 537 53 592 53 690 c 0
185 725 m 0
 185 672 209 625 276 625 c 0
 344 625 392 669 424 715 c 1
 424 900 l 1
 268 875 185 827 185 725 c 0
EndSplineSet
Colour: ffffff
EndChar

StartChar: ordmasculine
Encoding: 121 186 110
Width: 770
VWidth: 0
Flags: HMW
LayerCount: 2
Fore
SplineSet
53 886 m 0
 53 1128 218 1270 402 1270 c 0
 594 1270 717 1113 717 909 c 0
 717 685 563 536 382 536 c 0
 185 536 53 678 53 886 c 0
188 944 m 0
 188 761 252 604 411 604 c 0
 529 604 582 722 582 862 c 0
 582 1028 521 1198 367 1198 c 0
 242 1198 188 1084 188 944 c 0
EndSplineSet
Colour: ffffff
EndChar

StartChar: oslash
Encoding: 183 248 111
Width: 946
VWidth: 0
Flags: HMW
LayerCount: 2
Fore
SplineSet
43 0 m 1
 186 162 l 1
 229 183 l 1
 673 724 l 1
 687 765 l 1
 770 873 l 1
 905 880 l 1
 763 709 l 1
 710 675 l 1
 267 141 l 1
 256 99 l 1
 180 6 l 1
 43 0 l 1
218 489 m 0
 218 268 312 54 504 54 c 0
 647 54 728 211 728 386 c 0
 728 588 638 819 451 819 c 0
 300 819 218 665 218 489 c 0
75 417 m 0
 75 723 270 903 494 903 c 0
 726 903 870 700 870 445 c 0
 870 166 688 -27 469 -27 c 0
 228 -27 75 156 75 417 c 0
EndSplineSet
Substitution2: "Neuton-Regular-'smcp' Lowercase to Small Capitals in Latin lookup 0 subtable" oslash.sc
Colour: ffffff
EndChar

StartChar: p
Encoding: 80 112 112
Width: 957
VWidth: 0
Flags: HMW
LayerCount: 2
Fore
SplineSet
40 -373 m 1
 46 -315 l 1
 198 -285 l 1
 198 754 l 1
 44 792 l 1
 52 845 l 1
 317 873 l 1
 330 859 l 1
 321 722 l 1
 328 722 l 1
 379 793 477 886 608 886 c 0
 779 886 908 761 908 462 c 0
 908 177 723 -20 470 -20 c 0
 440 -20 401 -15 368 -9 c 1
 363 87 l 1
 409 69 445 64 524 64 c 0
 663 64 766 189 766 404 c 0
 766 638 697 781 542 781 c 0
 449 781 378 714 328 662 c 1
 328 -286 l 1
 484 -312 l 1
 474 -373 l 1
 40 -373 l 1
EndSplineSet
Substitution2: "Neuton-Regular-'smcp' Lowercase to Small Capitals in Latin lookup 0 subtable" p.sc
Colour: ffffff
EndChar

StartChar: paragraph
Encoding: 117 182 113
Width: 1191
VWidth: 0
Flags: HMW
LayerCount: 2
Fore
SplineSet
48 836 m 0
 48 1074 262 1245 508 1245 c 2
 773 1245 l 1
 773 0 l 1
 408 0 l 1
 414 58 l 1
 643 97 l 1
 643 1169 l 1
 602 1171 562 1171 553 1171 c 0
 318 1171 217 1059 217 852 c 0
 217 681 330 537 546 537 c 1
 528 463 l 1
 267 463 48 544 48 836 c 0
840 0 m 1
 840 1245 l 1
 1142 1245 l 1
 1135 1188 l 1
 962 1157 l 1
 962 89 l 1
 1148 63 l 1
 1139 -1 l 1
 840 0 l 1
EndSplineSet
Substitution2: "Neuton-Regular-'c2sc' Capitals to Small Capitals in Latin lookup 3-1" paragraph.sc
Colour: ffffff
EndChar

StartChar: parenright
Encoding: 9 41 114
Width: 477
VWidth: 0
Flags: HMW
LayerCount: 2
Fore
SplineSet
47 1201 m 1
 84 1256 l 1
 150 1200 421 975 421 450 c 0
 421 -66 140 -328 89 -375 c 1
 41 -330 l 1
 86 -257 276 40 276 456 c 0
 276 881 133 1088 47 1201 c 1
EndSplineSet
Colour: ffffff
EndChar

StartChar: percent
Encoding: 5 37 115
Width: 1177
VWidth: 0
Flags: HMW
LayerCount: 2
Fore
SplineSet
46 899 m 0
 46 1068 165 1213 288 1213 c 0
 306 1213 318 1211 324 1209 c 1
 324 1153 l 17
 309 1164 303 1168 284 1168 c 0
 202 1168 174 1013 174 899 c 0
 174 781 212 637 287 637 c 0
 371 637 404 779 404 899 c 0
 404 1042 382 1137 358 1196 c 9
 885 1211 l 25
 894 1142 l 25
 469 1150 l 17
 509 1103 532 949 532 899 c 0
 532 726 405 584 287 584 c 0
 160 584 46 707 46 899 c 0
154 -26 m 1
 530 588 l 1
 885 1211 l 1
 1015 1207 l 1
 1013 1191 l 1
 647 591 l 1
 300 -40 l 1
 154 -26 l 1
642 277 m 0
 642 446 761 591 884 591 c 0
 1026 591 1128 453 1128 274 c 0
 1128 105 1004 -36 886 -36 c 0
 759 -36 642 87 642 277 c 0
771 277 m 0
 771 159 811 16 886 16 c 0
 970 16 1002 158 1002 280 c 0
 1002 400 960 546 884 546 c 0
 799 546 771 391 771 277 c 0
EndSplineSet
Substitution2: "Neuton-Regular-'onum' Oldstyle Figures lookup 1-1" percent.osf
Colour: ffffff
EndChar

StartChar: period
Encoding: 14 46 116
Width: 309
VWidth: 0
Flags: HMW
LayerCount: 2
Fore
SplineSet
64 81 m 0
 64 145 100 186 154 186 c 0
 208 186 247 144 247 80 c 0
 247 13 211 -32 155 -32 c 0
 99 -32 64 15 64 81 c 0
EndSplineSet
Colour: ffffff
EndChar

StartChar: periodcentered
Encoding: 118 183 117
Width: 307
VWidth: 0
Flags: HMW
LayerCount: 2
Fore
SplineSet
62 503 m 0
 62 567 100 608 154 608 c 0
 208 608 246 567 246 503 c 0
 246 436 210 391 154 391 c 0
 98 391 62 437 62 503 c 0
EndSplineSet
Colour: ffffff
EndChar

StartChar: plus
Encoding: 11 43 118
Width: 637
VWidth: 0
Flags: HMW
LayerCount: 2
Fore
SplineSet
54 417 m 1
 66 503 l 1
 275 503 l 1
 275 742 l 1
 363 730 l 1
 364 503 l 1
 584 503 l 1
 573 417 l 1
 364 417 l 1
 366 173 l 1
 275 186 l 1
 275 417 l 1
 54 417 l 1
EndSplineSet
Colour: ffffff
EndChar

StartChar: q
Encoding: 81 113 119
Width: 976
VWidth: 0
Flags: HMW
LayerCount: 2
Fore
SplineSet
52 407 m 0
 52 679 267 889 477 889 c 0
 557 889 628 861 658 845 c 1
 752 878 l 1
 775 878 l 1
 775 -280 l 1
 936 -306 l 1
 927 -367 l 1
 483 -367 l 1
 491 -308 l 1
 642 -280 l 1
 642 691 l 1
 607 745 534 809 428 809 c 0
 298 809 191 672 191 468 c 0
 191 203 286 78 429 78 c 0
 474 78 561 94 611 127 c 1
 615 71 l 1
 552 11 450 -21 369 -21 c 0
 193 -21 52 107 52 407 c 0
EndSplineSet
Substitution2: "Neuton-Regular-'smcp' Lowercase to Small Capitals in Latin lookup 0 subtable" q.sc
Colour: ffffff
EndChar

StartChar: question
Encoding: 31 63 120
Width: 617
VWidth: 0
Flags: HMW
LayerCount: 2
Fore
SplineSet
43 1159 m 0
 43 1217 117 1287 241 1287 c 0
 408 1287 570 1110 570 893 c 0
 570 661 271 670 271 508 c 0
 271 468 286 420 306 371 c 1
 248 354 l 1
 212 395 167 484 167 565 c 0
 167 786 476 765 476 943 c 0
 476 1048 390 1147 294 1147 c 0
 218 1147 145 1119 102 1073 c 1
 72 1087 43 1119 43 1159 c 0
194 79 m 0
 194 140 235 184 285 184 c 0
 336 184 377 139 377 78 c 0
 377 14 343 -35 285 -35 c 0
 229 -35 194 17 194 79 c 0
EndSplineSet
Colour: ffffff
EndChar

StartChar: quotedbl
Encoding: 2 34 121
Width: 453
VWidth: 0
Flags: HMW
LayerCount: 2
Fore
SplineSet
60 1303 m 1
 205 1291 l 1
 169 899 l 1
 96 891 l 1
 60 1303 l 1
246 1303 m 1
 393 1291 l 1
 357 899 l 1
 283 891 l 1
 246 1303 l 1
EndSplineSet
Colour: ffffff
EndChar

StartChar: quotesingle
Encoding: 7 39 122
Width: 265
VWidth: 0
Flags: HMW
LayerCount: 2
Fore
SplineSet
59 1303 m 1
 205 1291 l 1
 169 899 l 1
 96 891 l 1
 59 1303 l 1
EndSplineSet
Colour: ffffff
EndChar

StartChar: r
Encoding: 82 114 123
Width: 733
VWidth: 0
Flags: HMW
LayerCount: 2
Back
SplineSet
474.94 422.059 m 1
 450.775 442.772 430.696 472.47 408.603 472.47 c 1
 389.27 472.47 467.473 477.182 446.758 453.016 c 1
 426.044 428.85 412.58 852.905 406.366 810.095 c 1
 308.14 587.098 l 1
 455.174 583.688 l 1
 595.026 541.52 l 1
 254.7 535.92 l 1
 256.859 419.665 l 1
 357.234 444.522 l 1
 374.538 550.383 436.121 1010.48 516.025 1010.48 c 1
 550.634 1010.48 484.762 1020.16 484.762 984.531 c 1
 484.762 963.664 483.886 998.584 463.528 984.841 c 1
 445.205 1018.94 598.427 1058.54 571.961 1058.54 c 1
 490.529 1058.54 470.896 907.644 459.189 808.907 c 1
 448.831 433.355 l 1
 604.782 421.141 l 1
 620.665 475.688 637.487 494.732 664.416 524.076 c 1
 691.346 553.421 718.964 568.093 747.274 568.093 c 1
 770.058 568.093 788.355 561.016 802.166 546.862 c 1
 815.976 532.707 822.879 515.963 822.879 496.63 c 1
 822.879 469.012 507.393 444.154 474.94 422.059 c 1
EndSplineSet
Fore
SplineSet
48 0 m 1
 56 52 l 1
 211 86 l 1
 211 757 l 1
 51 796 l 1
 60 848 l 1
 319 877 l 1
 335 860 l 1
 321 615 l 1
 335 615 l 1
 383 788 478 895 575 895 c 0
 645 895 686 850 686 799 c 0
 686 766 663 731 624 704 c 1
 590 739 556 756 517 756 c 0
 435 756 363 626 341 464 c 1
 341 88 l 1
 571 61 l 1
 563 0 l 1
 48 0 l 1
EndSplineSet
Substitution2: "Neuton-Regular-'smcp' Lowercase to Small Capitals in Latin lookup 0 subtable" r.sc
Colour: ffffff
EndChar

StartChar: registered
Encoding: 109 174 124
Width: 1065
VWidth: 0
Flags: HMW
LayerCount: 2
Fore
SplineSet
270 774 m 1
 275 813 l 1
 350 834 l 1
 350 1266 l 1
 273 1279 l 1
 278 1317 l 1
 344 1328 439 1338 506 1338 c 0
 631 1338 725 1297 725 1198 c 0
 725 1132 674 1069 594 1034 c 1
 593 1033 l 1
 677 926 l 2
 735 851 754 838 794 821 c 2
 813 814 l 1
 807 773 l 1
 788 766 769 765 745 765 c 0
 673 765 631 805 580 899 c 2
 519 1010 l 1
 446 1010 l 1
 446 835 l 1
 531 817 l 1
 526 774 l 1
 270 774 l 1
446 1062 m 1
 537 1062 l 1
 583 1087 622 1124 622 1181 c 0
 622 1253 574 1285 491 1285 c 0
 470 1285 447 1284 446 1284 c 1
 446 1062 l 1
49 1022 m 0
 49 1338 260 1520 524 1520 c 0
 800 1520 1016 1344 1016 1026 c 0
 1016 722 788 542 514 542 c 0
 256 542 49 730 49 1022 c 0
121 1036 m 0
 121 776 288 604 522 604 c 0
 753 604 944 768 944 1016 c 0
 944 1290 761 1457 524 1459 c 0
 302 1461 121 1318 121 1036 c 0
EndSplineSet
Colour: ffffff
EndChar

StartChar: ring
Encoding: 193 730 125
Width: 482
VWidth: 0
Flags: HMW
LayerCount: 2
Fore
SplineSet
79 1528 m 0
 79 1620 152 1700 246 1700 c 0
 342 1700 403 1631 403 1537 c 0
 403 1447 336 1362 234 1362 c 0
 142 1362 79 1426 79 1528 c 0
146 1540 m 0
 146 1478 179 1407 245 1407 c 0
 301 1407 335 1449 335 1524 c 0
 335 1588 299 1656 235 1656 c 0
 173 1656 146 1598 146 1540 c 0
EndSplineSet
Colour: ffffff
EndChar

StartChar: s
Encoding: 83 115 126
Width: 667
VWidth: 0
Flags: HMW
LayerCount: 2
Fore
SplineSet
46 154 m 0
 46 216 93 257 152 264 c 1
 186 106 249 40 355 40 c 0
 441 40 504 90 504 160 c 0
 504 337 83 376 83 637 c 0
 83 754 170 889 360 889 c 0
 491 889 590 814 590 713 c 0
 590 636 545 602 485 597 c 1
 477 636 l 2
 442 790 382 825 322 825 c 0
 239 825 189 774 189 700 c 0
 189 499 622 461 622 212 c 0
 622 64 477 -35 323 -35 c 0
 163 -35 46 45 46 154 c 0
EndSplineSet
Substitution2: "Neuton-Regular-'smcp' Lowercase to Small Capitals in Latin lookup 0 subtable" s.sc
Colour: ffffff
EndChar

StartChar: section
Encoding: 102 167 127
Width: 850
VWidth: 0
Flags: HMW
LayerCount: 2
Back
SplineSet
75 -238 m 5
 96 39 l 5
 172 29 l 5
 204 -176 l 5
 245 -248 343 -299 446 -299 c 4
 561 -299 686 -229 686 -81 c 4
 686 193 100 223 118 576 c 5
 464 369 l 6
 631 271 831 181 831 -25 c 4
 831 -234 647 -381 409 -381 c 4
 265 -381 139 -317 75 -238 c 5
113 938 m 4
 113 1151 294 1270 473 1270 c 4
 581 1270 687 1235 760 1165 c 5
 760 1161 733 869 733 869 c 5
 660 878 l 5
 634 1096 l 5
 607 1147 525 1200 444 1200 c 4
 338 1200 248 1132 248 1001 c 4
 248 698 850 683 830 318 c 5
 453 546 l 6
 295 642 113 735 113 938 c 4
EndSplineSet
Fore
SplineSet
43 -238 m 1
 64 39 l 1
 140 29 l 1
 172 -176 l 1
 213 -248 311 -299 414 -299 c 0
 529 -299 654 -229 654 -81 c 0
 654 193 68 223 86 576 c 1
 432 369 l 2
 599 271 799 181 799 -25 c 0
 799 -234 615 -381 377 -381 c 0
 233 -381 107 -317 43 -238 c 1
81 938 m 0
 81 1151 262 1270 441 1270 c 0
 549 1270 655 1235 728 1165 c 1
 728 1161 701 869 701 869 c 1
 628 878 l 1
 602 1096 l 1
 575 1147 493 1200 412 1200 c 0
 306 1200 216 1132 216 1001 c 0
 216 698 818 683 798 318 c 1
 421 546 l 2
 263 642 81 735 81 938 c 0
EndSplineSet
Colour: ffffff
EndChar

StartChar: seven
Encoding: 23 55 128
Width: 879
VWidth: 0
Flags: HMW
LayerCount: 2
Fore
SplineSet
46 829 m 1
 74 1182 l 1
 837 1182 l 1
 837 1130 l 1
 404 -33 l 1
 245 -16 l 1
 719 1047 l 1
 168 1047 l 1
 100 820 l 1
 46 829 l 1
EndSplineSet
Substitution2: "Neuton-Regular-'onum' Oldstyle Figures lookup 1-1" seven.osf
Colour: ffffff
EndChar

StartChar: seven.osf
Encoding: 213 -1 129
Width: 737
VWidth: 0
Flags: HMW
LayerCount: 2
Fore
SplineSet
32.5 602 m 1
 59 933 l 1
 707.5 933 l 1
 714 858.5 l 1
 493 461 310.5 145.5 289.5 -298.5 c 1
 282 -299.5 266.5 -304 259.5 -304 c 0
 175 -304 140 -255 140 -185 c 0
 140 20 477 611 597.5 805.5 c 1
 142 805.5 l 1
 93.5 591.5 l 1
 32.5 602 l 1
EndSplineSet
Colour: ffffff
EndChar

StartChar: six
Encoding: 22 54 130
Width: 862
VWidth: 0
Flags: HMW
LayerCount: 2
Fore
SplineSet
55 422 m 0
 55 758 308 1104 629 1214 c 1
 658 1164 l 1
 377 1039 268 808 228 609 c 1
 237 609 l 1
 289 657 370 709 492 709 c 0
 687 709 810 563 810 362 c 0
 810 140 636 -21 419 -21 c 0
 156 -21 55 188 55 422 c 0
218 407 m 0
 218 199 311 44 434 44 c 0
 592 44 647 156 647 327 c 0
 647 482 570 619 419 619 c 0
 328 619 250 576 225 540 c 1
 220 506 218 442 218 407 c 0
EndSplineSet
Substitution2: "Neuton-Regular-'onum' Oldstyle Figures lookup 1-1" six.osf
Colour: ffffff
EndChar

StartChar: six.osf
Encoding: 214 -1 131
Width: 785
VWidth: 0
Flags: HMW
LayerCount: 2
Fore
SplineSet
46.5 421.5 m 0
 46.5 738.5 289 1108 617 1217.5 c 1
 645 1166.5 l 1
 377.5 1051.5 258.5 812.5 218.5 613.5 c 1
 227.5 613.5 l 1
 286.5 670.5 373.5 711 460.5 711 c 0
 640.5 711 741 556 741 371.5 c 0
 741 163.5 578.5 -21.5 384 -21.5 c 0
 128.5 -21.5 46.5 188 46.5 421.5 c 0
204.5 407 m 0
 204.5 199 285 48.5 405 48.5 c 0
 528 48.5 588.5 176.5 588.5 327.5 c 0
 588.5 482 534.5 619 383.5 619 c 0
 309 619 245.5 578.5 215 543.5 c 1
 210 509 204.5 442 204.5 407 c 0
EndSplineSet
Colour: ffffff
EndChar

StartChar: slash
Encoding: 15 47 132
Width: 651
VWidth: 0
Flags: HMW
LayerCount: 2
Fore
SplineSet
40 -361 m 1
 503 1238 l 1
 610 1244 l 1
 144 -355 l 1
 40 -361 l 1
EndSplineSet
Colour: ffffff
EndChar

StartChar: softhyphen
Encoding: 108 173 133
Width: 538
VWidth: 0
Flags: HMW
LayerCount: 2
Fore
SplineSet
61 420 m 1
 69 509 l 1
 477 570 l 1
 469 480 l 1
 61 420 l 1
EndSplineSet
Colour: ffffff
EndChar

StartChar: sterling
Encoding: 98 163 135
Width: 1072
VWidth: 0
Flags: HMW
LayerCount: 2
Fore
SplineSet
43 0 m 1
 50 58 l 1
 218 96 l 1
 247 199 255 313 258 461 c 1
 259 561 l 1
 81 552 l 1
 92 631 l 1
 262 641 l 1
 265 786 l 1
 273 1107 406 1251 633 1251 c 0
 714 1251 786 1244 865 1211 c 1
 834 892 l 1
 767 902 l 1
 736 1141 l 1
 715 1152 654 1171 618 1171 c 0
 458 1171 419 1089 416 702 c 1
 416 648 l 1
 635 661 l 1
 625 581 l 1
 414 568 l 1
 414 516 l 1
 412 333 393 174 352 78 c 1
 851 77 l 1
 962 336 l 1
 1025 322 l 1
 991 0 l 1
 43 0 l 1
EndSplineSet
Substitution2: "Neuton-Regular-'onum' Oldstyle Figures lookup 1-1" sterling.osf
Colour: ffffff
EndChar

StartChar: t
Encoding: 84 116 136
Width: 650
VWidth: 0
Flags: HMW
LayerCount: 2
Fore
SplineSet
40 771 m 1
 40 811 l 1
 140 856 204 944 254 1068 c 1
 301 1068 l 1
 301 840 l 1
 584 840 l 1
 576 768 l 1
 300 768 l 1
 297 310 l 2
 297 142 341 98 435 98 c 0
 509 98 590 163 590 163 c 1
 609 119 l 1
 549 33 455 -24 354 -24 c 0
 231 -24 161 53 163 251 c 2
 167 771 l 1
 40 771 l 1
EndSplineSet
Substitution2: "Neuton-Regular-'smcp' Lowercase to Small Capitals in Latin lookup 0 subtable" t.sc
Colour: ffffff
EndChar

StartChar: thorn
Encoding: 189 254 137
Width: 955
VWidth: 0
Flags: HMW
LayerCount: 2
Fore
SplineSet
41 -370 m 1
 47 -311 l 1
 199 -282 l 1
 196 1184 l 5
 46 1226 l 5
 54 1280 l 5
 315 1300 l 5
 331 1284 l 5
 331 849 l 1
 319 740 l 1
 328 740 l 1
 383 808 474 898 605 898 c 0
 776 898 907 750 907 468 c 0
 907 186 728 -17 485 -17 c 0
 454 -17 412 -13 379 -4 c 1
 375 82 l 1
 413 70 450 66 503 66 c 0
 677 66 762 216 762 411 c 0
 762 645 693 792 539 792 c 0
 446 792 378 730 328 678 c 1
 328 -283 l 1
 484 -309 l 1
 474 -370 l 1
 41 -370 l 1
EndSplineSet
Substitution2: "Neuton-Regular-'smcp' Lowercase to Small Capitals in Latin lookup 0 subtable" thorn.sc
Colour: ffffff
EndChar

StartChar: three
Encoding: 19 51 138
Width: 835
VWidth: 0
Flags: HMW
LayerCount: 2
Fore
SplineSet
47 90 m 1
 92 353 l 1
 159 342 l 1
 169 138 l 1
 197 88 276 36 364 36 c 0
 516 36 620 135 620 292 c 0
 620 445 476 551 284 555 c 1
 278 605 l 1
 368 645 573 742 573 929 c 0
 573 1028 515 1137 391 1137 c 0
 312 1137 258 1098 222 1057 c 1
 179 833 l 1
 115 844 l 1
 108 1092 l 1
 157 1139 280 1211 442 1211 c 0
 609 1211 740 1115 740 959 c 0
 740 797 592 688 471 643 c 1
 471 633 l 1
 649 608 786 505 786 345 c 0
 786 127 576 -33 345 -33 c 0
 205 -33 84 26 47 90 c 1
EndSplineSet
Substitution2: "Neuton-Regular-'onum' Oldstyle Figures lookup 1-1" three.osf
Colour: ffffff
EndChar

StartChar: three.osf
Encoding: 215 -1 139
Width: 725
VWidth: 0
Flags: HMW
LayerCount: 2
Fore
SplineSet
-1 -135.5 m 0
 -1 -87.5 47 -29 112.5 -23.5 c 1
 130 -119.5 187 -219.5 300 -219.5 c 0
 466.5 -219.5 533.5 -118.5 533.5 23.5 c 0
 533.5 189 406 298 216 305 c 1
 210 355 l 1
 335.5 398.5 488.5 501 488.5 676 c 0
 488.5 776 449 876.5 339 875 c 0
 223 873.5 165.5 788 131.5 707.5 c 1
 65 730 l 1
 96 834.5 218.5 979 390.5 979 c 0
 537 979 641 868.5 641 721.5 c 0
 641 563 496 435.5 396 393.5 c 1
 396 386 l 1
 542 373 683 239.5 683 74.5 c 0
 683 -133.5 494 -294.5 268.5 -294.5 c 0
 95.5 -294.5 -1 -225 -1 -135.5 c 0
EndSplineSet
Colour: ffffff
EndChar

StartChar: threequarters
Encoding: 125 190 140
Width: 1322
VWidth: 0
Flags: HMW
LayerCount: 2
Fore
SplineSet
45 595 m 1
 79 766 l 1
 138 759 l 1
 144 632 l 1
 163 604 210 576 263 576 c 0
 355 576 417 636 417 726 c 0
 417 814 309 874 193 876 c 1
 185 915 l 1
 231 933 375 984 375 1092 c 0
 375 1149 339 1214 269 1214 c 0
 225 1214 195 1210 175 1188 c 1
 147 1046 l 1
 85 1052 l 1
 81 1208 l 1
 113 1247 208 1286 316 1286 c 0
 430 1286 523 1224 523 1126 c 0
 523 1024 436 965 345 937 c 1
 345 930 l 1
 483 914 563 841 563 742 c 0
 563 607 414 508 251 508 c 0
 153 508 71 543 45 595 c 1
242 -26 m 1
 619 588 l 1
 972 1211 l 1
 1109 1207 l 1
 1106 1190 l 1
 740 591 l 1
 393 -40 l 1
 242 -26 l 1
695 250 m 1
 1091 730 l 1
 1141 721 l 1
 1135 650 1133 534 1133 425 c 2
 1133 274 l 1
 1281 274 l 1
 1272 188 l 1
 1133 188 l 1
 1133 74 l 1
 1252 55 l 1
 1246 0 l 1
 852 0 l 1
 857 50 l 1
 1007 76 l 1
 1007 192 l 1
 705 192 l 1
 695 250 l 1
801 274 m 1
 1005 274 l 1
 1005 532 l 1
 801 274 l 1
EndSplineSet
Colour: ffffff
EndChar

StartChar: three.superior
Encoding: 114 179 141
Width: 620
VWidth: 0
Flags: HMW
LayerCount: 2
Fore
SplineSet
50 598 m 1
 83 768 l 1
 142 762 l 1
 148 634 l 1
 167 606 215 579 268 579 c 0
 360 579 421 638 421 728 c 0
 421 816 314 876 198 878 c 1
 190 918 l 1
 236 936 380 986 380 1094 c 0
 380 1151 343 1217 273 1217 c 0
 229 1217 200 1212 180 1190 c 1
 152 1049 l 1
 89 1055 l 1
 85 1210 l 1
 117 1249 212 1288 320 1288 c 0
 434 1288 527 1227 527 1129 c 0
 527 1027 440 968 349 940 c 1
 349 933 l 1
 487 917 568 844 568 745 c 0
 568 610 419 511 256 511 c 0
 158 511 76 546 50 598 c 1
EndSplineSet
Colour: ffffff
EndChar

StartChar: tilde
Encoding: 194 732 142
Width: 625
VWidth: 0
Flags: HMW
LayerCount: 2
Fore
SplineSet
79 1381 m 1
 79 1381 116 1544 226 1520 c 2
 429 1478 l 2
 478 1465 505 1532 505 1532 c 1
 547 1530 l 1
 547 1530 504 1366 392 1391 c 2
 191 1433 l 2
 145 1445 112 1371 112 1371 c 1
 79 1381 l 1
EndSplineSet
Colour: ffffff
EndChar

StartChar: two
Encoding: 18 50 143
Width: 910
VWidth: 0
Flags: HMW
LayerCount: 2
Back
SplineSet
874.37 0 m 5
 96.7002 0 l 5
 90.5918 103.824 l 5
 330.815 312.493 l 6
 394.941 367.459 394.941 367.459 435.658 405.121 c 132
 462.802 430.229 494.187 462.124 529.813 500.803 c 132
 565.439 539.482 593.431 574.771 613.789 606.663 c 132
 634.147 638.558 651.79 674.692 666.72 715.069 c 132
 681.649 755.445 689.113 795.653 689.113 835.689 c 4
 689.113 1007.38 619.558 1092.88 480.445 1092.2 c 4
 369.155 1092.2 279.581 1006.02 211.722 833.654 c 5
 128.255 864.191 l 5
 138.433 907.621 155.907 950.882 180.676 993.972 c 132
 205.444 1037.06 235.303 1076.25 270.25 1111.54 c 132
 305.198 1146.83 346.423 1175.5 393.924 1197.55 c 132
 441.426 1219.61 490.624 1230.63 541.52 1230.63 c 4
 650.772 1230.63 733.561 1200.43 789.885 1140.04 c 132
 846.209 1079.64 874.37 993.123 874.37 880.477 c 4
 874.37 845.19 869.28 809.903 859.102 774.617 c 132
 848.922 739.329 836.368 706.757 821.439 676.898 c 132
 806.51 647.041 786.831 615.824 762.401 583.252 c 132
 737.972 550.68 714.561 522.349 692.167 498.259 c 132
 669.773 474.168 642.629 447.194 610.735 417.337 c 132
 578.841 387.478 551.867 363.388 529.813 345.065 c 132
 496.732 317.583 496.732 317.583 447.872 276.867 c 132
 399.014 236.15 399.014 236.15 376.62 216.811 c 6
 283.992 136.397 l 5
 763.42 136.397 l 5
 861.137 317.583 l 5
 931.372 307.404 l 5
 874.37 0 l 5
EndSplineSet
Fore
SplineSet
45 74 m 1
 283 278 l 2
 513 475 644 628 644 842 c 0
 644 988 590 1128 430 1128 c 0
 323 1128 253 1076 224 1021 c 1
 183 780 l 1
 126 788 l 1
 116 1057 l 1
 170 1130 324 1209 476 1209 c 0
 680 1209 818 1094 818 860 c 0
 818 594 568 397 295 180 c 2
 216 118 l 1
 715 118 l 1
 810 361 l 1
 865 353 l 1
 818 0 l 1
 51 0 l 1
 45 74 l 1
EndSplineSet
Substitution2: "Neuton-Regular-'onum' Oldstyle Figures lookup 1-1" two.osf
Colour: ffffff
EndChar

StartChar: two.osf
Encoding: 216 -1 144
Width: 795
VWidth: 0
Flags: HMW
LayerCount: 2
Fore
SplineSet
43 74 m 1
 278.5 251.5 l 1
 470 394 536.5 514 536.5 653 c 0
 536.5 787 470 882 355.5 882 c 0
 258 882 167.5 780 136 662 c 1
 70.5 686 l 1
 94.5 813.5 235 978 416 980 c 0
 596.5 981.5 700 862.5 700 692 c 0
 700 497 557.5 354 299.5 175 c 1
 213.5 116 l 1
 625 116 l 1
 703.5 295.5 l 1
 758.5 286.5 l 1
 717 0 l 1
 50 0 l 1
 43 74 l 1
EndSplineSet
Colour: ffffff
EndChar

StartChar: two.superior
Encoding: 113 178 145
Width: 655
VWidth: 0
Flags: HMW
LayerCount: 2
Fore
SplineSet
53 626 m 1
 207 750 l 2
 341 860 412 940 412 1040 c 0
 412 1118 381 1194 289 1194 c 0
 227 1194 191 1177 174 1154 c 1
 150 1014 l 1
 95 1019 l 1
 90 1184 l 1
 126 1238 232 1274 335 1274 c 0
 473 1274 565 1208 565 1074 c 0
 565 922 429 818 233 675 c 2
 198 652 l 1
 491 652 l 1
 553 802 l 1
 599 790 l 1
 579 548 l 1
 51 548 l 1
 53 626 l 1
EndSplineSet
Colour: ffffff
EndChar

StartChar: u
Encoding: 85 117 146
Width: 1026
VWidth: 0
Flags: HMW
LayerCount: 2
Fore
SplineSet
41 800 m 1
 49 853 l 1
 298 874 l 1
 314 857 l 1
 314 317 l 2
 314 153 380 86 486 86 c 0
 576 86 647 137 692 187 c 1
 692 754 l 1
 535 790 l 1
 541 850 l 1
 807 874 l 1
 821 857 l 1
 821 223 l 2
 821 123 844 85 920 70 c 2
 974 58 l 1
 967 -1 l 1
 926 -13 891 -21 841 -21 c 0
 750 -21 704 43 704 120 c 2
 704 132 l 1
 692 132 l 1
 623 30 523 -24 414 -24 c 0
 275 -24 186 60 186 275 c 2
 186 757 l 1
 41 800 l 1
EndSplineSet
Substitution2: "Neuton-Regular-'smcp' Lowercase to Small Capitals in Latin lookup 0 subtable" u.sc
Colour: ffffff
EndChar

StartChar: underscore
Encoding: 63 95 147
Width: 985
VWidth: 0
Flags: HMW
LayerCount: 2
Fore
SplineSet
73 -133 m 1
 85 -47 l 1
 913 -47 l 1
 903 -133 l 1
 73 -133 l 1
EndSplineSet
Colour: ffffff
EndChar

StartChar: v
Encoding: 86 118 148
Width: 978
VWidth: 0
Flags: HMW
LayerCount: 2
Fore
SplineSet
42 806 m 1
 49 861 l 1
 455 861 l 1
 450 808 l 1
 304 771 l 1
 513 161 l 1
 725 769 l 1
 565 806 l 1
 576 861 l 1
 935 861 l 1
 926 808 l 1
 817 771 l 1
 536 -11 l 1
 446 -26 l 1
 164 769 l 1
 42 806 l 1
EndSplineSet
Substitution2: "Neuton-Regular-'smcp' Lowercase to Small Capitals in Latin lookup 0 subtable" v.sc
Colour: ffffff
EndChar

StartChar: w
Encoding: 87 119 149
Width: 1311
VWidth: 0
Flags: HMW
LayerCount: 2
Fore
SplineSet
42 808 m 1
 49 863 l 1
 432 863 l 1
 425 809 l 1
 290 777 l 1
 411 360 l 1
 448 203 l 1
 611 798 l 1
 725 817 l 1
 863 345 l 1
 895 193 l 1
 1056 775 l 1
 905 808 l 1
 912 863 l 1
 1268 863 l 1
 1260 809 l 1
 1152 777 l 1
 930 -9 l 1
 845 -25 l 1
 654 630 l 1
 482 -9 l 1
 395 -25 l 1
 158 775 l 1
 42 808 l 1
EndSplineSet
Substitution2: "Neuton-Regular-'smcp' Lowercase to Small Capitals in Latin lookup 0 subtable" w.sc
Colour: ffffff
EndChar

StartChar: x
Encoding: 88 120 150
Width: 1011
VWidth: 0
Flags: HMW
LayerCount: 2
Fore
SplineSet
47 0 m 1
 56 52 l 1
 164 86 l 1
 430 431 l 1
 184 783 l 1
 66 815 l 1
 73 870 l 1
 467 870 l 1
 457 817 l 1
 342 785 l 1
 526 527 l 1
 723 781 l 1
 585 815 l 1
 597 870 l 1
 946 870 l 1
 935 816 l 1
 831 783 l 1
 580 459 l 1
 842 84 l 1
 956 52 l 1
 948 0 l 1
 543 0 l 1
 555 51 l 1
 682 84 l 1
 486 362 l 1
 274 86 l 1
 416 54 l 1
 407 0 l 1
 47 0 l 1
EndSplineSet
Substitution2: "Neuton-Regular-'smcp' Lowercase to Small Capitals in Latin lookup 0 subtable" x.sc
Colour: ffffff
EndChar

StartChar: y
Encoding: 89 121 151
Width: 992
VWidth: 0
Flags: HMW
LayerCount: 2
Fore
SplineSet
40 -274 m 0
 40 -241 50 -206 85 -176 c 1
 132 -212 175 -229 243 -229 c 0
 299 -229 368 -194 425 -49 c 2
 448 12 l 1
 170 772 l 1
 46 805 l 1
 55 861 l 1
 438 861 l 1
 432 808 l 1
 305 775 l 1
 520 195 l 1
 750 771 l 1
 620 806 l 1
 631 861 l 1
 948 861 l 1
 943 808 l 1
 842 772 l 1
 512 -53 l 2
 419 -286 340 -379 185 -379 c 0
 101 -379 40 -332 40 -274 c 0
EndSplineSet
Substitution2: "Neuton-Regular-'smcp' Lowercase to Small Capitals in Latin lookup 0 subtable" y.sc
Colour: ffffff
EndChar

StartChar: yen
Encoding: 100 165 154
Width: 1067
VWidth: 0
Flags: HMW
LayerCount: 2
Fore
SplineSet
42 1188 m 1
 50 1244 l 1
 489 1244 l 1
 481 1188 l 1
 331 1156 l 1
 570 638 l 1
 797 1151 l 1
 626 1188 l 1
 632 1244 l 1
 1026 1244 l 1
 1019 1188 l 1
 893 1155 l 1
 626 578 l 1
 956 578 l 1
 945 505 l 1
 607 505 l 1
 607 338 l 1
 953 338 l 1
 942 265 l 1
 607 265 l 1
 607 90 l 1
 781 62 l 1
 772 0 l 1
 291 0 l 1
 299 56 l 1
 461 96 l 1
 461 265 l 1
 135 265 l 1
 146 338 l 1
 461 338 l 1
 461 505 l 1
 138 505 l 1
 149 578 l 1
 442 578 l 1
 179 1152 l 1
 42 1188 l 1
EndSplineSet
Substitution2: "Neuton-Regular-'onum' Oldstyle Figures lookup 1-1" yen.osf
Colour: ffffff
EndChar

StartChar: z
Encoding: 90 122 155
Width: 796
VWidth: 0
Flags: HMW
LayerCount: 2
Fore
SplineSet
56 63 m 1
 572 788 l 1
 187 788 l 1
 131 583 l 1
 75 592 l 1
 85 861 l 1
 732 861 l 1
 734 809 l 1
 211 78 l 1
 624 78 l 1
 699 275 l 1
 750 269 l 1
 720 0 l 1
 60 0 l 1
 56 63 l 1
EndSplineSet
Substitution2: "Neuton-Regular-'smcp' Lowercase to Small Capitals in Latin lookup 0 subtable" z.sc
Colour: ffffff
EndChar

StartChar: zero
Encoding: 16 48 156
Width: 917
VWidth: 0
Flags: HMW
LayerCount: 2
Fore
SplineSet
55 587 m 0
 55 989 243 1203 464 1203 c 0
 705 1203 860 995 860 587 c 0
 860 145 662 -27 463 -27 c 0
 238 -27 55 133 55 587 c 0
223 584 m 0
 223 228 302 48 465 48 c 0
 625 48 691 227 691 587 c 0
 691 921 622 1125 461 1125 c 0
 289 1125 223 920 223 584 c 0
EndSplineSet
Substitution2: "Neuton-Regular-'onum' Oldstyle Figures lookup 1-1" zero.osf
Colour: ffffff
EndChar

StartChar: zero.osf
Encoding: 217 -1 157
Width: 932
VWidth: 0
Flags: HMW
LayerCount: 2
Fore
SplineSet
77.5 475.5 m 0
 77.5 727 232 977 468 976 c 0
 715 974.5 855.5 754 855.5 480.5 c 0
 855.5 164.5 665.5 -24.5 464.5 -24.5 c 0
 251.5 -24.5 77.5 164.5 77.5 475.5 c 0
235.5 478.5 m 0
 235.5 176.5 334.5 50 468 50 c 0
 603.5 50 696.5 168 696.5 478 c 0
 696.5 765.5 613.5 907 465.5 907 c 0
 308.5 907 235.5 768 235.5 478.5 c 0
EndSplineSet
Colour: ffffff
EndChar

StartChar: Germandbls.alt
Encoding: 218 -1 158
Width: 1277
VWidth: 0
Flags: HMW
LayerCount: 2
Fore
SplineSet
43 0 m 1
 50 58 l 1
 219 97 l 1
 219 727 l 2
 219 1090 371 1274 703 1274 c 0
 885 1274 1057 1256 1128 1235 c 1
 1129 1184 l 1
 802 751 l 1
 951 664 1228 566 1228 323 c 0
 1228 112 1060 -25 819 -25 c 0
 674 -25 546 39 486 123 c 1
 507 400 l 1
 583 389 l 1
 616 185 l 1
 657 112 754 57 857 57 c 0
 981 57 1080 129 1080 267 c 0
 1080 466 788 579 633 666 c 1
 611 711 l 1
 943 1159 l 1
 943 1163 l 1
 894 1182 729 1203 665 1203 c 0
 438 1203 366 1013 366 750 c 2
 366 0 l 1
 43 0 l 1
EndSplineSet
Substitution2: "Neuton-Regular-'c2sc' Capitals to Small Capitals in Latin lookup 3-1" germandbls.sc.alt
Colour: ffffff
EndChar

StartChar: iacute
Encoding: 172 237 189
Width: 543
VWidth: 0
Flags: HMW
LayerCount: 2
Fore
SplineSet
44 0 m 1
 56 55 l 1
 207 87 l 1
 207 772 l 1
 55 814 l 1
 63 865 l 1
 322 887 l 1
 338 871 l 1
 338 87 l 1
 498 57 l 1
 487 0 l 1
 44 0 l 1
EndSplineSet
Refer: 37 180 S 1 0 0 1 134 -356 2
Substitution2: "Neuton-Regular-'smcp' Lowercase to Small Capitals in Latin lookup 0 subtable" iacute.sc
Colour: ffffff
EndChar

StartChar: icircumflex
Encoding: 173 238 190
Width: 545
VWidth: 0
Flags: HMW
LayerCount: 2
Fore
SplineSet
46 0 m 1
 58 55 l 1
 209 87 l 1
 209 772 l 1
 57 814 l 1
 65 865 l 1
 324 887 l 1
 340 871 l 1
 340 87 l 1
 500 57 l 1
 489 0 l 1
 46 0 l 1
EndSplineSet
Refer: 54 710 S 1 0 0 1 -32 -368 2
Substitution2: "Neuton-Regular-'smcp' Lowercase to Small Capitals in Latin lookup 0 subtable" icircumflex.sc
Colour: ffffff
EndChar

StartChar: idieresis
Encoding: 174 239 191
Width: 570
VWidth: 0
Flags: HMW
LayerCount: 2
Fore
SplineSet
46 0 m 1
 58 55 l 1
 209 87 l 1
 209 772 l 1
 57 814 l 1
 65 865 l 1
 324 887 l 1
 340 871 l 1
 340 87 l 1
 500 57 l 1
 489 0 l 1
 46 0 l 1
EndSplineSet
Refer: 63 168 S 1 0 0 1 -44 -395.65 2
Substitution2: "Neuton-Regular-'smcp' Lowercase to Small Capitals in Latin lookup 0 subtable" idieresis.sc
Colour: ffffff
EndChar

StartChar: braceleft
Encoding: 91 123 202
Width: 613
VWidth: 0
Flags: HMW
LayerCount: 2
Back
SplineSet
5.08887 489.606 m 1
 5.08887 613.789 l 1
 66.1631 624.986 l 1
 432.604 688.096 21.376 1577.73 535.411 1577.73 c 2
 662.648 1577.73 l 1
 651.45 1452.53 l 1
 548.644 1444.39 l 2
 463.142 1437.26 458.052 1312.06 458.052 1157.34 c 2
 458.052 1084.05 l 2
 458.052 864.191 446.854 616.843 243.276 558.823 c 1
 243.276 550.68 l 1
 617.861 442.783 332.851 -325.726 563.913 -340.994 c 2
 657.559 -348.119 l 1
 667.737 -475.356 l 1
 539.482 -475.356 l 2
 18.3223 -475.356 430.569 421.408 70.2344 479.428 c 2
 5.08887 489.606 l 1
EndSplineSet
Fore
SplineSet
572 -378 m 1
 564 -303 l 1
 477 -297 l 1
 271 -286 511 369 197 438 c 1
 197 443 l 1
 511 520 268 1162 465 1175 c 1
 559 1182 l 1
 567 1256 l 1
 465 1256 l 2
 56 1256 390 527 93 484 c 1
 45 476 l 1
 45 402 l 1
 96 395 l 2
 389 355 54 -378 469 -378 c 2
 572 -378 l 1
EndSplineSet
Colour: ffffff
EndChar

StartChar: bracketleft
Encoding: 59 91 203
Width: 484
VWidth: 0
Flags: HMW
LayerCount: 2
Back
SplineSet
136.397 -472.302 m 1
 136.397 1577.73 l 1
 582.234 1577.73 l 1
 595.468 1465.77 l 1
 326.743 1440.32 l 1
 326.743 -326.743 l 1
 598.521 -350.154 l 1
 586.307 -471.284 l 1
 136.397 -472.302 l 1
EndSplineSet
Fore
SplineSet
443 -306 m 1
 206 -286 l 1
 206 1164 l 1
 441 1185 l 1
 434 1256 l 1
 76 1256 l 1
 75 -375 l 1
 435 -375 l 1
 443 -306 l 1
EndSplineSet
Colour: ffffff
EndChar

StartChar: guillemotleft
Encoding: 106 171 204
Width: 652
VWidth: 0
Flags: HMW
LayerCount: 2
Back
SplineSet
29.5195 589.36 m 1
 366.441 1031.13 l 1
 421.408 956.819 l 1
 214.775 579.181 l 1
 425.479 177.113 l 1
 359.315 96.7002 l 1
 30.5371 563.913 l 1
 29.5195 589.36 l 1
339.977 589.36 m 1
 676.898 1031.13 l 1
 732.883 956.819 l 1
 525.232 579.181 l 1
 736.954 177.113 l 1
 670.791 96.7002 l 1
 340.994 563.913 l 1
 339.977 589.36 l 1
EndSplineSet
Fore
Refer: 87 8249 N 1 0 0 1 245 0 2
Refer: 87 8249 N 1 0 0 1 -2 0 2
Colour: ffffff
EndChar

StartChar: guillemotright
Encoding: 122 187 205
Width: 653
VWidth: 0
Flags: HMW
LayerCount: 2
Back
SplineSet
76.3418 177.113 m 1
 287.046 579.181 l 1
 80.4131 956.819 l 1
 135.38 1031.13 l 1
 472.302 589.36 l 1
 470.266 563.913 l 1
 141.487 96.7002 l 1
 76.3418 177.113 l 1
386.8 177.113 m 1
 598.521 579.181 l 1
 390.871 956.819 l 1
 446.854 1031.13 l 1
 783.777 589.36 l 1
 780.724 563.913 l 1
 452.963 96.7002 l 1
 386.8 177.113 l 1
EndSplineSet
Fore
Refer: 204 171 N -1 0 0 1 627 0 2
Colour: ffffff
EndChar

StartChar: guilsinglright
Encoding: 206 8250 206
Width: 406
VWidth: 0
Flags: HMW
LayerCount: 2
Back
SplineSet
76.3418 177.113 m 1
 287.046 579.181 l 1
 80.4131 956.819 l 1
 135.38 1031.13 l 1
 472.302 589.36 l 1
 470.266 563.913 l 1
 141.487 96.7002 l 1
 76.3418 177.113 l 1
EndSplineSet
Fore
Refer: 87 8249 N -1 0 0 1 408 0 2
Colour: ffffff
EndChar

StartChar: less
Encoding: 28 60 207
Width: 764
VWidth: 0
Flags: HMW
LayerCount: 2
Back
SplineSet
46.8232 537.447 m 1
 49.876 572.055 l 1
 726.775 1223.51 l 1
 799.046 1131.9 l 1
 344.048 571.037 l 1
 823.476 -16.2861 l 1
 745.098 -103.824 l 1
 46.8232 537.447 l 1
EndSplineSet
Fore
Refer: 86 62 S -1 0 0 1 790 0 2
Colour: ffffff
EndChar

StartChar: parenleft
Encoding: 8 40 209
Width: 478
VWidth: 0
Flags: HMW
LayerCount: 2
Back
SplineSet
61.0732 559.841 m 0
 61.0732 1219.44 403.085 1507.5 485.535 1577.73 c 1
 547.626 1494.27 l 1
 439.73 1352.78 285.011 1105.43 285.011 572.055 c 0
 285.011 49.876 509.965 -307.404 564.931 -399.014 c 1
 478.409 -471.284 l 1
 415.3 -412.246 61.0732 -87.5391 61.0732 559.841 c 0
EndSplineSet
Fore
Refer: 114 41 N -1 0 0 1 485 0 2
Colour: ffffff
EndChar

StartChar: plusminus
Encoding: 112 177 210
Width: 723
VWidth: 0
Flags: HMW
LayerCount: 2
Back
SplineSet
73.2891 16.2861 m 1
 93.6455 146.576 l 1
 862.154 154.72 l 1
 841.798 24.4287 l 1
 73.2891 16.2861 l 1
104.843 597.503 m 1
 119.094 722.704 l 1
 382.728 722.704 l 1
 382.728 1014.84 l 1
 518.107 999.57 l 1
 520.144 722.704 l 1
 795.992 722.704 l 1
 780.724 597.503 l 1
 520.144 597.503 l 1
 522.179 301.296 l 1
 382.728 315.546 l 1
 382.728 597.503 l 1
 104.843 597.503 l 1
EndSplineSet
Fore
SplineSet
48 26 m 1
 65 110 l 1
 676 113 l 1
 659 29 l 1
 48 26 l 1
EndSplineSet
Refer: 118 43 N 1 0 0 1 36 62 2
Colour: ffffff
EndChar

StartChar: questiondown
Encoding: 126 191 211
Width: 615
VWidth: 0
Flags: HMW
LayerCount: 2
Back
SplineSet
66.1631 49.876 m 0xe8
 66.1631 348.119 428.532 305.367 428.532 491.642 c 0
 428.532 541.52 419.372 587.324 401.05 649.415 c 1
 493.678 670.791 l 1
 527.268 620.915 591.396 495.714 591.396 394.941 c 0
 591.396 112.986 205.613 207.65 205.613 -49.876 c 0
 205.613 -165.917 337.939 -267.706 412.246 -267.706 c 0
 507.929 -267.706 598.521 -236.15 652.47 -178.131 c 1
 694.202 -194.417 745.098 -249.383 745.098 -317.583 c 0
 745.098 -383.745 695.22 -487.571 497.75 -487.571 c 0
 303.332 -487.571 66.1631 -269.741 66.1631 49.876 c 0xe8
293.152 1017.89 m 0xf0
 293.152 1106.45 363.388 1176.68 450.926 1176.68 c 0
 538.465 1176.68 605.646 1103.4 605.646 1014.84 c 0
 605.646 930.354 533.376 867.244 450.926 867.244 c 0
 366.441 867.244 293.152 933.408 293.152 1017.89 c 0xf0
EndSplineSet
Fore
Refer: 120 63 S -1 0 0 -1 614 900 2
Colour: ffffff
EndChar

StartChar: quotedblleft
Encoding: 201 8220 212
Width: 720
VWidth: 0
Flags: HMW
LayerCount: 2
Back
SplineSet
68.1982 1212.31 m 0
 68.1982 1329.37 109.933 1530.91 440.748 1618.45 c 1
 468.23 1531.93 l 1
 303.332 1489.18 240.224 1393.5 240.224 1313.08 c 0
 240.224 1242.85 298.243 1178.72 386.8 1178.72 c 0
 399.014 1178.72 412.246 1180.76 424.461 1181.77 c 1
 434.64 1155.31 442.783 1132.92 442.783 1103.4 c 0
 442.783 1002.62 352.191 950.711 289.082 950.711 c 0
 201.543 950.711 68.1982 1022.98 68.1982 1212.31 c 0
464.159 1212.31 m 0
 464.159 1329.37 505.893 1530.91 836.708 1618.45 c 1
 865.209 1531.93 l 1
 700.311 1489.18 637.2 1393.5 637.2 1313.08 c 0
 637.2 1242.85 694.202 1178.72 782.759 1178.72 c 0
 794.974 1178.72 807.188 1180.76 819.404 1181.77 c 1
 829.582 1155.31 837.726 1132.92 837.726 1103.4 c 0
 837.726 1002.62 747.133 950.711 684.023 950.711 c 0
 596.485 950.711 464.159 1022.98 464.159 1212.31 c 0
EndSplineSet
Fore
Refer: 214 8216 S 1 0 0 1 316 0 2
Refer: 214 8216 N 1 0 0 1 0 0 2
Colour: ffffff
EndChar

StartChar: quotedblright
Encoding: 202 8221 213
Width: 753
VWidth: 0
Flags: HMW
LayerCount: 2
Back
SplineSet
77.3604 1035.2 m 1
 242.259 1077.95 305.367 1173.63 305.367 1254.04 c 0
 305.367 1324.28 249.383 1388.41 160.826 1388.41 c 0
 148.612 1388.41 135.38 1387.39 123.165 1386.37 c 1
 112.986 1412.83 104.843 1436.25 104.843 1465.77 c 0
 104.843 1566.54 195.436 1616.41 258.545 1616.41 c 0
 346.083 1616.41 478.409 1544.14 478.409 1354.82 c 0
 478.409 1237.76 437.693 1036.21 106.879 948.676 c 1
 77.3604 1035.2 l 1
477.392 1035.2 m 1
 642.291 1077.95 705.399 1173.63 705.399 1254.04 c 0
 705.399 1324.28 648.397 1388.41 559.841 1388.41 c 0
 547.626 1388.41 534.394 1387.39 522.179 1386.37 c 1
 512 1412.83 502.839 1436.25 502.839 1465.77 c 0
 502.839 1566.54 594.449 1616.41 657.559 1616.41 c 0
 745.098 1616.41 877.424 1544.14 877.424 1354.82 c 0
 877.424 1237.76 836.708 1036.21 505.893 948.676 c 1
 477.392 1035.2 l 1
EndSplineSet
Fore
Refer: 215 8217 S 1 0 0 1 347 0 2
Refer: 215 8217 N 1 0 0 1 0 0 2
Colour: ffffff
EndChar

StartChar: quoteleft
Encoding: 198 8216 214
Width: 404
VWidth: 0
Flags: HMW
LayerCount: 2
Back
SplineSet
66.1631 1208.24 m 0
 66.1631 1325.3 107.897 1526.84 438.711 1614.38 c 1
 467.213 1527.86 l 1
 302.313 1485.1 239.204 1389.42 239.204 1309.01 c 0
 239.204 1238.78 296.207 1174.65 384.764 1174.65 c 0
 396.979 1174.65 409.193 1176.68 421.408 1177.7 c 1
 431.587 1151.24 440.748 1128.84 440.748 1099.32 c 0
 440.748 998.553 349.137 946.641 286.028 946.641 c 0
 198.489 946.641 66.1631 1018.91 66.1631 1208.24 c 0
EndSplineSet
Fore
Refer: 56 44 S -1 0 0 -1 407 985 2
Colour: ffffff
EndChar

StartChar: quoteright
Encoding: 199 8217 215
Width: 406
VWidth: 0
Flags: HMW
LayerCount: 2
Back
SplineSet
77.3604 1030.11 m 1
 242.259 1072.86 305.367 1166.5 305.367 1246.92 c 0
 305.367 1317.15 249.383 1382.3 160.826 1382.3 c 0
 148.612 1382.3 135.38 1380.26 123.165 1379.24 c 1
 112.986 1405.71 104.843 1429.12 104.843 1458.64 c 0
 104.843 1559.41 195.436 1610.31 258.545 1610.31 c 0
 346.083 1610.31 478.409 1538.04 478.409 1348.71 c 0
 478.409 1231.65 437.693 1030.11 106.879 942.569 c 1
 77.3604 1030.11 l 1
EndSplineSet
Fore
Refer: 56 44 N 1 0 0 1 0 1064 2
Colour: ffffff
EndChar

StartChar: quotesinglbase
Encoding: 200 8218 216
Width: 414
VWidth: 0
Flags: HMW
LayerCount: 2
Back
SplineSet
68.1982 -306.387 m 1
 233.098 -263.635 297.225 -168.97 297.225 -88.5566 c 0
 297.225 -18.3223 239.204 45.8047 150.648 45.8047 c 0
 138.433 45.8047 125.2 43.7695 112.986 42.752 c 1
 102.807 69.2168 95.6826 92.6279 95.6826 122.147 c 0
 95.6826 222.918 185.257 273.813 248.365 273.813 c 0
 335.904 273.813 468.23 201.543 468.23 12.2148 c 0
 468.23 -104.843 427.515 -306.387 96.7002 -393.924 c 1
 68.1982 -306.387 l 1
EndSplineSet
Fore
Refer: 56 44 S 1 0 0 1 1 0 2
Colour: ffffff
EndChar

StartChar: semicolon
Encoding: 27 59 217
Width: 397
VWidth: 0
Flags: HMW
LayerCount: 2
Back
SplineSet
96.7002 -289.082 m 5xe8
 250.401 -249.383 309.439 -163.881 309.439 -87.5391 c 4
 309.439 -22.3936 256.509 38.6797 174.061 38.6797 c 4
 162.863 38.6797 149.63 36.6436 138.433 35.626 c 5
 128.255 60.0557 120.111 82.4492 120.111 108.915 c 4
 120.111 202.561 204.596 250.401 263.635 250.401 c 4
 344.048 250.401 468.23 182.202 468.23 7.12598 c 4
 468.23 -101.789 429.551 -290.1 123.165 -370.513 c 5
 96.7002 -289.082 l 5xe8
157.773 935.443 m 4xf0
 157.773 1012.8 223.937 1071.84 301.296 1071.84 c 4
 381.709 1071.84 447.872 1010.77 447.872 933.408 c 4
 447.872 851.976 381.709 786.831 301.296 786.831 c 4
 220.883 786.831 157.773 854.013 157.773 935.443 c 4xf0
EndSplineSet
Fore
Refer: 116 46 N 1 0 0 1 18 661 2
Refer: 56 44 N 1 0 0 0.960692 -8 -12 2
Colour: ffffff
EndChar

StartChar: micro
Encoding: 116 181 218
Width: 1017
VWidth: 0
Flags: HMW
LayerCount: 2
Fore
SplineSet
42 803 m 1
 50 857 l 1
 299 878 l 1
 316 860 l 1
 316 316 l 2
 316 152 380 82 486 82 c 0
 576 82 644 138 693 186 c 1
 693 759 l 1
 535 795 l 1
 541 854 l 1
 807 878 l 1
 821 860 l 1
 821 222 l 2
 821 120 846 83 922 68 c 2
 974 57 l 1
 968 -2 l 1
 927 -14 891 -21 841 -21 c 0
 750 -21 705 42 705 119 c 2
 705 131 l 1
 693 131 l 1
 614 30 515 -24 415 -24 c 0
 350 -24 291 -1 261 49 c 1
 255 49 l 1
 258 31 259 -22 263 -86 c 1
 278 -388 l 1
 167 -362 l 1
 169 -335 187 180 187 494 c 2
 187 761 l 1
 42 803 l 1
EndSplineSet
Colour: ffffff
EndChar

StartChar: a.sc
Encoding: 219 -1 219
Width: 1031
VWidth: 845
Flags: HW
LayerCount: 2
Fore
SplineSet
39 0 m 1
 46 58 l 1
 161.5 100.5 l 1
 482 918.5 l 1
 584 941 l 1
 886.5 95 l 1
 991 63.5 l 1
 982.5 0.5 l 1
 585.5 0.5 l 1
 596 58.5 l 1
 729.5 97 l 9
 501 747 l 25
 267.5 94.5 l 17
 417.5 63 l 1
 407.5 0 l 1
 39 0 l 1
305.5 308 m 9
 334.5 387 l 17
 692 387 l 9
 716 308 l 17
 305.5 308 l 9
EndSplineSet
Colour: ffffff
EndChar

StartChar: b.sc
Encoding: 220 -1 220
Width: 890
VWidth: 845
Flags: HW
LayerCount: 2
Fore
SplineSet
41 0 m 1
 50.5 58 l 1
 188.5 96.5 l 1
 188.5 827 l 1
 47 850 l 1
 57 906.5 l 1
 155.5 923 296.5 947.5 441 947.5 c 0
 668 947.5 772 848 772 726.5 c 0
 772 634 720 549 606.5 507 c 1
 606.5 500.5 l 1
 764 488.5 852.5 401.5 852.5 286 c 0
 852.5 125 730.5 0 414 0 c 2
 41 0 l 1
335 75 m 1
 454.5 75 l 2
 635.5 75 701.5 147.5 701.5 268 c 0
 701.5 353 642 446.5 486 446.5 c 2
 335 446.5 l 1
 335 75 l 1
335 512.5 m 1
 529.5 512.5 l 1
 594 547.5 631 589 631 700.5 c 0
 631 806.5 553 882 382.5 882 c 0
 370 882 348.5 881.5 335 877.5 c 1
 335 512.5 l 1
EndSplineSet
Colour: ffffff
EndChar

StartChar: c.sc
Encoding: 221 -1 221
Width: 834
VWidth: 845
Flags: HW
LayerCount: 2
Fore
SplineSet
43 432.5 m 0
 43 670.5 183.5 940.5 504 940.5 c 0
 599.5 940.5 687.5 923.5 757 877 c 1
 731 614.5 l 1
 658.5 625 l 1
 642.5 789.5 l 1
 615.5 828.5 570.5 865 462 865 c 0
 309 865 193 731.5 193 480 c 0
 193 218.5 330.5 75 505 75 c 0
 626.5 75 709 116.5 770 160 c 1
 799 108.5 l 1
 743.5 50.5 628 -25 447.5 -25 c 0
 222.5 -25 43 144.5 43 432.5 c 0
EndSplineSet
Colour: ffffff
EndChar

StartChar: d.sc
Encoding: 222 -1 222
Width: 999
VWidth: 845
Flags: HW
LayerCount: 2
Fore
SplineSet
40 0 m 1
 51 58 l 1
 191.5 100.5 l 1
 191.5 814 l 1
 44.5 840 l 1
 54 896 l 1
 212.5 924 335 939.5 452 939.5 c 0
 845 939.5 958 721.5 958 497.5 c 0
 958 196.5 729 0 372 0 c 2
 40 0 l 1
337.5 79 m 1
 409.5 79 l 2
 673 79 804 227 804 462 c 0
 804 720.5 668.5 861 415 861 c 0
 394 861 357 859.5 337.5 857 c 1
 337.5 79 l 1
EndSplineSet
Colour: ffffff
EndChar

StartChar: e.sc
Encoding: 223 -1 223
Width: 894
VWidth: 845
Flags: HW
LayerCount: 2
Fore
SplineSet
43.5 861.5 m 1
 52.5 920.5 l 1
 817.5 920.5 l 1
 791.5 649.5 l 1
 719 659 l 1
 699 849 l 1
 343 849 l 1
 343 490 l 1
 573.5 490 l 1
 598.5 574.5 l 1
 674.5 585.5 l 1
 641 301.5 l 1
 570 290.5 l 1
 561 416.5 l 1
 343 416.5 l 1
 343 75 l 1
 729 75 l 1
 789.5 274.5 l 1
 857 263 l 1
 837 0 l 1
 48.5 0 l 1
 55.5 58 l 1
 194 96.5 l 1
 194 827 l 1
 43.5 861.5 l 1
EndSplineSet
Colour: ffffff
EndChar

StartChar: f.sc
Encoding: 224 -1 224
Width: 868
VWidth: 845
Flags: HW
LayerCount: 2
Fore
SplineSet
43.5 863 m 1
 52.5 922 l 1
 824 922 l 1
 793 650.5 l 1
 717 661.5 l 1
 701 850.5 l 1
 341.5 850.5 l 1
 341.5 460 l 1
 589.5 460 l 1
 615.5 551.5 l 1
 691 562 l 1
 662 273.5 l 1
 589.5 262.5 l 1
 577.5 387.5 l 1
 341.5 387.5 l 1
 340 96 l 1
 537 68 l 1
 524.5 0 l 1
 49 0 l 1
 54.5 58 l 1
 193 96.5 l 1
 193 828.5 l 1
 43.5 863 l 1
EndSplineSet
Colour: ffffff
EndChar

StartChar: g.sc
Encoding: 225 -1 225
Width: 1005
VWidth: 845
Flags: HW
LayerCount: 2
Fore
SplineSet
42.5 421 m 0
 42.5 717.5 265 940.5 551.5 940.5 c 0
 670 940.5 784 921.5 859 881 c 1
 832 606 l 1
 756 616 l 1
 737.5 786.5 l 1
 704 822 620.5 863.5 504 863.5 c 0
 331 863.5 199.5 722 199.5 475 c 0
 199.5 245 296.5 56.5 518 56.5 c 0
 610 56.5 669.5 68 715 100 c 1
 715 302.5 l 1
 516.5 334 l 1
 525.5 395 l 1
 968.5 395 l 1
 958 333.5 l 1
 860 307 l 1
 860 34 l 1
 767.5 -1 636.5 -25.5 474.5 -25.5 c 0
 205 -25.5 42.5 153 42.5 421 c 0
EndSplineSet
Colour: ffffff
EndChar

StartChar: h.sc
Encoding: 226 -1 226
Width: 1150
VWidth: 845
Flags: HW
LayerCount: 2
Fore
SplineSet
43 864.5 m 1
 50 922 l 1
 490 922 l 1
 482.5 864.5 l 1
 344 834 l 1
 344 497 l 1
 802 497 l 1
 802 831 l 1
 648.5 864.5 l 1
 657.5 922 l 1
 1098 922 l 1
 1088 864.5 l 1
 951 834 l 1
 951 89.5 l 1
 1103.5 63 l 1
 1095 0 l 1
 657 0 l 1
 666 58 l 1
 802 96.5 l 1
 802 415.5 l 1
 344 415.5 l 1
 344 89.5 l 1
 499 63 l 1
 487 0 l 1
 50.5 0 l 1
 57 58 l 1
 194 96.5 l 1
 194 831 l 1
 43 864.5 l 1
EndSplineSet
Colour: ffffff
EndChar

StartChar: i.sc
Encoding: 227 -1 227
Width: 543
VWidth: 845
Flags: HW
LayerCount: 2
Fore
SplineSet
42 864.5 m 1
 50.5 922 l 1
 91 922 414.5 922 491 922 c 1
 482.5 864.5 l 1
 340.5 834 l 1
 340.5 89.5 l 1
 497.5 63 l 1
 488 0 l 1
 50.5 0 l 1
 57 58 l 1
 189.5 96.5 l 1
 189.5 831 l 1
 42 864.5 l 1
EndSplineSet
Colour: ffffff
EndChar

StartChar: j.sc
Encoding: 228 -1 228
Width: 573
VWidth: 845
Flags: HW
LayerCount: 2
Fore
SplineSet
-9 -259 m 1
 152 -132 234.5 -15.5 234.5 175.5 c 2
 234.5 831 l 1
 84 864.5 l 1
 91.5 922 l 1
 533.5 922 l 1
 525.5 864.5 l 1
 387 834 l 1
 385 283.5 l 2
 384 -65 297.5 -167.5 29 -325.5 c 1
 -9 -259 l 1
EndSplineSet
Colour: ffffff
EndChar

StartChar: k.sc
Encoding: 229 -1 229
Width: 1066
VWidth: 845
Flags: HW
LayerCount: 2
Fore
SplineSet
42 864.5 m 1
 51.5 922 l 1
 488.5 922 l 1
 482 864.5 l 1
 343.5 829.5 l 1
 343.5 94.5 l 1
 511 63 l 1
 504 0 l 1
 50.5 0 l 1
 58.5 58 l 1
 193 100.5 l 1
 193 826.5 l 1
 42 864.5 l 1
387.5 463 m 1
 424.5 499.5 473.5 549 529 609.5 c 2
 741 832.5 l 1
 615.5 864.5 l 1
 621.5 922 l 1
 996.5 922 l 1
 989 863 l 1
 857.5 831.5 l 1
 526.5 483 l 1
 635 344.5 l 2
 766 177.5 871 90 980 64.5 c 2
 1018 56 l 1
 1012 0 l 1
 977.5 -14 938.5 -20.5 900.5 -20.5 c 0
 735.5 -20.5 622.5 98 524.5 244 c 2
 389 445 l 1
 387.5 463 l 1
EndSplineSet
Colour: ffffff
EndChar

StartChar: l.sc
Encoding: 230 -1 230
Width: 898
VWidth: 845
Flags: HW
LayerCount: 2
Fore
SplineSet
45 864 m 1
 53.5 922 l 1
 501 922 l 1
 494 864 l 1
 345.5 830 l 1
 345.5 75 l 1
 705.5 75 l 1
 786.5 291.5 l 1
 859.5 280.5 l 1
 839.5 0 l 1
 50.5 0 l 1
 57.5 58 l 1
 195 96.5 l 1
 195 826 l 1
 45 864 l 1
EndSplineSet
Colour: ffffff
EndChar

StartChar: m.sc
Encoding: 231 -1 231
Width: 1386
VWidth: 845
Flags: HW
LayerCount: 2
Fore
SplineSet
37 0 m 1
 45 53.5 l 1
 182 92.5 l 1
 230.5 828.5 l 1
 77 866 l 1
 85.5 922 l 1
 409 922 l 1
 491 731 l 1
 688.5 274.5 l 1
 907 769 l 1
 977 922 l 1
 1309 922 l 1
 1301.5 866 l 1
 1161.5 832 l 1
 1192.5 87 l 1
 1343.5 60 l 1
 1337.5 0 l 1
 893.5 0 l 1
 902 53.5 l 1
 1045.5 92.5 l 1
 1018 779 l 1
 699 60 l 1
 610 45.5 l 1
 318 742 l 1
 281.5 87.5 l 1
 433.5 58.5 l 1
 424.5 0 l 1
 37 0 l 1
EndSplineSet
Colour: ffffff
EndChar

StartChar: n.sc
Encoding: 232 -1 232
Width: 1101
VWidth: 845
Flags: HW
LayerCount: 2
Fore
SplineSet
42 866 m 1
 51.5 922 l 1
 333 922 l 1
 826 231 l 1
 826 831 l 1
 673.5 864.5 l 1
 682.5 922 l 1
 1085.5 922 l 1
 1075 864.5 l 1
 923.5 834 l 1
 923.5 2 l 1
 820 -19 l 1
 296.5 715 l 1
 296.5 89.5 l 1
 450.5 63 l 1
 440 0 l 1
 51.5 0 l 1
 58.5 58 l 1
 195.5 96.5 l 1
 195.5 824 l 1
 42 866 l 1
EndSplineSet
Colour: ffffff
EndChar

StartChar: o.sc
Encoding: 233 -1 233
Width: 1001
VWidth: 845
Flags: HW
LayerCount: 2
Fore
SplineSet
42 444 m 0
 42 733 231.5 940.5 536 940.5 c 0
 816.5 940.5 974 728 974 465 c 0
 974 219 808.5 -27 481.5 -27 c 0
 216 -27 42 183.5 42 444 c 0
200.5 497 m 0
 200.5 250.5 320.5 58 515.5 58 c 0
 733.5 58 815 230 815 421 c 0
 815 653.5 703.5 864.5 498 864.5 c 0
 280.5 864.5 200.5 700.5 200.5 497 c 0
EndSplineSet
Colour: ffffff
EndChar

StartChar: p.sc
Encoding: 234 -1 234
Width: 882
VWidth: 845
Flags: HW
LayerCount: 2
Fore
SplineSet
42.5 0 m 1
 50.5 58 l 1
 198 96.5 l 1
 198 818.5 l 1
 46.5 844.5 l 1
 56 901 l 1
 176 918.5 303 940.5 461 940.5 c 0
 670 940.5 855.5 867.5 855.5 646 c 0
 855.5 425.716 648.757 300.788 430 313 c 1
 416.5 375 l 1
 470 377 l 2
 625 383 698.5 487 698.5 623 c 0
 698.5 756 615.5 877 425 877 c 0
 396 877 349 872 349 872 c 1
 349 94 l 1
 564.5 64.5 l 1
 553.5 0 l 1
 42.5 0 l 1
EndSplineSet
Colour: ffffff
EndChar

StartChar: q.sc
Encoding: 235 -1 235
Width: 1008
VWidth: 845
Flags: HW
LayerCount: 2
Fore
SplineSet
37 452.5 m 0
 37 732 243 940.5 527.5 940.5 c 0
 808.5 940.5 967.5 730.5 967.5 481 c 0
 967.5 237.5 820 47.5 603 -9 c 1
 660 -151 754.5 -230 945 -227 c 1
 943.5 -242 940.5 -275.5 936 -287.5 c 1
 887.5 -313 835 -326 784.5 -326 c 0
 626 -326 518 -197 527.5 -26 c 1
 229.5 -48 37 171 37 452.5 c 0
190 510.5 m 0
 190 259 332 51 552 45 c 1
 716 88 816 230.5 816 421.5 c 0
 816 665.5 684.5 865.5 481.5 865.5 c 0
 317.5 865.5 190 739.5 190 510.5 c 0
EndSplineSet
Colour: ffffff
EndChar

StartChar: r.sc
Encoding: 236 -1 236
Width: 1019
VWidth: 845
Flags: HW
LayerCount: 2
Fore
SplineSet
42.5 0 m 1
 51.5 58 l 1
 188 96.5 l 1
 188 819 l 1
 47.5 844.5 l 1
 57 901 l 1
 194.5 921.5 329.5 940.5 467.5 940.5 c 0
 684 940.5 826.5 852.5 826.5 688.5 c 0
 826.5 576.5 757 486 639.5 426 c 1
 639.5 425 l 1
 717.5 311 l 2
 814 158.5 898 88.5 974 66 c 2
 1004.5 57 l 1
 994 3.5 l 1
 951.5 -11.5 924 -14 887.5 -14 c 0
 759 -14 658.5 93 589 256 c 2
 534 375 l 1
 329 375 l 1
 329 95.5 l 1
 508 64.5 l 1
 498 0 l 1
 42.5 0 l 1
329 448.5 m 1
 549.5 448.5 l 1
 628 472.5 678.5 554 678.5 657 c 0
 678.5 793 585.5 875.5 431 875.5 c 0
 380 875.5 329 870.5 329 870.5 c 1
 329 448.5 l 1
EndSplineSet
Colour: ffffff
EndChar

StartChar: s.sc
Encoding: 237 -1 237
Width: 690
VWidth: 845
Flags: HW
LayerCount: 2
Fore
SplineSet
40.5 57.5 m 1
 71 300 l 1
 149 289 l 1
 165.5 128.5 l 1
 201.5 82 259 55 349.5 55 c 0
 429 55 512.5 95 512.5 179.5 c 0
 512.5 382.5 66 395.5 66 681 c 0
 66 847 217 940.5 365.5 940.5 c 0
 449.5 940.5 532 921 589 880.5 c 1
 589 877 569.5 634.5 569.5 634.5 c 1
 492 644 l 1
 476.5 800 l 1
 453.5 839 395.5 871.5 336 871.5 c 0
 244 871.5 192.5 826 192.5 739 c 0
 192.5 529 653 494.5 653 240 c 0
 653 84 509.5 -25 321.5 -25 c 0
 185 -25 91.5 8.5 40.5 57.5 c 1
EndSplineSet
Colour: ffffff
EndChar

StartChar: t.sc
Encoding: 238 -1 238
Width: 942
VWidth: 845
Flags: HW
LayerCount: 2
Fore
SplineSet
56 922 m 1
 886 922 l 1
 857.5 636.5 l 1
 785 647 l 1
 757 850.5 l 1
 542.5 850.5 l 1
 542.5 93.5 l 1
 698.5 63 l 1
 686 0 l 1
 245 0 l 1
 251 58 l 1
 393 96.5 l 1
 393 850.5 l 1
 171.5 850.5 l 1
 135.5 639.5 l 1
 64 650 l 1
 56 922 l 1
EndSplineSet
Colour: ffffff
EndChar

StartChar: u.sc
Encoding: 239 -1 239
Width: 1131
VWidth: 845
Flags: HW
LayerCount: 2
Fore
SplineSet
44 864.5 m 1
 52.5 922 l 1
 490.5 922 l 1
 484 864.5 l 1
 345 834 l 1
 345 360.5 l 2
 345 144 448.5 73.5 598 73.5 c 0
 752.5 73.5 844.5 137 845 333.5 c 2
 846.5 831 l 1
 692 864.5 l 1
 699.5 922 l 1
 1091 922 l 1
 1081.5 864.5 l 1
 945.5 834 l 1
 941.5 360.5 l 2
 939 96.5 811 -27 556.5 -27 c 0
 374.5 -27 196.5 40.5 196.5 333.5 c 2
 196.5 831 l 1
 44 864.5 l 1
EndSplineSet
Colour: ffffff
EndChar

StartChar: v.sc
Encoding: 240 -1 240
Width: 1034
VWidth: 845
Flags: HW
LayerCount: 2
Fore
SplineSet
41 866 m 1
 48 922 l 1
 466.5 922 l 1
 459.5 866 l 1
 326 834 l 1
 543 200.5 l 1
 775 830 l 1
 631 866 l 1
 636 922 l 1
 989.5 922 l 1
 984 866 l 1
 882.5 834 l 1
 566 -3.5 l 1
 464.5 -25 l 1
 161 830 l 1
 41 866 l 1
EndSplineSet
Colour: ffffff
EndChar

StartChar: w.sc
Encoding: 241 -1 241
Width: 1440
VWidth: 845
Flags: HW
LayerCount: 2
Fore
SplineSet
45 865.5 m 1
 53 922 l 1
 456.5 922 l 1
 447.5 868 l 1
 311.5 834 l 1
 494 224.5 l 1
 683.5 876 l 1
 794.5 891.5 l 1
 985.5 227.5 l 1
 1167.5 828.5 l 1
 1013.5 867 l 1
 1021.5 922 l 1
 1392.5 922 l 1
 1385.5 866 l 1
 1280 832 l 1
 1011 -4.5 l 1
 906.5 -25 l 1
 710 656 l 1
 521.5 -4.5 l 1
 409.5 -24.5 l 1
 156 830 l 1
 45 865.5 l 1
EndSplineSet
Colour: ffffff
EndChar

StartChar: x.sc
Encoding: 242 -1 242
Width: 1009
VWidth: 845
Flags: HW
LayerCount: 2
Fore
SplineSet
43.5 0 m 1
 52.5 56 l 1
 158 92.5 l 1
 429 451.5 l 1
 168 831.5 l 1
 51.5 867 l 1
 59.5 922 l 1
 466 922 l 1
 458.5 867 l 1
 338.5 834.5 l 1
 531 555.5 l 1
 728.5 833 l 1
 597.5 864.5 l 1
 606.5 922 l 1
 948 922 l 1
 944 866 l 1
 837.5 836.5 l 1
 586 485 l 1
 854.5 83.5 l 1
 970.5 58 l 1
 960.5 0 l 1
 561.5 0 l 1
 570 50.5 l 1
 686.5 85.5 l 1
 485 383 l 1
 272.5 88.5 l 1
 403 62.5 l 1
 391.5 0 l 1
 43.5 0 l 1
EndSplineSet
Colour: ffffff
EndChar

StartChar: y.sc
Encoding: 243 -1 243
Width: 948
VWidth: 845
Flags: HW
LayerCount: 2
Fore
SplineSet
28.5 865.5 m 1
 37 921.5 l 1
 446.5 921.5 l 1
 438.5 865.5 l 1
 311.5 833.5 l 1
 514 477 l 1
 713 830 l 1
 574 866 l 1
 580 922 l 1
 922.5 922 l 1
 916 866 l 1
 819 834 l 1
 560.5 382 l 1
 560.5 90.5 l 1
 711.5 63 l 1
 702.5 0 l 1
 260.5 0 l 1
 268.5 58 l 1
 411 96.5 l 1
 411 369.5 l 1
 147 829.5 l 1
 28.5 865.5 l 1
EndSplineSet
Colour: ffffff
EndChar

StartChar: z.sc
Encoding: 244 -1 244
Width: 871
VWidth: 845
Flags: HW
LayerCount: 2
Fore
SplineSet
40 70.5 m 1
 623 847 l 1
 220.5 847 l 1
 154.5 631 l 1
 84.5 645.5 l 1
 93.5 922 l 1
 808.5 922 l 1
 811 865.5 l 1
 217 79 l 1
 672.5 79 l 1
 760 296.5 l 1
 829.5 285 l 1
 801 0 l 1
 46.5 0 l 1
 40 70.5 l 1
EndSplineSet
Colour: ffffff
EndChar

StartChar: ae.sc
Encoding: 245 -1 245
Width: 1583
VWidth: 0
Flags: HW
LayerCount: 2
Fore
SplineSet
62.5 2 m 1
 69 59.5 l 1
 193.5 102 l 1
 685 831 l 1
 491.5 863 l 1
 499.5 920.5 l 1
 1336 920.5 l 1
 1310 649.5 l 1
 1237.5 659 l 1
 1217.5 849 l 1
 883 849 l 1
 883 490 l 1
 1097 490 l 1
 1122 574.5 l 1
 1198 585.5 l 1
 1164.5 301.5 l 1
 1093.5 290.5 l 1
 1084.5 416.5 l 1
 883 416.5 l 1
 883 75 l 1
 1247.5 75 l 1
 1308 274.5 l 1
 1375.5 263 l 1
 1355.5 0 l 1
 578 0 l 1
 585 58 l 1
 735.5 96.5 l 1
 735.5 332.5 l 1
 460 332.5 l 1
 306 96 l 1
 457 65.5 l 1
 445.5 2 l 1
 62.5 2 l 1
510.5 410.5 m 1
 735 410.5 l 1
 736.5 758.5 l 1
 510.5 410.5 l 1
EndSplineSet
Colour: ffffff
EndChar

StartChar: eth.sc
Encoding: 246 -1 246
Width: 1150
VWidth: 0
Flags: HW
LayerCount: 2
Fore
SplineSet
60.5 0 m 1
 71.5 58 l 1
 212 100.5 l 1
 212 814 l 1
 65 840 l 1
 74.5 896 l 1
 233 924 355.5 939.5 472.5 939.5 c 0
 865.5 939.5 978.5 721.5 978.5 497.5 c 0
 978.5 196.5 749.5 0 392.5 0 c 2
 60.5 0 l 1
65.5 399 m 1
 75.5 475.5 l 1
 567 510.5 l 1
 557 435 l 1
 65.5 399 l 1
358 79 m 1
 430 79 l 2
 693.5 79 824.5 227 824.5 462 c 0
 824.5 720.5 689 861 435.5 861 c 0
 414.5 861 377.5 859.5 358 857 c 1
 358 79 l 1
EndSplineSet
Colour: ffffff
EndChar

StartChar: thorn.sc
Encoding: 247 -1 247
Width: 912
VWidth: 845
Flags: HW
LayerCount: 2
Fore
SplineSet
63.5 864.5 m 1
 72 922 l 1
 113.5 922 438 922 516 922 c 1
 507.5 864.5 l 1
 362 834 l 1
 362 89.5 l 1
 519 63 l 1
 509.5 0 l 1
 72 0 l 1
 78.5 58 l 1
 211 96.5 l 1
 211 831 l 1
 63.5 864.5 l 1
287.5 749.5 m 1
 342.5 755.5 402 759 466.5 759 c 0
 665.5 759 842 692.5 842 489.5 c 0
 842 284.302 639.059 169.688 425.5 181.5 c 1
 412 243.5 l 1
 465.5 245.5 l 2
 613.5 251 684.5 344.5 684.5 466.5 c 0
 684.5 586.5 607.5 695.5 430.5 695.5 c 0
 394.5 695.5 335.5 690.5 335.5 690.5 c 1
 287.5 749.5 l 1
EndSplineSet
Colour: ffffff
EndChar

StartChar: germandbls.sc
Encoding: 248 -1 248
Width: 1069
VWidth: 845
Flags: HW
LayerCount: 2
Fore
SplineSet
19.5 0 m 1
 26 57.5 l 1
 168 91 l 1
 168 538.5 l 2
 168 821.395 366.358 941.35 649.5 941.35 c 0
 803.76 941.35 1000.5 898.401 1000.5 776 c 0
 1000.5 714.5 958 684 896.5 671 c 1
 875.5 761.5 830 863 715 863 c 0
 640.5 863 577.5 818.5 577.5 728 c 0
 577.5 498 1044 493.5 1044 240 c 0
 1044 84.5 898.5 -25 708 -25 c 0
 577 -25 482 7.5 430 54 c 1
 461 301.5 l 1
 536.5 290.5 l 1
 554 125.5 l 1
 590.5 82 637.5 56 741.5 56 c 0
 819.5 56 902.5 95.5 902.5 179.5 c 0
 902.5 372.5 449.5 381 449 653 c 0
 449 778.5 529.5 854.5 605 879.5 c 1
 606 883 l 1
 412.683 876.788 314 796.495 314 561.5 c 2
 314 0 l 1
 19.5 0 l 1
EndSplineSet
AlternateSubs2: "Neuton-Regular-Alternate Substitution in Latin lookup 0-1" germandbls.sc.alt
Colour: ffffff
EndChar

StartChar: germandbls.sc.alt
Encoding: 249 -1 249
Width: 1047
VWidth: 845
Flags: HW
LayerCount: 2
Fore
SplineSet
14 0 m 1
 20.5 57.5 l 1
 157.5 91 l 1
 157.5 540 l 2
 157.5 822 332.5 941.5 607 941.5 c 0
 751 941.5 903.5 917.5 964 898.5 c 1
 964.5 841 l 1
 709 541.5 l 1
 863.5 456 1034 379.5 1034 222.5 c 0
 1034 77.5 883.5 -25 690.5 -25 c 0
 564 -25 472.5 7.5 422.5 54 c 1
 453.5 301.5 l 1
 529 290.5 l 1
 546.5 125.5 l 1
 581.5 82 637.5 56 724 56 c 0
 822.5 56 897.5 99 897.5 177 c 0
 897.5 284 713.5 368.5 558 455 c 1
 536 499.5 l 1
 817 822 l 1
 817 826 l 1
 746 860 660 878 551 878 c 0
 384.5 878 303.5 771 303.5 563 c 2
 303.5 0 l 1
 14 0 l 1
EndSplineSet
Colour: ffffff
EndChar

StartChar: euro.osf
Encoding: 250 -1 250
Width: 1028
VWidth: 0
Flags: HW
LayerCount: 2
Fore
SplineSet
22.5 315 m 1
 31.5 398 l 1
 619 398 l 1
 602 315 l 1
 22.5 315 l 1
26.5 478 m 1
 34.5 560 l 1
 655 560 l 1
 638.5 478 l 1
 26.5 478 l 1
157 429 m 0
 157 695.5 320.5 940.5 620 940.5 c 0
 742.5 940.5 819 899 851 877 c 1
 825 614.5 l 1
 752.5 625 l 1
 736.5 789.5 l 1
 712 831.5 662 865 556.5 865 c 0
 419.5 865 327 744 327 462.5 c 1
 327 209.5 451.5 73.5 616.5 73.5 c 0
 747 73.5 818.5 126.5 862 168 c 1
 895 111 l 1
 861 62.5 765 -25 568 -25 c 0
 324.5 -25 157 140.5 157 429 c 0
EndSplineSet
Colour: ffffff
EndChar

StartChar: ampersand.sc
Encoding: 251 -1 251
Width: 1127
VWidth: 0
Flags: HW
LayerCount: 2
Fore
SplineSet
98.5 181 m 0
 98.5 453.5 552.5 481 552.5 723 c 0
 552.5 813.5 503 872 428 872 c 0
 368.5 872 323 822 323 755 c 0
 323 681.5 369 616.5 452.5 519.5 c 2
 686.5 262.5 l 2
 813.5 123.5 884 86.5 961.5 64 c 2
 1001.5 52.5 l 1
 991.5 -0.5 l 1
 951.5 -14.5 924.5 -19 884.5 -19 c 0
 798.5 -19 707 34 629.5 120 c 2
 309.5 476.5 l 2
 253.5 542.5 198 624.5 198 708 c 0
 198 825 313.5 940.5 447.5 940.5 c 0
 588 940.5 672.5 858 672.5 752.5 c 0
 672.5 473.5 249.5 476 249.5 216 c 0
 249.5 136 308.5 73 394.5 73 c 0
 534.5 73 654 185 780.5 458.5 c 1
 661.5 494.5 l 1
 668 545 l 1
 1025.5 545 l 1
 1018.5 494.5 l 1
 873 461.5 l 1
 714.5 171 604 -19.5 343.5 -19.5 c 0
 178 -19.5 98.5 75 98.5 181 c 0
EndSplineSet
Colour: ffffff
EndChar

StartChar: dollar.osf
Encoding: 252 -1 252
Width: 750
VWidth: 0
Flags: HW
LayerCount: 2
Fore
SplineSet
292.5 1041.5 m 1
 414.5 1059 l 1
 400.5 890 l 1
 308.5 890 l 1
 292.5 1041.5 l 1
47 137.5 m 0
 47 193.5 83 239 152 244 c 1
 186.5 103 259 39.5 357 39.5 c 0
 442 39.5 506 82 506 158.5 c 0
 506 326 85 373.5 85 638 c 0
 85 760 187 899.5 366 899.5 c 0
 497.5 899.5 598.5 831.5 598.5 735 c 0
 598.5 662 551.5 627 490.5 622.5 c 1
 471.5 763.5 400.787 833.5 323 833.5 c 0
 246 833.5 195 779.5 195 697 c 0
 195 492 623.5 453.5 623.5 209.5 c 0
 623.5 71 488.5 -35 320 -35 c 0
 162.5 -35 47 42 47 137.5 c 0
287.5 -197 m 1
 302 -15 l 1
 400.5 -6 l 1
 414.5 -179 l 1
 287.5 -197 l 1
EndSplineSet
Colour: ffffff
EndChar

StartChar: paragraph.sc
Encoding: 253 -1 253
Width: 1134
VWidth: 0
Flags: HW
LayerCount: 2
Fore
SplineSet
103 591.5 m 0
 103 807 297 922 538 922 c 2
 716.5 922 l 1
 716.5 0.5 l 1
 384.5 0.5 l 1
 391 59 l 1
 588.5 97 l 1
 588.5 846 l 1
 556.5 847.5 528.5 848.5 512.5 848.5 c 0
 374 848.5 260 791.5 260 623 c 0
 260 488 349.5 394 518.5 391 c 1
 502 315 l 1
 276 315 103 398.5 103 591.5 c 0
786 0 m 1
 786 922 l 1
 1058 922 l 1
 1051 864 l 1
 907.5 834.5 l 1
 907.5 89 l 1
 1062 63 l 1
 1054 0 l 1
 786 0 l 1
EndSplineSet
Colour: ffffff
EndChar

StartChar: percent.osf
Encoding: 254 -1 254
Width: 1068
VWidth: 0
Flags: HW
LayerCount: 2
Fore
SplineSet
1 691.5 m 0
 1 829.5 112.5 941.5 229.5 941.5 c 0
 245 941.5 257 941 264 938.5 c 1
 264.5 879.5 l 17
 251 887 244.5 891.5 226.5 891.5 c 0
 148.5 891.5 120.5 780.5 120.5 690.5 c 0
 120.5 598 157.5 497.5 228.5 497.5 c 0
 308.5 497.5 340.5 596.5 340.5 691.5 c 0
 340.5 802 313.5 883.5 296 927.5 c 9
 819 940 l 25
 828.5 870.5 l 25
 401.5 878 l 17
 438.5 841 460.5 730.5 460.5 690.5 c 0
 460.5 549.5 340 441 228.5 441 c 0
 108 441 1 535 1 691.5 c 0
103 -21 m 1
 470 449.5 l 1
 819 940 l 1
 958 936 l 1
 957.5 922.5 l 1
 591 453 l 1
 255.5 -32 l 1
 103 -21 l 1
600.5 216 m 0
 600.5 354 712 466.5 829 466.5 c 0
 963.5 466.5 1060 360.5 1060 214 c 0
 1060 76 942.5 -33 831 -33 c 0
 710.5 -33 600.5 60.5 600.5 216 c 0
721.5 216 m 0
 721.5 123.5 760 23 831 23 c 0
 911 23 942 122 942 218.5 c 0
 942 313.5 901.5 418 829 418 c 0
 748.5 418 721.5 306 721.5 216 c 0
EndSplineSet
Colour: ffffff
EndChar

StartChar: sterling.osf
Encoding: 255 -1 255
Width: 1100
VWidth: 0
Flags: HW
LayerCount: 2
Fore
SplineSet
71 0 m 1
 77 58 l 1
 245 92.5 l 1
 275 155 285 232 285 315 c 2
 285 407 l 1
 107.5 397.5 l 1
 119 473.5 l 1
 289 483 l 1
 291.5 600 l 2
 296.5 788.5 398.5 941.5 627 941 c 0
 778.5 940.5 872 873.5 872 775.5 c 0
 872 712.5 814.5 675.5 760 669 c 1
 736 801 690.5 872 599 872 c 0
 454.5 872 439 781.5 439 549 c 2
 439 491 l 1
 686 505 l 1
 676 430 l 1
 436.5 413 l 1
 436.5 369.5 l 2
 436.5 226.5 418 134 368 78 c 1
 783.5 78 l 1
 882 316.5 l 1
 943.5 300.5 l 1
 916 0 l 1
 71 0 l 1
EndSplineSet
Colour: ffffff
EndChar

StartChar: yen.osf
Encoding: 256 -1 256
Width: 1048
VWidth: 0
Flags: HW
LayerCount: 2
Fore
SplineSet
96 867 m 1
 105.5 922 l 1
 513 922 l 1
 506 867 l 1
 386 833.5 l 1
 567.5 414 l 1
 756.5 830.5 l 1
 619.5 867 l 1
 625.5 921.5 l 1
 985 921.5 l 1
 978 867 l 1
 853 833 l 1
 626.5 374 l 1
 960 374 l 1
 949 301 l 1
 613 301 l 1
 613 90 l 1
 786.5 62 l 1
 777 0 l 1
 297 0 l 1
 304.5 56.5 l 1
 466.5 95.5 l 1
 466.5 301 l 1
 142 301 l 1
 153.5 374 l 1
 453 374 l 1
 235 830.5 l 1
 96 867 l 1
142 500.5 m 1
 153.5 572.5 l 1
 438 572.5 l 9
 465 500.5 l 17
 142 500.5 l 1
649.5 500.5 m 9
 684.5 572.5 l 17
 960 572.5 l 1
 949 500.5 l 1
 649.5 500.5 l 9
EndSplineSet
Colour: ffffff
EndChar

StartChar: oslash.sc
Encoding: 257 -1 257
Width: 950
VWidth: 0
Flags: HW
LayerCount: 2
Fore
SplineSet
31 444 m 0
 31 733 220.5 940.5 525 940.5 c 0
 805.5 940.5 963 728 963 465 c 0
 963 219 797.5 -27 470.5 -27 c 0
 205 -27 31 183.5 31 444 c 0
6 -13 m 1
 165.5 159 l 1
 211.5 179 l 1
 750 773 l 1
 764.5 814 l 1
 858 921 l 1
 992.5 929.5 l 1
 840 758 l 1
 787 724 l 1
 249.5 136.5 l 1
 235.5 96.5 l 1
 143.5 -6.5 l 1
 6 -13 l 1
189.5 497 m 0
 189.5 250.5 309.5 58 504.5 58 c 0
 722.5 58 804 230 804 421 c 0
 804 653.5 692.5 864.5 487 864.5 c 0
 269.5 864.5 189.5 700.5 189.5 497 c 0
EndSplineSet
Colour: ffffff
EndChar

StartChar: numbersign.osf
Encoding: 258 -1 258
Width: 962
VWidth: 0
Flags: HW
LayerCount: 2
Fore
SplineSet
14 244.5 m 1
 41 345.5 l 9
 794 345.5 l 17
 768 244.5 l 1
 14 244.5 l 1
69 558.5 m 17
 97 659.5 l 9
 852.5 659.5 l 17
 827.5 558.5 l 9
 69 558.5 l 17
184 -26 m 9
 329.5 933 l 17
 419 943 l 9
 273.5 -19 l 17
 184 -26 l 9
453.5 -26 m 9
 599 933 l 17
 688.5 942 l 9
 543 -19 l 17
 453.5 -26 l 9
EndSplineSet
Colour: ffffff
EndChar

StartChar: agrave.sc
Encoding: 259 -1 259
Width: 1430
VWidth: 0
Flags: HW
LayerCount: 2
Fore
SplineSet
12.5 0 m 1
 19.5 58 l 1
 135 100.5 l 1
 455.5 918.5 l 1
 557.5 941 l 1
 860 95 l 1
 964.5 63.5 l 1
 956 0.5 l 1
 559 0.5 l 1
 569.5 58.5 l 1
 703 97 l 9
 474.5 747 l 25
 241 94.5 l 17
 391 63 l 1
 381 0 l 1
 12.5 0 l 1
279 308 m 9
 308 387 l 17
 665.5 387 l 9
 689.5 308 l 17
 279 308 l 9
308.5 1326 m 1
 413 1363.5 l 1
 545.5 1029 l 1
 494.5 998 l 1
 308.5 1326 l 1
EndSplineSet
Colour: ffffff
EndChar

StartChar: aacute.sc
Encoding: 260 -1 260
Width: 944
VWidth: 0
Flags: HW
LayerCount: 2
Fore
SplineSet
22 0 m 1
 29 58 l 1
 144.5 100.5 l 1
 465 918.5 l 1
 567 941 l 1
 869.5 95 l 1
 974 63.5 l 1
 965.5 0.5 l 1
 568.5 0.5 l 1
 579 58.5 l 1
 712.5 97 l 9
 484 747 l 25
 250.5 94.5 l 17
 400.5 63 l 1
 390.5 0 l 1
 22 0 l 1
288.5 308 m 9
 317.5 387 l 17
 675 387 l 9
 699 308 l 17
 288.5 308 l 9
479 1029.85 m 1
 606.5 1360.85 l 1
 710 1321.85 l 1
 527 1000.85 l 1
 479 1029.85 l 1
EndSplineSet
Colour: ffffff
EndChar

StartChar: acircumflex.sc
Encoding: 261 -1 261
Width: 944
VWidth: 0
Flags: HW
LayerCount: 2
Fore
SplineSet
22.5 0 m 1
 29.5 58 l 1
 145 100.5 l 1
 465.5 918.5 l 1
 567.5 941 l 1
 870 95 l 1
 974.5 63.5 l 1
 966 0.5 l 1
 569 0.5 l 1
 579.5 58.5 l 1
 713 97 l 9
 484.5 747 l 25
 251 94.5 l 17
 401 63 l 1
 391 0 l 1
 22.5 0 l 1
289 308 m 9
 318 387 l 17
 675.5 387 l 9
 699.5 308 l 17
 289 308 l 9
328 1034.5 m 1
 495.5 1214.5 l 1
 550 1228.5 l 1
 728.5 1042.5 l 1
 688 1005.5 l 1
 516 1128 l 1
 506 1128 l 1
 358 1004.5 l 1
 328 1034.5 l 1
EndSplineSet
Colour: ffffff
EndChar

StartChar: atilde.sc
Encoding: 262 -1 262
Width: 1031
VWidth: 0
Flags: HW
LayerCount: 2
Fore
SplineSet
39 0 m 1
 46 58 l 1
 161.5 100.5 l 1
 482 918.5 l 1
 584 941 l 1
 886.5 95 l 1
 991 63.5 l 1
 982.5 0.5 l 1
 585.5 0.5 l 1
 596 58.5 l 1
 729.5 97 l 9
 501 747 l 25
 267.5 94.5 l 17
 417.5 63 l 1
 407.5 0 l 1
 39 0 l 1
305.5 308 m 9
 334.5 387 l 17
 692 387 l 9
 716 308 l 17
 305.5 308 l 9
319 1048 m 1
 335 1128.5 403 1211 487 1185 c 2
 636 1150 l 2
 682.5 1129.5 725.5 1140 747 1200.5 c 1
 787.5 1195.5 l 1
 773 1123.5 710 1026 615.5 1058 c 2
 467 1094 l 2
 420 1114 377.5 1102.5 354.5 1039.5 c 1
 319 1048 l 1
EndSplineSet
Colour: ffffff
EndChar

StartChar: adieresis.sc
Encoding: 263 -1 263
Width: 944
VWidth: 0
Flags: HW
LayerCount: 2
Fore
SplineSet
22.5 0 m 1
 29.5 58 l 1
 145 100.5 l 1
 465.5 918.5 l 1
 567.5 941 l 1
 870 95 l 1
 974.5 63.5 l 1
 966 0.5 l 1
 569 0.5 l 1
 579.5 58.5 l 1
 713 97 l 9
 484.5 747 l 25
 251 94.5 l 17
 401 63 l 1
 391 0 l 1
 22.5 0 l 1
289 308 m 9
 318 387 l 17
 675.5 387 l 9
 699.5 308 l 17
 289 308 l 9
311.5 1086 m 0
 311.5 1134.5 342 1163.5 381.5 1163.5 c 0
 422 1163.5 453.5 1134.5 453.5 1086 c 0
 453.5 1035 425.5 1004.5 382.5 1004.5 c 0
 340 1004.5 311.5 1036 311.5 1086 c 0
580 1086 m 0
 580 1134.5 610 1163.5 649.5 1163.5 c 0
 690 1163.5 722 1134.5 722 1086 c 0
 722 1035 693 1004.5 650 1004.5 c 0
 607.5 1004.5 580 1036 580 1086 c 0
EndSplineSet
Colour: ffffff
EndChar

StartChar: aring.sc
Encoding: 264 -1 264
Width: 944
VWidth: 0
Flags: HW
LayerCount: 2
Fore
SplineSet
22 0 m 1
 29 58 l 1
 144.5 100.5 l 1
 465 918.5 l 1
 567 941 l 1
 869.5 95 l 1
 974 63.5 l 1
 965.5 0.5 l 1
 568.5 0.5 l 1
 579 58.5 l 1
 712.5 97 l 9
 484 747 l 25
 250.5 94.5 l 17
 400.5 63 l 1
 390.5 0 l 1
 22 0 l 1
288.5 308 m 9
 317.5 387 l 17
 675 387 l 9
 699 308 l 17
 288.5 308 l 9
353 1156 m 0
 353 1248 427 1327.5 520.5 1327.5 c 0
 617 1327.5 677.5 1258.5 677.5 1165 c 0
 677.5 1074.5 610 990 508 990 c 0
 416 990 353 1054 353 1156 c 0
421 1167 m 0
 421 1104.5 452.5 1035 519 1035 c 0
 575.5 1035 609 1077 609 1151.5 c 0
 609 1215.5 573 1283 509 1283 c 0
 447.5 1283 421 1225 421 1167 c 0
EndSplineSet
Colour: ffffff
EndChar

StartChar: ccedilla.sc
Encoding: 265 -1 265
Width: 811
VWidth: 0
Flags: HW
LayerCount: 2
Fore
SplineSet
31.5 432.5 m 0
 31.5 670.5 172 940.5 492.5 940.5 c 0
 588 940.5 676 923.5 745.5 877 c 1
 719.5 614.5 l 1
 647 625 l 1
 631 789.5 l 1
 604 828.5 559 865 450.5 865 c 0
 297.5 865 181.5 731.5 181.5 480 c 0
 181.5 218.5 319 75 493.5 75 c 0
 615 75 697.5 116.5 758.5 160 c 1
 787.5 108.5 l 1
 732 50.5 616.5 -25 436 -25 c 0
 211 -25 31.5 144.5 31.5 432.5 c 0
355.5 -340.967 m 1
 413 -321.467 457.5 -278.967 457.5 -249.467 c 0
 457.5 -199.967 413.5 -164.967 377.5 -129.967 c 1
 469 1.0332 l 1
 535.5 1.0332 l 1
 481.5 -77.9668 l 1
 518.5 -110.967 570.5 -162.467 570.5 -228.967 c 0
 570.5 -307.967 487.5 -356.467 370.5 -391.467 c 1
 355.5 -340.967 l 1
EndSplineSet
Colour: ffffff
EndChar

StartChar: egrave.sc
Encoding: 266 -1 266
Width: 771
VWidth: 0
Flags: HW
LayerCount: 2
Fore
SplineSet
28 861.5 m 1
 37 920.5 l 1
 802 920.5 l 1
 776 649.5 l 1
 703.5 659 l 1
 683.5 849 l 1
 327.5 849 l 1
 327.5 490 l 1
 558 490 l 1
 583 574.5 l 1
 659 585.5 l 1
 625.5 301.5 l 1
 554.5 290.5 l 1
 545.5 416.5 l 1
 327.5 416.5 l 1
 327.5 75 l 1
 713.5 75 l 1
 774 274.5 l 1
 841.5 263 l 1
 821.5 0 l 1
 33 0 l 1
 40 58 l 1
 178.5 96.5 l 1
 178.5 827 l 1
 28 861.5 l 1
261.5 1323 m 1
 366 1360.5 l 1
 498.5 1026 l 1
 447.5 995 l 1
 261.5 1323 l 1
EndSplineSet
Colour: ffffff
EndChar

StartChar: eacute.sc
Encoding: 267 -1 267
Width: 771
VWidth: 0
Flags: HW
LayerCount: 2
Fore
SplineSet
28 861.5 m 1
 37 920.5 l 1
 802 920.5 l 1
 776 649.5 l 1
 703.5 659 l 1
 683.5 849 l 1
 327.5 849 l 1
 327.5 490 l 1
 558 490 l 1
 583 574.5 l 1
 659 585.5 l 1
 625.5 301.5 l 1
 554.5 290.5 l 1
 545.5 416.5 l 1
 327.5 416.5 l 1
 327.5 75 l 1
 713.5 75 l 1
 774 274.5 l 1
 841.5 263 l 1
 821.5 0 l 1
 33 0 l 1
 40 58 l 1
 178.5 96.5 l 1
 178.5 827 l 1
 28 861.5 l 1
398.5 1028 m 1
 526 1359 l 1
 629.5 1320 l 1
 446.5 999 l 1
 398.5 1028 l 1
EndSplineSet
Colour: ffffff
EndChar

StartChar: ecircumflex.sc
Encoding: 268 -1 268
Width: 832
VWidth: 0
Flags: HW
LayerCount: 2
Fore
SplineSet
32 861.5 m 1
 41 920.5 l 1
 806 920.5 l 1
 780 649.5 l 1
 707.5 659 l 1
 687.5 849 l 1
 331.5 849 l 1
 331.5 490 l 1
 562 490 l 1
 587 574.5 l 1
 663 585.5 l 1
 629.5 301.5 l 1
 558.5 290.5 l 1
 549.5 416.5 l 1
 331.5 416.5 l 1
 331.5 75 l 1
 717.5 75 l 1
 778 274.5 l 1
 845.5 263 l 1
 825.5 0 l 1
 37 0 l 1
 44 58 l 1
 182.5 96.5 l 1
 182.5 827 l 1
 32 861.5 l 1
262.5 1033.5 m 1
 430 1213.5 l 1
 484.5 1227.5 l 1
 663 1041.5 l 1
 622.5 1004.5 l 1
 450.5 1127 l 1
 440.5 1127 l 1
 292.5 1003.5 l 1
 262.5 1033.5 l 1
EndSplineSet
Colour: ffffff
EndChar

StartChar: edieresis.sc
Encoding: 269 -1 269
Width: 832
VWidth: 0
Flags: HW
LayerCount: 2
Fore
SplineSet
32 861.5 m 1
 41 920.5 l 1
 806 920.5 l 1
 780 649.5 l 1
 707.5 659 l 1
 687.5 849 l 1
 331.5 849 l 1
 331.5 490 l 1
 562 490 l 1
 587 574.5 l 1
 663 585.5 l 1
 629.5 301.5 l 1
 558.5 290.5 l 1
 549.5 416.5 l 1
 331.5 416.5 l 1
 331.5 75 l 1
 717.5 75 l 1
 778 274.5 l 1
 845.5 263 l 1
 825.5 0 l 1
 37 0 l 1
 44 58 l 1
 182.5 96.5 l 1
 182.5 827 l 1
 32 861.5 l 1
246.5 1084 m 0
 246.5 1132.5 277 1161.5 316.5 1161.5 c 0
 357 1161.5 388.5 1132.5 388.5 1084 c 0
 388.5 1033 360.5 1002.5 317.5 1002.5 c 0
 275 1002.5 246.5 1034 246.5 1084 c 0
515 1084 m 0
 515 1132.5 545 1161.5 584.5 1161.5 c 0
 625 1161.5 657 1132.5 657 1084 c 0
 657 1033 628 1002.5 585 1002.5 c 0
 542.5 1002.5 515 1034 515 1084 c 0
EndSplineSet
Colour: ffffff
EndChar

StartChar: igrave.sc
Encoding: 270 -1 270
Width: 543
VWidth: 0
Flags: HW
LayerCount: 2
Fore
SplineSet
42 864.5 m 1
 50.5 922 l 1
 91 922 414.5 922 491 922 c 1
 482.5 864.5 l 1
 340.5 834 l 1
 340.5 89.5 l 1
 497.5 63 l 1
 488 0 l 1
 50.5 0 l 1
 57 58 l 1
 189.5 96.5 l 1
 189.5 831 l 1
 42 864.5 l 1
85 1322.05 m 1
 189.5 1359.55 l 1
 321.5 1025.05 l 1
 270.5 994.05 l 1
 85 1322.05 l 1
EndSplineSet
Colour: ffffff
EndChar

StartChar: iacute.sc
Encoding: 271 -1 271
Width: 543
VWidth: 0
Flags: HW
LayerCount: 2
Fore
SplineSet
42 864.5 m 1
 50.5 922 l 1
 91 922 414.5 922 491 922 c 1
 482.5 864.5 l 1
 340.5 834 l 1
 340.5 89.5 l 1
 497.5 63 l 1
 488 0 l 1
 50.5 0 l 1
 57 58 l 1
 189.5 96.5 l 1
 189.5 831 l 1
 42 864.5 l 1
206.5 1031.05 m 1
 334 1362.05 l 1
 437.5 1323.05 l 1
 255 1002.05 l 1
 206.5 1031.05 l 1
EndSplineSet
Colour: ffffff
EndChar

StartChar: icircumflex.sc
Encoding: 272 -1 272
Width: 543
VWidth: 0
Flags: HW
LayerCount: 2
Fore
SplineSet
42 864.5 m 1
 50.5 922 l 1
 91 922 414.5 922 491 922 c 1
 482.5 864.5 l 1
 340.5 834 l 1
 340.5 89.5 l 1
 497.5 63 l 1
 488 0 l 1
 50.5 0 l 1
 57 58 l 1
 189.5 96.5 l 1
 189.5 831 l 1
 42 864.5 l 1
71 1032 m 1
 238 1212 l 1
 292.5 1226 l 1
 471.5 1040 l 1
 431 1003 l 1
 258.5 1125.5 l 1
 249 1125.5 l 1
 100.5 1002 l 1
 71 1032 l 1
EndSplineSet
Colour: ffffff
EndChar

StartChar: idieresis.sc
Encoding: 273 -1 273
Width: 543
VWidth: 0
Flags: HW
LayerCount: 2
Fore
SplineSet
42 864.5 m 1
 50.5 922 l 1
 91 922 414.5 922 491 922 c 1
 482.5 864.5 l 1
 340.5 834 l 1
 340.5 89.5 l 1
 497.5 63 l 1
 488 0 l 1
 50.5 0 l 1
 57 58 l 1
 189.5 96.5 l 1
 189.5 831 l 1
 42 864.5 l 1
67 1100 m 0
 67 1148.5 97.5 1177.5 137 1177.5 c 0
 177.5 1177.5 209 1148.5 209 1100 c 0
 209 1049 181 1018.5 138 1018.5 c 0
 95.5 1018.5 67 1050 67 1100 c 0
335.5 1100 m 0
 335.5 1148.5 365.5 1177.5 405 1177.5 c 0
 445.5 1177.5 477.5 1148.5 477.5 1100 c 0
 477.5 1049 448.5 1018.5 405.5 1018.5 c 0
 363 1018.5 335.5 1050 335.5 1100 c 0
EndSplineSet
Colour: ffffff
EndChar

StartChar: ntilde.sc
Encoding: 274 -1 274
Width: 1101
VWidth: 0
Flags: HW
LayerCount: 2
Fore
SplineSet
42 866 m 1
 51.5 922 l 1
 333 922 l 1
 826 231 l 1
 826 831 l 1
 673.5 864.5 l 1
 682.5 922 l 1
 1085.5 922 l 1
 1075 864.5 l 1
 923.5 834 l 1
 923.5 2 l 1
 820 -19 l 1
 296.5 715 l 1
 296.5 89.5 l 1
 450.5 63 l 1
 440 0 l 1
 51.5 0 l 1
 58.5 58 l 1
 195.5 96.5 l 1
 195.5 824 l 1
 42 866 l 1
301 1031 m 1
 317 1111.5 384.5 1194 468.5 1168 c 2
 618 1133 l 2
 664.5 1112.5 707.5 1123 729 1183.5 c 1
 769.5 1178.5 l 1
 755 1106.5 692 1009 597.5 1041 c 2
 449 1077 l 2
 402 1097 359 1085.5 336 1022.5 c 1
 301 1031 l 1
EndSplineSet
Colour: ffffff
EndChar

StartChar: ograve.sc
Encoding: 275 -1 275
Width: 952
VWidth: 0
Flags: HW
LayerCount: 2
Fore
SplineSet
31 444 m 0
 31 733 220.5 940.5 525 940.5 c 0
 805.5 940.5 963 728 963 465 c 0
 963 219 797.5 -27 470.5 -27 c 0
 205 -27 31 183.5 31 444 c 0
189.5 497 m 0
 189.5 250.5 309.5 58 504.5 58 c 0
 722.5 58 804 230 804 421 c 0
 804 653.5 692.5 864.5 487 864.5 c 0
 269.5 864.5 189.5 700.5 189.5 497 c 0
311.529 1322.05 m 1
 416.029 1359.55 l 1
 548.529 1025.05 l 1
 497.529 994.05 l 1
 311.529 1322.05 l 1
EndSplineSet
Colour: ffffff
EndChar

StartChar: oacute.sc
Encoding: 276 -1 276
Width: 952
VWidth: 0
Flags: HW
LayerCount: 2
Fore
SplineSet
31 444 m 0
 31 733 220.5 940.5 525 940.5 c 0
 805.5 940.5 963 728 963 465 c 0
 963 219 797.5 -27 470.5 -27 c 0
 205 -27 31 183.5 31 444 c 0
189.5 497 m 0
 189.5 250.5 309.5 58 504.5 58 c 0
 722.5 58 804 230 804 421 c 0
 804 653.5 692.5 864.5 487 864.5 c 0
 269.5 864.5 189.5 700.5 189.5 497 c 0
451.029 1029.05 m 1
 578.529 1360.05 l 1
 682.029 1321.05 l 1
 499.029 1000.05 l 1
 451.029 1029.05 l 1
EndSplineSet
Colour: ffffff
EndChar

StartChar: ocircumflex.sc
Encoding: 277 -1 277
Width: 952
VWidth: 0
Flags: HW
LayerCount: 2
Fore
SplineSet
31 444 m 0
 31 733 220.5 940.5 525 940.5 c 0
 805.5 940.5 963 728 963 465 c 0
 963 219 797.5 -27 470.5 -27 c 0
 205 -27 31 183.5 31 444 c 0
189.5 497 m 0
 189.5 250.5 309.5 58 504.5 58 c 0
 722.5 58 804 230 804 421 c 0
 804 653.5 692.5 864.5 487 864.5 c 0
 269.5 864.5 189.5 700.5 189.5 497 c 0
307 1043 m 1
 474.5 1223 l 1
 529 1237 l 1
 707.5 1051 l 1
 667 1014 l 1
 495 1136.5 l 1
 485 1136.5 l 1
 337 1013 l 1
 307 1043 l 1
EndSplineSet
Colour: ffffff
EndChar

StartChar: otilde.sc
Encoding: 278 -1 278
Width: 1001
VWidth: 0
Flags: HW
LayerCount: 2
Fore
SplineSet
42 444 m 0
 42 733 231.5 940.5 536 940.5 c 0
 816.5 940.5 974 728 974 465 c 0
 974 219 808.5 -27 481.5 -27 c 0
 216 -27 42 183.5 42 444 c 0
200.5 497 m 0
 200.5 250.5 320.5 58 515.5 58 c 0
 733.5 58 815 230 815 421 c 0
 815 653.5 703.5 864.5 498 864.5 c 0
 280.5 864.5 200.5 700.5 200.5 497 c 0
277.5 1031.5 m 1
 293.5 1112 361.5 1194.5 445.5 1168.5 c 2
 594.5 1133.5 l 2
 641 1113 684 1123.5 705.5 1184 c 1
 746 1179 l 1
 731.5 1107 668.5 1009.5 574 1041.5 c 2
 425.5 1077.5 l 2
 378.5 1097.5 336 1086 313 1023 c 1
 277.5 1031.5 l 1
EndSplineSet
Colour: ffffff
EndChar

StartChar: odieresis.sc
Encoding: 279 -1 279
Width: 952
VWidth: 0
Flags: HW
LayerCount: 2
Fore
SplineSet
31.5 444 m 0
 31.5 733 221 940.5 525.5 940.5 c 0
 806 940.5 963.5 728 963.5 465 c 0
 963.5 219 798 -27 471 -27 c 0
 205.5 -27 31.5 183.5 31.5 444 c 0
190 497 m 0
 190 250.5 310 58 505 58 c 0
 723 58 804.5 230 804.5 421 c 0
 804.5 653.5 693 864.5 487.5 864.5 c 0
 270 864.5 190 700.5 190 497 c 0
300 1105 m 0
 300 1153.5 330.5 1182.5 370 1182.5 c 0
 410.5 1182.5 442 1153.5 442 1105 c 0
 442 1054 414 1023.5 371 1023.5 c 0
 328.5 1023.5 300 1055 300 1105 c 0
568.5 1105 m 0
 568.5 1153.5 598.5 1182.5 638 1182.5 c 0
 678.5 1182.5 710.5 1153.5 710.5 1105 c 0
 710.5 1054 681.5 1023.5 638.5 1023.5 c 0
 596 1023.5 568.5 1055 568.5 1105 c 0
EndSplineSet
Colour: ffffff
EndChar

StartChar: ugrave.sc
Encoding: 280 -1 280
Width: 1075
VWidth: 0
Flags: HW
LayerCount: 2
Fore
SplineSet
47.5 864.5 m 1
 56 922 l 1
 494 922 l 1
 487.5 864.5 l 1
 348.5 834 l 1
 348.5 360.5 l 2
 348.5 144 452 73.5 601.5 73.5 c 0
 756 73.5 848 137 848.5 333.5 c 2
 850 831 l 1
 695.5 864.5 l 1
 703 922 l 1
 1094.5 922 l 1
 1085 864.5 l 1
 949 834 l 1
 945 360.5 l 2
 942.5 96.5 814.5 -27 560 -27 c 0
 378 -27 200 40.5 200 333.5 c 2
 200 831 l 1
 47.5 864.5 l 1
386.25 1320.1 m 1
 490.75 1357.6 l 1
 623.25 1023.1 l 1
 572.25 992.1 l 1
 386.25 1320.1 l 1
EndSplineSet
Colour: ffffff
EndChar

StartChar: uacute.sc
Encoding: 281 -1 281
Width: 1075
VWidth: 0
Flags: HW
LayerCount: 2
Fore
SplineSet
47.5 864.5 m 1
 56 922 l 1
 494 922 l 1
 487.5 864.5 l 1
 348.5 834 l 1
 348.5 360.5 l 2
 348.5 144 452 73.5 601.5 73.5 c 0
 756 73.5 848 137 848.5 333.5 c 2
 850 831 l 1
 695.5 864.5 l 1
 703 922 l 1
 1094.5 922 l 1
 1085 864.5 l 1
 949 834 l 1
 945 360.5 l 2
 942.5 96.5 814.5 -27 560 -27 c 0
 378 -27 200 40.5 200 333.5 c 2
 200 831 l 1
 47.5 864.5 l 1
538.25 1030.55 m 1
 665.75 1361.55 l 1
 769.25 1322.55 l 1
 586.25 1001.55 l 1
 538.25 1030.55 l 1
EndSplineSet
Colour: ffffff
EndChar

StartChar: ucircumflex.sc
Encoding: 282 -1 282
Width: 1075
VWidth: 0
Flags: HW
LayerCount: 2
Fore
SplineSet
47.5 864.5 m 1
 56 922 l 1
 494 922 l 1
 487.5 864.5 l 1
 348.5 834 l 1
 348.5 360.5 l 2
 348.5 144 452 73.5 601.5 73.5 c 0
 756 73.5 848 137 848.5 333.5 c 2
 850 831 l 1
 695.5 864.5 l 1
 703 922 l 1
 1094.5 922 l 1
 1085 864.5 l 1
 949 834 l 1
 945 360.5 l 2
 942.5 96.5 814.5 -27 560 -27 c 0
 378 -27 200 40.5 200 333.5 c 2
 200 831 l 1
 47.5 864.5 l 1
383.5 1030 m 1
 551 1210 l 1
 605.5 1224 l 1
 784 1038 l 1
 743.5 1001 l 1
 571.5 1123.5 l 1
 561.5 1123.5 l 1
 413.5 1000 l 1
 383.5 1030 l 1
EndSplineSet
Colour: ffffff
EndChar

StartChar: udieresis.sc
Encoding: 283 -1 283
Width: 1075
VWidth: 0
Flags: HW
LayerCount: 2
Fore
SplineSet
47.5 864.5 m 1
 56 922 l 1
 494 922 l 1
 487.5 864.5 l 1
 348.5 834 l 1
 348.5 360.5 l 2
 348.5 144 452 73.5 601.5 73.5 c 0
 756 73.5 848 137 848.5 333.5 c 2
 850 831 l 1
 695.5 864.5 l 1
 703 922 l 1
 1094.5 922 l 1
 1085 864.5 l 1
 949 834 l 1
 945 360.5 l 2
 942.5 96.5 814.5 -27 560 -27 c 0
 378 -27 200 40.5 200 333.5 c 2
 200 831 l 1
 47.5 864.5 l 1
381 1117 m 0
 381 1165.5 411.5 1194.5 451 1194.5 c 0
 491.5 1194.5 523 1165.5 523 1117 c 0
 523 1066 495 1035.5 452 1035.5 c 0
 409.5 1035.5 381 1067 381 1117 c 0
649.5 1117 m 0
 649.5 1165.5 679.5 1194.5 719 1194.5 c 0
 759.5 1194.5 791.5 1165.5 791.5 1117 c 0
 791.5 1066 762.5 1035.5 719.5 1035.5 c 0
 677 1035.5 649.5 1067 649.5 1117 c 0
EndSplineSet
Colour: ffffff
EndChar

StartChar: yacute.sc
Encoding: 284 -1 284
Width: 959
VWidth: 0
Flags: HW
LayerCount: 2
Fore
SplineSet
37 865.5 m 1
 45.5 921.5 l 1
 455 921.5 l 1
 447 865.5 l 1
 320 833.5 l 1
 522.5 477 l 1
 721.5 830 l 1
 582.5 866 l 1
 588.5 922 l 1
 931 922 l 1
 924.5 866 l 1
 827.5 834 l 1
 569 382 l 1
 569 90.5 l 1
 720 63 l 1
 711 0 l 1
 269 0 l 1
 277 58 l 1
 419.5 96.5 l 1
 419.5 369.5 l 1
 155.5 829.5 l 1
 37 865.5 l 1
470.5 1030.05 m 1
 598 1361.05 l 1
 701.5 1322.05 l 1
 518.5 1001.05 l 1
 470.5 1030.05 l 1
EndSplineSet
Colour: ffffff
EndChar

StartChar: ydieresis.sc
Encoding: 285 -1 285
Width: 1513
VWidth: 0
Flags: HW
LayerCount: 2
Fore
SplineSet
34 865.5 m 1
 42.5 921.5 l 1
 452 921.5 l 1
 444 865.5 l 1
 317 833.5 l 1
 519.5 477 l 1
 718.5 830 l 1
 579.5 866 l 1
 585.5 922 l 1
 928 922 l 1
 921.5 866 l 1
 824.5 834 l 1
 566 382 l 1
 566 90.5 l 1
 717 63 l 1
 708 0 l 1
 266 0 l 1
 274 58 l 1
 416.5 96.5 l 1
 416.5 369.5 l 1
 152.5 829.5 l 1
 34 865.5 l 1
289 1111 m 0
 289 1159.5 319.5 1188.5 359 1188.5 c 0
 399.5 1188.5 431 1159.5 431 1111 c 0
 431 1060 403 1029.5 360 1029.5 c 0
 317.5 1029.5 289 1061 289 1111 c 0
557.5 1111 m 0
 557.5 1159.5 587.5 1188.5 627 1188.5 c 0
 667.5 1188.5 699.5 1159.5 699.5 1111 c 0
 699.5 1060 670.5 1029.5 627.5 1029.5 c 0
 585 1029.5 557.5 1061 557.5 1111 c 0
EndSplineSet
Colour: ffffff
EndChar

StartChar: OE
Encoding: 286 338 286
Width: 1679
VWidth: 0
Flags: HW
LayerCount: 2
Fore
SplineSet
64 620 m 0
 64 1007 278 1274 657 1274 c 0
 722 1274 786 1265 839 1245 c 1
 1553 1244 l 1
 1522 925 l 1
 1456 934 l 1
 1426 1173 l 1
 945 1173 l 1
 945 668 l 1
 1238 668 l 1
 1278 797 l 1
 1351 808 l 1
 1317 419 l 1
 1250 408 l 1
 1225 594 l 1
 945 594 l 1
 945 75 l 1
 1452 75 l 1
 1537 324 l 1
 1600 313 l 1
 1569 0 l 1
 792 0 l 1
 726 -16 656 -27 588 -27 c 0
 260 -27 64 258 64 620 c 0
229 678 m 0
 229 363 360 55 633 55 c 0
 693 55 746 67 795 93 c 1
 795 1139 l 1
 740 1178 679 1197 610 1197 c 0
 355 1197 229 976 229 678 c 0
EndSplineSet
EndChar

StartChar: oe
Encoding: 287 339 287
Width: 1416
VWidth: 0
Flags: HW
LayerCount: 2
Fore
SplineSet
70 417 m 0
 70 721 261 890 466 890 c 0
 594 890 727 823 778 701 c 1
 835 797 948 886 1090 886 c 0
 1236 886 1340 801 1340 590 c 0
 1340 559 1332 482 1323 447 c 1
 840 442 l 1
 840 250 931 73 1126 73 c 0
 1209 73 1271 97 1346 148 c 1
 1368 104 l 1
 1300 25 1190 -30 1057 -30 c 0
 919 -30 818 49 760 161 c 1
 681 30 571 -27 443 -27 c 0
 216 -27 70 156 70 417 c 0
213 489 m 0
 213 268 310 57 486 57 c 0
 612 57 698 212 698 386 c 0
 698 587 613 807 435 807 c 0
 284 807 213 665 213 489 c 0
841 505 m 1
 1192 527 l 1
 1197 545 1200 607 1200 623 c 0
 1200 742 1137 805 1041 805 c 0
 949 805 846 707 841 505 c 1
EndSplineSet
EndChar

StartChar: trademark
Encoding: 288 8482 288
Width: 1138
VWidth: 0
Flags: HW
LayerCount: 2
Fore
SplineSet
580 684 m 1
 584 723 l 1
 659 741 l 1
 694 1187 l 1
 611 1204 l 1
 615 1244 l 1
 817 1244 l 1
 850 1158 l 1
 961 824 l 1
 1095 1175 l 1
 1125 1244 l 1
 1322 1244 l 1
 1318 1204 l 1
 1242 1188 l 1
 1266 738 l 1
 1347 726 l 1
 1345 684 l 1
 1100 684 l 1
 1104 723 l 1
 1180 741 l 1
 1154 1168 l 1
 985 710 l 1
 915 704 l 1
 751 1156 l 1
 719 738 l 1
 801 726 l 1
 796 684 l 1
 580 684 l 1
45 1244 m 1
 577 1244 l 1
 562 1083 l 1
 509 1088 l 1
 497 1197 l 1
 352 1197 l 1
 352 741 l 1
 434 728 l 1
 428 684 l 1
 180 684 l 1
 183 725 l 1
 260 743 l 1
 260 1197 l 1
 121 1197 l 1
 101 1084 l 1
 49 1089 l 1
 45 1244 l 1
EndSplineSet
EndChar

StartChar: fraction
Encoding: 291 8260 291
Width: 1738
VWidth: 0
Flags: HW
LayerCount: 2
Fore
SplineSet
164 -26 m 1
 540 588 l 1
 895 1211 l 1
 1025 1207 l 1
 1025 1192 l 1
 657 591 l 1
 310 -40 l 1
 164 -26 l 1
EndSplineSet
EndChar

StartChar: lozenge
Encoding: 293 9674 293
Width: 941
VWidth: 0
Flags: HW
LayerCount: 2
Fore
SplineSet
230 474 m 1
 472 759 l 1
 715 472 l 1
 474 180 l 1
 230 474 l 1
EndSplineSet
EndChar

StartChar: Rcaron
Encoding: 295 344 295
Width: 1223
VWidth: 0
Flags: HW
LayerCount: 2
Fore
SplineSet
381 1545 m 1
 449 1600 l 1
 606 1444 l 1
 616 1444 l 1
 748 1597 l 1
 789 1568 l 1
 616 1386 l 1
 560 1372 l 1
 381 1545 l 1
EndSplineSet
Refer: 23 82 N 1 0 0 1 0 0 3
EndChar

StartChar: rcaron
Encoding: 296 345 296
Width: 733
VWidth: 0
Flags: HW
LayerCount: 2
Fore
SplineSet
224 1162 m 5
 292 1217 l 5
 449 1061 l 5
 459 1061 l 5
 591 1214 l 5
 632 1185 l 5
 459 1003 l 5
 403 989 l 5
 224 1162 l 5
EndSplineSet
Refer: 123 114 N 1 0 0 1 0 0 3
EndChar

StartChar: Ecaron
Encoding: 297 282 297
Width: 1098
VWidth: 0
Flags: HW
LayerCount: 2
Fore
SplineSet
413 1545 m 5
 481 1600 l 5
 638 1444 l 5
 648 1444 l 5
 780 1597 l 5
 821 1568 l 5
 648 1386 l 5
 592 1372 l 5
 413 1545 l 5
EndSplineSet
Refer: 5 69 N 1 0 0 1 0 0 3
EndChar

StartChar: ecaron
Encoding: 298 283 298
Width: 765
VWidth: 0
Flags: HW
LayerCount: 2
Fore
SplineSet
266 1163 m 5
 334 1218 l 5
 491 1062 l 5
 501 1062 l 5
 633 1215 l 5
 674 1186 l 5
 501 1004 l 5
 445 990 l 5
 266 1163 l 5
EndSplineSet
Refer: 67 101 N 1 0 0 1 0 0 3
EndChar

StartChar: Scaron
Encoding: 299 352 299
Width: 850
VWidth: 0
Flags: HW
LayerCount: 2
Fore
SplineSet
273 1545 m 5
 341 1600 l 5
 498 1444 l 5
 508 1444 l 5
 640 1597 l 5
 681 1568 l 5
 508 1386 l 5
 452 1372 l 5
 273 1545 l 5
EndSplineSet
Refer: 24 83 N 1 0 0 1 0 0 3
EndChar

StartChar: scaron
Encoding: 300 353 300
Width: 667
VWidth: 0
Flags: HW
LayerCount: 2
Fore
SplineSet
181 1163 m 5
 249 1218 l 5
 406 1062 l 5
 416 1062 l 5
 548 1215 l 5
 589 1186 l 5
 416 1004 l 5
 360 990 l 5
 181 1163 l 5
EndSplineSet
Refer: 126 115 N 1 0 0 1 0 0 3
EndChar

StartChar: Zcaron
Encoding: 301 381 301
Width: 1070
VWidth: 0
Flags: HW
LayerCount: 2
Fore
SplineSet
347 1545 m 5
 415 1600 l 5
 572 1444 l 5
 582 1444 l 5
 714 1597 l 5
 755 1568 l 5
 582 1386 l 5
 526 1372 l 5
 347 1545 l 5
EndSplineSet
Refer: 35 90 N 1 0 0 1 0 0 3
EndChar

StartChar: zcaron
Encoding: 302 382 302
Width: 796
VWidth: 0
Flags: HW
LayerCount: 2
Fore
SplineSet
245 1163 m 5
 313 1218 l 5
 470 1062 l 5
 480 1062 l 5
 612 1215 l 5
 653 1186 l 5
 480 1004 l 5
 424 990 l 5
 245 1163 l 5
EndSplineSet
Refer: 155 122 N 1 0 0 1 0 0 3
EndChar

StartChar: Ccaron
Encoding: 303 268 303
Width: 1096
VWidth: 0
Flags: HW
LayerCount: 2
Fore
SplineSet
507 1545 m 5
 575 1600 l 5
 732 1444 l 5
 742 1444 l 5
 874 1597 l 5
 915 1568 l 5
 742 1386 l 5
 686 1372 l 5
 507 1545 l 5
EndSplineSet
Refer: 3 67 N 1 0 0 1 0 0 3
EndChar

StartChar: ccaron
Encoding: 304 269 304
Width: 765
VWidth: 0
Flags: HW
LayerCount: 2
Fore
SplineSet
288 1163 m 5
 356 1218 l 5
 513 1062 l 5
 523 1062 l 5
 655 1215 l 5
 696 1186 l 5
 523 1004 l 5
 467 990 l 5
 288 1163 l 5
EndSplineSet
Refer: 51 99 N 1 0 0 1 0 0 3
EndChar
